<svg width="154" height="16" viewBox="0 0 154 16" fill="none" xmlns="http://www.w3.org/2000/svg">
<path d="M7.29094 6.88H4.31494V9.792H3.30694V6.88H0.330938V5.936H3.30694V3.008H4.31494V5.936H7.29094V6.88ZM12.7416 5.6C13.9149 5.664 14.8056 5.984 15.4136 6.56C16.0322 7.12533 16.3416 7.86667 16.3416 8.784C16.3416 9.424 16.1869 9.99467 15.8776 10.496C15.5682 10.9867 15.1096 11.376 14.5016 11.664C13.8936 11.952 13.1522 12.096 12.2776 12.096C11.4669 12.096 10.6989 11.968 9.97356 11.712C9.2589 11.4453 8.6829 11.0933 8.24556 10.656L8.80556 9.744C9.1789 10.128 9.6749 10.4427 10.2936 10.688C10.9122 10.9227 11.5736 11.04 12.2776 11.04C13.1949 11.04 13.9042 10.8427 14.4056 10.448C14.9069 10.0427 15.1576 9.488 15.1576 8.784C15.1576 8.09067 14.9069 7.54667 14.4056 7.152C13.9042 6.75733 13.1469 6.56 12.1336 6.56H11.3336V5.712L14.4376 1.824H8.70956V0.799999H15.9096V1.616L12.7416 5.6ZM24.3808 6.128C25.0848 6.36267 25.6235 6.71467 25.9968 7.184C26.3808 7.65333 26.5728 8.21867 26.5728 8.88C26.5728 9.53067 26.3968 10.1013 26.0448 10.592C25.6928 11.072 25.1861 11.4453 24.5248 11.712C23.8741 11.968 23.1061 12.096 22.2208 12.096C20.8768 12.096 19.8208 11.808 19.0528 11.232C18.2848 10.656 17.9008 9.872 17.9008 8.88C17.9008 8.208 18.0821 7.64267 18.4448 7.184C18.8181 6.71467 19.3568 6.36267 20.0608 6.128C19.4848 5.904 19.0475 5.584 18.7488 5.168C18.4501 4.74133 18.3008 4.24 18.3008 3.664C18.3008 2.75733 18.6528 2.03733 19.3568 1.504C20.0715 0.970666 21.0261 0.704 22.2208 0.704C23.0101 0.704 23.6981 0.826666 24.2848 1.072C24.8821 1.30667 25.3461 1.648 25.6768 2.096C26.0075 2.544 26.1728 3.06667 26.1728 3.664C26.1728 4.24 26.0181 4.74133 25.7088 5.168C25.3995 5.584 24.9568 5.904 24.3808 6.128ZM19.4528 3.696C19.4528 4.31467 19.6981 4.80533 20.1888 5.168C20.6795 5.53067 21.3568 5.712 22.2208 5.712C23.0848 5.712 23.7621 5.53067 24.2528 5.168C24.7541 4.80533 25.0048 4.32 25.0048 3.712C25.0048 3.08267 24.7488 2.58667 24.2368 2.224C23.7355 1.86133 23.0635 1.68 22.2208 1.68C21.3675 1.68 20.6901 1.86133 20.1888 2.224C19.6981 2.58667 19.4528 3.07733 19.4528 3.696ZM22.2208 11.12C23.2128 11.12 23.9861 10.9173 24.5408 10.512C25.1061 10.1067 25.3888 9.55733 25.3888 8.864C25.3888 8.17067 25.1061 7.62667 24.5408 7.232C23.9861 6.82667 23.2128 6.624 22.2208 6.624C21.2395 6.624 20.4661 6.82667 19.9008 7.232C19.3461 7.62667 19.0688 8.17067 19.0688 8.864C19.0688 9.568 19.3461 10.1227 19.9008 10.528C20.4555 10.9227 21.2288 11.12 22.2208 11.12ZM30.8559 15.104C30.2586 14.1227 29.7999 12.9973 29.4799 11.728C29.1599 10.448 28.9999 9.07733 28.9999 7.616C28.9999 6.15467 29.1599 4.784 29.4799 3.504C29.7999 2.21333 30.2586 1.088 30.8559 0.127999H31.9439C31.3146 1.20533 30.8506 2.36267 30.5519 3.6C30.2639 4.83733 30.1199 6.176 30.1199 7.616C30.1199 9.056 30.2639 10.3947 30.5519 11.632C30.8506 12.8693 31.3146 14.0267 31.9439 15.104H30.8559ZM37.8976 12.096C37.0336 12.096 36.2602 11.8667 35.5776 11.408C34.9056 10.9493 34.3776 10.2933 33.9936 9.44C33.6202 8.576 33.4336 7.56267 33.4336 6.4C33.4336 5.23733 33.6202 4.22933 33.9936 3.376C34.3776 2.512 34.9056 1.85067 35.5776 1.392C36.2602 0.933333 37.0336 0.704 37.8976 0.704C38.7616 0.704 39.5296 0.933333 40.2016 1.392C40.8842 1.85067 41.4176 2.512 41.8016 3.376C42.1856 4.22933 42.3776 5.23733 42.3776 6.4C42.3776 7.56267 42.1856 8.576 41.8016 9.44C41.4176 10.2933 40.8842 10.9493 40.2016 11.408C39.5296 11.8667 38.7616 12.096 37.8976 12.096ZM37.8976 11.04C38.5482 11.04 39.1189 10.8587 39.6096 10.496C40.1109 10.1333 40.5002 9.60533 40.7776 8.912C41.0549 8.21867 41.1936 7.38133 41.1936 6.4C41.1936 5.41867 41.0549 4.58133 40.7776 3.888C40.5002 3.19467 40.1109 2.66667 39.6096 2.304C39.1189 1.94133 38.5482 1.76 37.8976 1.76C37.2469 1.76 36.6709 1.94133 36.1696 2.304C35.6789 2.66667 35.2949 3.19467 35.0176 3.888C34.7402 4.58133 34.6016 5.41867 34.6016 6.4C34.6016 7.38133 34.7402 8.21867 35.0176 8.912C35.2949 9.60533 35.6789 10.1333 36.1696 10.496C36.6709 10.8587 37.2469 11.04 37.8976 11.04ZM47.5153 0.704C48.998 0.704 50.134 1.19467 50.9233 2.176C51.7126 3.14667 52.1073 4.52267 52.1073 6.304C52.1073 7.552 51.894 8.608 51.4673 9.472C51.0406 10.336 50.4433 10.992 49.6753 11.44C48.9073 11.8773 48.0113 12.096 46.9873 12.096C45.878 12.096 44.9926 11.8933 44.3313 11.488L44.7953 10.56C45.3286 10.912 46.054 11.088 46.9713 11.088C48.2086 11.088 49.1793 10.6987 49.8833 9.92C50.5873 9.13067 50.9393 7.98933 50.9393 6.496C50.9393 6.21867 50.9233 5.91467 50.8913 5.584C50.614 6.192 50.1713 6.66667 49.5633 7.008C48.9553 7.33867 48.2566 7.504 47.4673 7.504C46.7313 7.504 46.0753 7.36533 45.4993 7.088C44.934 6.81067 44.4913 6.42133 44.1713 5.92C43.8513 5.408 43.6913 4.816 43.6913 4.144C43.6913 3.46133 43.8566 2.85867 44.1873 2.336C44.518 1.81333 44.9713 1.41333 45.5473 1.136C46.134 0.848 46.79 0.704 47.5153 0.704ZM47.6433 6.528C48.2086 6.528 48.7046 6.42133 49.1313 6.208C49.5686 5.99467 49.91 5.70133 50.1553 5.328C50.4006 4.95467 50.5233 4.53867 50.5233 4.08C50.5233 3.65333 50.406 3.25867 50.1713 2.896C49.9473 2.53333 49.6113 2.24 49.1633 2.016C48.7153 1.792 48.182 1.68 47.5633 1.68C46.7526 1.68 46.0913 1.904 45.5793 2.352C45.078 2.78933 44.8273 3.376 44.8273 4.112C44.8273 4.848 45.078 5.43467 45.5793 5.872C46.0913 6.30933 46.7793 6.528 47.6433 6.528ZM57.2653 0.704C58.748 0.704 59.884 1.19467 60.6733 2.176C61.4626 3.14667 61.8573 4.52267 61.8573 6.304C61.8573 7.552 61.644 8.608 61.2173 9.472C60.7906 10.336 60.1933 10.992 59.4253 11.44C58.6573 11.8773 57.7613 12.096 56.7373 12.096C55.628 12.096 54.7426 11.8933 54.0813 11.488L54.5453 10.56C55.0786 10.912 55.804 11.088 56.7213 11.088C57.9586 11.088 58.9293 10.6987 59.6333 9.92C60.3373 9.13067 60.6893 7.98933 60.6893 6.496C60.6893 6.21867 60.6733 5.91467 60.6413 5.584C60.364 6.192 59.9213 6.66667 59.3133 7.008C58.7053 7.33867 58.0066 7.504 57.2173 7.504C56.4813 7.504 55.8253 7.36533 55.2493 7.088C54.684 6.81067 54.2413 6.42133 53.9213 5.92C53.6013 5.408 53.4413 4.816 53.4413 4.144C53.4413 3.46133 53.6066 2.85867 53.9373 2.336C54.268 1.81333 54.7213 1.41333 55.2973 1.136C55.884 0.848 56.54 0.704 57.2653 0.704ZM57.3933 6.528C57.9586 6.528 58.4546 6.42133 58.8813 6.208C59.3186 5.99467 59.66 5.70133 59.9053 5.328C60.1506 4.95467 60.2733 4.53867 60.2733 4.08C60.2733 3.65333 60.156 3.25867 59.9213 2.896C59.6973 2.53333 59.3613 2.24 58.9133 2.016C58.4653 1.792 57.932 1.68 57.3133 1.68C56.5026 1.68 55.8413 1.904 55.3293 2.352C54.828 2.78933 54.5773 3.376 54.5773 4.112C54.5773 4.848 54.828 5.43467 55.3293 5.872C55.8413 6.30933 56.5293 6.528 57.3933 6.528ZM63.3353 15.104C63.9646 14.0267 64.4286 12.8747 64.7273 11.648C65.026 10.4107 65.1753 9.06667 65.1753 7.616C65.1753 6.16533 65.026 4.82667 64.7273 3.6C64.4286 2.36267 63.9646 1.20533 63.3353 0.127999H64.4233C65.0206 1.088 65.4793 2.21333 65.7993 3.504C66.13 4.784 66.2953 6.15467 66.2953 7.616C66.2953 9.07733 66.1353 10.448 65.8153 11.728C65.4953 13.008 65.0313 14.1333 64.4233 15.104H63.3353ZM68.9209 7.168H73.1129V8.16H68.9209V7.168ZM78.3903 0.704C79.873 0.704 81.009 1.19467 81.7983 2.176C82.5876 3.14667 82.9823 4.52267 82.9823 6.304C82.9823 7.552 82.769 8.608 82.3423 9.472C81.9156 10.336 81.3183 10.992 80.5503 11.44C79.7823 11.8773 78.8863 12.096 77.8623 12.096C76.753 12.096 75.8676 11.8933 75.2063 11.488L75.6703 10.56C76.2036 10.912 76.929 11.088 77.8463 11.088C79.0836 11.088 80.0543 10.6987 80.7583 9.92C81.4623 9.13067 81.8143 7.98933 81.8143 6.496C81.8143 6.21867 81.7983 5.91467 81.7663 5.584C81.489 6.192 81.0463 6.66667 80.4383 7.008C79.8303 7.33867 79.1316 7.504 78.3423 7.504C77.6063 7.504 76.9503 7.36533 76.3743 7.088C75.809 6.81067 75.3663 6.42133 75.0463 5.92C74.7263 5.408 74.5663 4.816 74.5663 4.144C74.5663 3.46133 74.7316 2.85867 75.0623 2.336C75.393 1.81333 75.8463 1.41333 76.4223 1.136C77.009 0.848 77.665 0.704 78.3903 0.704ZM78.5183 6.528C79.0836 6.528 79.5796 6.42133 80.0063 6.208C80.4436 5.99467 80.785 5.70133 81.0303 5.328C81.2756 4.95467 81.3983 4.53867 81.3983 4.08C81.3983 3.65333 81.281 3.25867 81.0463 2.896C80.8223 2.53333 80.4863 2.24 80.0383 2.016C79.5903 1.792 79.057 1.68 78.4383 1.68C77.6276 1.68 76.9663 1.904 76.4543 2.352C75.953 2.78933 75.7023 3.376 75.7023 4.112C75.7023 4.848 75.953 5.43467 76.4543 5.872C76.9663 6.30933 77.6543 6.528 78.5183 6.528ZM88.1403 0.704C89.623 0.704 90.759 1.19467 91.5483 2.176C92.3376 3.14667 92.7323 4.52267 92.7323 6.304C92.7323 7.552 92.519 8.608 92.0923 9.472C91.6656 10.336 91.0683 10.992 90.3003 11.44C89.5323 11.8773 88.6363 12.096 87.6123 12.096C86.503 12.096 85.6176 11.8933 84.9563 11.488L85.4203 10.56C85.9536 10.912 86.679 11.088 87.5963 11.088C88.8336 11.088 89.8043 10.6987 90.5083 9.92C91.2123 9.13067 91.5643 7.98933 91.5643 6.496C91.5643 6.21867 91.5483 5.91467 91.5163 5.584C91.239 6.192 90.7963 6.66667 90.1883 7.008C89.5803 7.33867 88.8816 7.504 88.0923 7.504C87.3563 7.504 86.7003 7.36533 86.1243 7.088C85.559 6.81067 85.1163 6.42133 84.7963 5.92C84.4763 5.408 84.3163 4.816 84.3163 4.144C84.3163 3.46133 84.4816 2.85867 84.8123 2.336C85.143 1.81333 85.5963 1.41333 86.1723 1.136C86.759 0.848 87.415 0.704 88.1403 0.704ZM88.2683 6.528C88.8336 6.528 89.3296 6.42133 89.7563 6.208C90.1936 5.99467 90.535 5.70133 90.7803 5.328C91.0256 4.95467 91.1483 4.53867 91.1483 4.08C91.1483 3.65333 91.031 3.25867 90.7963 2.896C90.5723 2.53333 90.2363 2.24 89.7883 2.016C89.3403 1.792 88.807 1.68 88.1883 1.68C87.3776 1.68 86.7163 1.904 86.2043 2.352C85.703 2.78933 85.4523 3.376 85.4523 4.112C85.4523 4.848 85.703 5.43467 86.2043 5.872C86.7163 6.30933 87.4043 6.528 88.2683 6.528ZM97.8903 0.704C99.373 0.704 100.509 1.19467 101.298 2.176C102.088 3.14667 102.482 4.52267 102.482 6.304C102.482 7.552 102.269 8.608 101.842 9.472C101.416 10.336 100.818 10.992 100.05 11.44C99.2823 11.8773 98.3863 12.096 97.3623 12.096C96.253 12.096 95.3676 11.8933 94.7063 11.488L95.1703 10.56C95.7036 10.912 96.429 11.088 97.3463 11.088C98.5836 11.088 99.5543 10.6987 100.258 9.92C100.962 9.13067 101.314 7.98933 101.314 6.496C101.314 6.21867 101.298 5.91467 101.266 5.584C100.989 6.192 100.546 6.66667 99.9383 7.008C99.3303 7.33867 98.6316 7.504 97.8423 7.504C97.1063 7.504 96.4503 7.36533 95.8743 7.088C95.309 6.81067 94.8663 6.42133 94.5463 5.92C94.2263 5.408 94.0663 4.816 94.0663 4.144C94.0663 3.46133 94.2316 2.85867 94.5623 2.336C94.893 1.81333 95.3463 1.41333 95.9223 1.136C96.509 0.848 97.165 0.704 97.8903 0.704ZM98.0183 6.528C98.5836 6.528 99.0796 6.42133 99.5063 6.208C99.9436 5.99467 100.285 5.70133 100.53 5.328C100.776 4.95467 100.898 4.53867 100.898 4.08C100.898 3.65333 100.781 3.25867 100.546 2.896C100.322 2.53333 99.9863 2.24 99.5383 2.016C99.0903 1.792 98.557 1.68 97.9383 1.68C97.1276 1.68 96.4663 1.904 95.9543 2.352C95.453 2.78933 95.2023 3.376 95.2023 4.112C95.2023 4.848 95.453 5.43467 95.9543 5.872C96.4663 6.30933 97.1543 6.528 98.0183 6.528ZM104.405 7.168H108.597V8.16H104.405V7.168ZM113.875 0.704C115.357 0.704 116.493 1.19467 117.283 2.176C118.072 3.14667 118.467 4.52267 118.467 6.304C118.467 7.552 118.253 8.608 117.827 9.472C117.4 10.336 116.803 10.992 116.035 11.44C115.267 11.8773 114.371 12.096 113.347 12.096C112.237 12.096 111.352 11.8933 110.691 11.488L111.155 10.56C111.688 10.912 112.413 11.088 113.331 11.088C114.568 11.088 115.539 10.6987 116.243 9.92C116.947 9.13067 117.299 7.98933 117.299 6.496C117.299 6.21867 117.283 5.91467 117.251 5.584C116.973 6.192 116.531 6.66667 115.923 7.008C115.315 7.33867 114.616 7.504 113.827 7.504C113.091 7.504 112.435 7.36533 111.859 7.088C111.293 6.81067 110.851 6.42133 110.531 5.92C110.211 5.408 110.051 4.816 110.051 4.144C110.051 3.46133 110.216 2.85867 110.547 2.336C110.877 1.81333 111.331 1.41333 111.907 1.136C112.493 0.848 113.149 0.704 113.875 0.704ZM114.003 6.528C114.568 6.528 115.064 6.42133 115.491 6.208C115.928 5.99467 116.269 5.70133 116.515 5.328C116.76 4.95467 116.883 4.53867 116.883 4.08C116.883 3.65333 116.765 3.25867 116.531 2.896C116.307 2.53333 115.971 2.24 115.523 2.016C115.075 1.792 114.541 1.68 113.923 1.68C113.112 1.68 112.451 1.904 111.939 2.352C111.437 2.78933 111.187 3.376 111.187 4.112C111.187 4.848 111.437 5.43467 111.939 5.872C112.451 6.30933 113.139 6.528 114.003 6.528ZM123.625 0.704C125.107 0.704 126.243 1.19467 127.033 2.176C127.822 3.14667 128.217 4.52267 128.217 6.304C128.217 7.552 128.003 8.608 127.577 9.472C127.15 10.336 126.553 10.992 125.785 11.44C125.017 11.8773 124.121 12.096 123.097 12.096C121.987 12.096 121.102 11.8933 120.441 11.488L120.905 10.56C121.438 10.912 122.163 11.088 123.081 11.088C124.318 11.088 125.289 10.6987 125.993 9.92C126.697 9.13067 127.049 7.98933 127.049 6.496C127.049 6.21867 127.033 5.91467 127.001 5.584C126.723 6.192 126.281 6.66667 125.673 7.008C125.065 7.33867 124.366 7.504 123.577 7.504C122.841 7.504 122.185 7.36533 121.609 7.088C121.043 6.81067 120.601 6.42133 120.281 5.92C119.961 5.408 119.801 4.816 119.801 4.144C119.801 3.46133 119.966 2.85867 120.297 2.336C120.627 1.81333 121.081 1.41333 121.657 1.136C122.243 0.848 122.899 0.704 123.625 0.704ZM123.753 6.528C124.318 6.528 124.814 6.42133 125.241 6.208C125.678 5.99467 126.019 5.70133 126.265 5.328C126.51 4.95467 126.633 4.53867 126.633 4.08C126.633 3.65333 126.515 3.25867 126.281 2.896C126.057 2.53333 125.721 2.24 125.273 2.016C124.825 1.792 124.291 1.68 123.673 1.68C122.862 1.68 122.201 1.904 121.689 2.352C121.187 2.78933 120.937 3.376 120.937 4.112C120.937 4.848 121.187 5.43467 121.689 5.872C122.201 6.30933 122.889 6.528 123.753 6.528ZM130.14 7.168H134.332V8.16H130.14V7.168ZM139.609 0.704C141.092 0.704 142.228 1.19467 143.017 2.176C143.806 3.14667 144.201 4.52267 144.201 6.304C144.201 7.552 143.988 8.608 143.561 9.472C143.134 10.336 142.537 10.992 141.769 11.44C141.001 11.8773 140.105 12.096 139.081 12.096C137.972 12.096 137.086 11.8933 136.425 11.488L136.889 10.56C137.422 10.912 138.148 11.088 139.065 11.088C140.302 11.088 141.273 10.6987 141.977 9.92C142.681 9.13067 143.033 7.98933 143.033 6.496C143.033 6.21867 143.017 5.91467 142.985 5.584C142.708 6.192 142.265 6.66667 141.657 7.008C141.049 7.33867 140.35 7.504 139.561 7.504C138.825 7.504 138.169 7.36533 137.593 7.088C137.028 6.81067 136.585 6.42133 136.265 5.92C135.945 5.408 135.785 4.816 135.785 4.144C135.785 3.46133 135.95 2.85867 136.281 2.336C136.612 1.81333 137.065 1.41333 137.641 1.136C138.228 0.848 138.884 0.704 139.609 0.704ZM139.737 6.528C140.302 6.528 140.798 6.42133 141.225 6.208C141.662 5.99467 142.004 5.70133 142.249 5.328C142.494 4.95467 142.617 4.53867 142.617 4.08C142.617 3.65333 142.5 3.25867 142.265 2.896C142.041 2.53333 141.705 2.24 141.257 2.016C140.809 1.792 140.276 1.68 139.657 1.68C138.846 1.68 138.185 1.904 137.673 2.352C137.172 2.78933 136.921 3.376 136.921 4.112C136.921 4.848 137.172 5.43467 137.673 5.872C138.185 6.30933 138.873 6.528 139.737 6.528ZM149.359 0.704C150.842 0.704 151.978 1.19467 152.767 2.176C153.556 3.14667 153.951 4.52267 153.951 6.304C153.951 7.552 153.738 8.608 153.311 9.472C152.884 10.336 152.287 10.992 151.519 11.44C150.751 11.8773 149.855 12.096 148.831 12.096C147.722 12.096 146.836 11.8933 146.175 11.488L146.639 10.56C147.172 10.912 147.898 11.088 148.815 11.088C150.052 11.088 151.023 10.6987 151.727 9.92C152.431 9.13067 152.783 7.98933 152.783 6.496C152.783 6.21867 152.767 5.91467 152.735 5.584C152.458 6.192 152.015 6.66667 151.407 7.008C150.799 7.33867 150.1 7.504 149.311 7.504C148.575 7.504 147.919 7.36533 147.343 7.088C146.778 6.81067 146.335 6.42133 146.015 5.92C145.695 5.408 145.535 4.816 145.535 4.144C145.535 3.46133 145.7 2.85867 146.031 2.336C146.362 1.81333 146.815 1.41333 147.391 1.136C147.978 0.848 148.634 0.704 149.359 0.704ZM149.487 6.528C150.052 6.528 150.548 6.42133 150.975 6.208C151.412 5.99467 151.754 5.70133 151.999 5.328C152.244 4.95467 152.367 4.53867 152.367 4.08C152.367 3.65333 152.25 3.25867 152.015 2.896C151.791 2.53333 151.455 2.24 151.007 2.016C150.559 1.792 150.026 1.68 149.407 1.68C148.596 1.68 147.935 1.904 147.423 2.352C146.922 2.78933 146.671 3.376 146.671 4.112C146.671 4.848 146.922 5.43467 147.423 5.872C147.935 6.30933 148.623 6.528 149.487 6.528Z" fill="white"/>
</svg>
