<svg width="202" height="16" viewBox="0 0 202 16" fill="none" xmlns="http://www.w3.org/2000/svg">
<path d="M9.59475 3.584V10.976C9.59475 12.4053 9.24275 13.4613 8.53875 14.144C7.84542 14.8373 6.79475 15.184 5.38675 15.184C4.60808 15.184 3.86675 15.0667 3.16275 14.832C2.46942 14.608 1.90408 14.2933 1.46675 13.888L2.04275 13.024C2.44808 13.3867 2.93875 13.6693 3.51475 13.872C4.10142 14.0747 4.71475 14.176 5.35475 14.176C6.42142 14.176 7.20542 13.9253 7.70675 13.424C8.20808 12.9333 8.45875 12.1653 8.45875 11.12V10.048C8.10675 10.5813 7.64275 10.9867 7.06675 11.264C6.50142 11.5413 5.87208 11.68 5.17875 11.68C4.38942 11.68 3.66942 11.5093 3.01875 11.168C2.37875 10.816 1.87208 10.3307 1.49875 9.712C1.13608 9.08267 0.95475 8.37333 0.95475 7.584C0.95475 6.79467 1.13608 6.09067 1.49875 5.472C1.87208 4.85333 2.37875 4.37333 3.01875 4.032C3.65875 3.69067 4.37875 3.52 5.17875 3.52C5.89342 3.52 6.53875 3.664 7.11475 3.952C7.69075 4.24 8.15475 4.656 8.50675 5.2V3.584H9.59475ZM5.29075 10.672C5.89875 10.672 6.44808 10.544 6.93875 10.288C7.42942 10.0213 7.80808 9.65333 8.07475 9.184C8.35208 8.71467 8.49075 8.18133 8.49075 7.584C8.49075 6.98667 8.35208 6.45867 8.07475 6C7.80808 5.53067 7.42942 5.168 6.93875 4.912C6.45875 4.64533 5.90942 4.512 5.29075 4.512C4.68275 4.512 4.13342 4.64 3.64275 4.896C3.16275 5.152 2.78408 5.51467 2.50675 5.984C2.24008 6.45333 2.10675 6.98667 2.10675 7.584C2.10675 8.18133 2.24008 8.71467 2.50675 9.184C2.78408 9.65333 3.16275 10.0213 3.64275 10.288C4.13342 10.544 4.68275 10.672 5.29075 10.672ZM23.2675 3.52C24.3235 3.52 25.1502 3.824 25.7475 4.432C26.3555 5.04 26.6595 5.936 26.6595 7.12V12H25.5235V7.232C25.5235 6.35733 25.3102 5.69067 24.8835 5.232C24.4675 4.77333 23.8755 4.544 23.1075 4.544C22.2328 4.544 21.5448 4.816 21.0435 5.36C20.5422 5.89333 20.2915 6.63467 20.2915 7.584V12H19.1555V7.232C19.1555 6.35733 18.9422 5.69067 18.5155 5.232C18.0995 4.77333 17.5022 4.544 16.7235 4.544C15.8595 4.544 15.1715 4.816 14.6595 5.36C14.1582 5.89333 13.9075 6.63467 13.9075 7.584V12H12.7715V3.584H13.8595V5.12C14.1582 4.608 14.5742 4.21333 15.1075 3.936C15.6408 3.65867 16.2542 3.52 16.9475 3.52C17.6515 3.52 18.2595 3.66933 18.7715 3.968C19.2942 4.26667 19.6835 4.70933 19.9395 5.296C20.2488 4.74133 20.6915 4.30933 21.2675 4C21.8542 3.68 22.5208 3.52 23.2675 3.52ZM32.6843 3.52C33.7829 3.52 34.6256 3.79733 35.2123 4.352C35.7989 4.896 36.0923 5.70667 36.0923 6.784V12H35.0043V10.688C34.7483 11.1253 34.3696 11.4667 33.8683 11.712C33.3776 11.9573 32.7909 12.08 32.1083 12.08C31.1696 12.08 30.4229 11.856 29.8683 11.408C29.3136 10.96 29.0363 10.368 29.0363 9.632C29.0363 8.91733 29.2923 8.34133 29.8043 7.904C30.3269 7.46667 31.1536 7.248 32.2843 7.248H34.9563V6.736C34.9563 6.01067 34.7536 5.46133 34.3483 5.088C33.9429 4.704 33.3509 4.512 32.5723 4.512C32.0389 4.512 31.5269 4.60267 31.0363 4.784C30.5456 4.95467 30.1243 5.19467 29.7723 5.504L29.2603 4.656C29.6869 4.29333 30.1989 4.016 30.7963 3.824C31.3936 3.62133 32.0229 3.52 32.6843 3.52ZM32.2843 11.184C32.9243 11.184 33.4736 11.04 33.9323 10.752C34.3909 10.4533 34.7323 10.0267 34.9563 9.472V8.096H32.3163C30.8763 8.096 30.1562 8.59733 30.1562 9.6C30.1562 10.0907 30.3429 10.48 30.7163 10.768C31.0896 11.0453 31.6123 11.184 32.2843 11.184ZM39.1778 3.584H40.3138V12H39.1778V3.584ZM39.7538 1.744C39.5191 1.744 39.3218 1.664 39.1618 1.504C39.0018 1.344 38.9218 1.152 38.9218 0.927999C38.9218 0.714666 39.0018 0.528 39.1618 0.367999C39.3218 0.207999 39.5191 0.127999 39.7538 0.127999C39.9884 0.127999 40.1858 0.207999 40.3458 0.367999C40.5058 0.517332 40.5858 0.698666 40.5858 0.912C40.5858 1.14667 40.5058 1.344 40.3458 1.504C40.1858 1.664 39.9884 1.744 39.7538 1.744ZM43.4746 0.127999H44.6106V12H43.4746V0.127999ZM55.0995 8.144H48.0595C48.1235 9.01867 48.4595 9.728 49.0675 10.272C49.6755 10.8053 50.4435 11.072 51.3715 11.072C51.8942 11.072 52.3742 10.9813 52.8115 10.8C53.2488 10.608 53.6275 10.3307 53.9475 9.968L54.5875 10.704C54.2142 11.152 53.7448 11.4933 53.1795 11.728C52.6248 11.9627 52.0115 12.08 51.3395 12.08C50.4755 12.08 49.7075 11.8987 49.0355 11.536C48.3742 11.1627 47.8568 10.6507 47.4835 10C47.1102 9.34933 46.9235 8.61333 46.9235 7.792C46.9235 6.97067 47.0995 6.23467 47.4515 5.584C47.8142 4.93333 48.3048 4.42667 48.9235 4.064C49.5528 3.70133 50.2568 3.52 51.0355 3.52C51.8142 3.52 52.5128 3.70133 53.1315 4.064C53.7502 4.42667 54.2355 4.93333 54.5875 5.584C54.9395 6.224 55.1155 6.96 55.1155 7.792L55.0995 8.144ZM51.0355 4.496C50.2248 4.496 49.5422 4.75733 48.9875 5.28C48.4435 5.792 48.1342 6.464 48.0595 7.296H54.0275C53.9528 6.464 53.6382 5.792 53.0835 5.28C52.5395 4.75733 51.8568 4.496 51.0355 4.496ZM62.5534 12L59.8814 8.48L57.1934 12H55.9134L59.2414 7.68L56.0734 3.584H57.3534L59.8814 6.88L62.4094 3.584H63.6574L60.4894 7.68L63.8494 12H62.5534ZM68.528 3.52C69.6267 3.52 70.4693 3.79733 71.056 4.352C71.6427 4.896 71.936 5.70667 71.936 6.784V12H70.848V10.688C70.592 11.1253 70.2133 11.4667 69.712 11.712C69.2213 11.9573 68.6347 12.08 67.952 12.08C67.0133 12.08 66.2667 11.856 65.712 11.408C65.1573 10.96 64.88 10.368 64.88 9.632C64.88 8.91733 65.136 8.34133 65.648 7.904C66.1707 7.46667 66.9973 7.248 68.128 7.248H70.8V6.736C70.8 6.01067 70.5973 5.46133 70.192 5.088C69.7867 4.704 69.1947 4.512 68.416 4.512C67.8827 4.512 67.3707 4.60267 66.88 4.784C66.3893 4.95467 65.968 5.19467 65.616 5.504L65.104 4.656C65.5307 4.29333 66.0427 4.016 66.64 3.824C67.2373 3.62133 67.8667 3.52 68.528 3.52ZM68.128 11.184C68.768 11.184 69.3173 11.04 69.776 10.752C70.2347 10.4533 70.576 10.0267 70.8 9.472V8.096H68.16C66.72 8.096 66 8.59733 66 9.6C66 10.0907 66.1867 10.48 66.56 10.768C66.9333 11.0453 67.456 11.184 68.128 11.184ZM85.5175 3.52C86.5735 3.52 87.4002 3.824 87.9975 4.432C88.6055 5.04 88.9095 5.936 88.9095 7.12V12H87.7735V7.232C87.7735 6.35733 87.5602 5.69067 87.1335 5.232C86.7175 4.77333 86.1255 4.544 85.3575 4.544C84.4828 4.544 83.7948 4.816 83.2935 5.36C82.7922 5.89333 82.5415 6.63467 82.5415 7.584V12H81.4055V7.232C81.4055 6.35733 81.1922 5.69067 80.7655 5.232C80.3495 4.77333 79.7522 4.544 78.9735 4.544C78.1095 4.544 77.4215 4.816 76.9095 5.36C76.4082 5.89333 76.1575 6.63467 76.1575 7.584V12H75.0215V3.584H76.1095V5.12C76.4082 4.608 76.8242 4.21333 77.3575 3.936C77.8908 3.65867 78.5042 3.52 79.1975 3.52C79.9015 3.52 80.5095 3.66933 81.0215 3.968C81.5442 4.26667 81.9335 4.70933 82.1895 5.296C82.4988 4.74133 82.9415 4.30933 83.5175 4C84.1042 3.68 84.7708 3.52 85.5175 3.52ZM96.3263 3.52C97.1156 3.52 97.8303 3.70133 98.4703 4.064C99.1103 4.416 99.6116 4.91733 99.9743 5.568C100.337 6.21867 100.518 6.96 100.518 7.792C100.518 8.63467 100.337 9.38133 99.9743 10.032C99.6116 10.6827 99.1103 11.1893 98.4703 11.552C97.8409 11.904 97.1263 12.08 96.3263 12.08C95.6436 12.08 95.0249 11.9413 94.4703 11.664C93.9263 11.376 93.4783 10.96 93.1263 10.416V15.104H91.9903V3.584H93.0783V5.248C93.4196 4.69333 93.8676 4.26667 94.4223 3.968C94.9876 3.66933 95.6223 3.52 96.3263 3.52ZM96.2463 11.072C96.8329 11.072 97.3663 10.9387 97.8463 10.672C98.3263 10.3947 98.6996 10.0053 98.9663 9.504C99.2436 9.00267 99.3823 8.432 99.3823 7.792C99.3823 7.152 99.2436 6.58667 98.9663 6.096C98.6996 5.59467 98.3263 5.20533 97.8463 4.928C97.3663 4.65067 96.8329 4.512 96.2463 4.512C95.6489 4.512 95.1103 4.65067 94.6302 4.928C94.1609 5.20533 93.7876 5.59467 93.5103 6.096C93.2436 6.58667 93.1103 7.152 93.1103 7.792C93.1103 8.432 93.2436 9.00267 93.5103 9.504C93.7876 10.0053 94.1609 10.3947 94.6302 10.672C95.1103 10.9387 95.6489 11.072 96.2463 11.072ZM109.554 0.704C110.983 0.704 112.258 1.00267 113.378 1.6C114.509 2.18667 115.389 3.01867 116.018 4.096C116.647 5.16267 116.962 6.384 116.962 7.76C116.962 9.11467 116.727 10.176 116.258 10.944C115.789 11.7013 115.138 12.08 114.306 12.08C113.783 12.08 113.357 11.9253 113.026 11.616C112.706 11.3067 112.53 10.88 112.498 10.336C112.178 10.8907 111.741 11.3227 111.186 11.632C110.631 11.9307 110.002 12.08 109.298 12.08C108.551 12.08 107.874 11.904 107.266 11.552C106.669 11.1893 106.194 10.6933 105.842 10.064C105.501 9.43467 105.33 8.72533 105.33 7.936C105.33 7.14667 105.501 6.44267 105.842 5.824C106.194 5.19467 106.669 4.704 107.266 4.352C107.874 4 108.551 3.824 109.298 3.824C109.981 3.824 110.594 3.97333 111.138 4.272C111.693 4.56 112.135 4.97067 112.466 5.504V3.888H113.506V9.952C113.506 10.3787 113.597 10.688 113.778 10.88C113.959 11.072 114.199 11.168 114.498 11.168C114.999 11.168 115.394 10.8693 115.682 10.272C115.981 9.67467 116.13 8.84267 116.13 7.776C116.13 6.53867 115.853 5.45067 115.298 4.512C114.743 3.56267 113.965 2.82667 112.962 2.304C111.97 1.78133 110.834 1.52 109.554 1.52C108.263 1.52 107.117 1.792 106.114 2.336C105.122 2.86933 104.349 3.62667 103.794 4.608C103.239 5.57867 102.962 6.688 102.962 7.936C102.962 9.184 103.234 10.2987 103.778 11.28C104.333 12.2613 105.101 13.024 106.082 13.568C107.074 14.112 108.21 14.384 109.49 14.384C109.991 14.384 110.514 14.3253 111.058 14.208C111.613 14.0907 112.114 13.9147 112.562 13.68L112.834 14.464C112.375 14.6987 111.842 14.88 111.234 15.008C110.637 15.136 110.055 15.2 109.49 15.2C108.039 15.2 106.754 14.8907 105.634 14.272C104.514 13.6533 103.639 12.7947 103.01 11.696C102.391 10.5867 102.082 9.33333 102.082 7.936C102.082 6.528 102.397 5.28 103.026 4.192C103.655 3.09333 104.535 2.24 105.666 1.632C106.807 1.01333 108.103 0.704 109.554 0.704ZM109.442 11.152C110.018 11.152 110.535 11.0187 110.994 10.752C111.453 10.4853 111.815 10.112 112.082 9.632C112.349 9.14133 112.482 8.576 112.482 7.936C112.482 7.30667 112.349 6.752 112.082 6.272C111.815 5.78133 111.453 5.408 110.994 5.152C110.535 4.88533 110.018 4.752 109.442 4.752C108.855 4.752 108.327 4.88533 107.858 5.152C107.399 5.41867 107.037 5.792 106.77 6.272C106.514 6.752 106.386 7.30667 106.386 7.936C106.386 8.56533 106.514 9.12533 106.77 9.616C107.037 10.096 107.399 10.4747 107.858 10.752C108.327 11.0187 108.855 11.152 109.442 11.152ZM127.157 3.584V10.976C127.157 12.4053 126.805 13.4613 126.101 14.144C125.408 14.8373 124.357 15.184 122.949 15.184C122.171 15.184 121.429 15.0667 120.725 14.832C120.032 14.608 119.467 14.2933 119.029 13.888L119.605 13.024C120.011 13.3867 120.501 13.6693 121.077 13.872C121.664 14.0747 122.277 14.176 122.917 14.176C123.984 14.176 124.768 13.9253 125.269 13.424C125.771 12.9333 126.021 12.1653 126.021 11.12V10.048C125.669 10.5813 125.205 10.9867 124.629 11.264C124.064 11.5413 123.435 11.68 122.741 11.68C121.952 11.68 121.232 11.5093 120.581 11.168C119.941 10.816 119.435 10.3307 119.061 9.712C118.699 9.08267 118.517 8.37333 118.517 7.584C118.517 6.79467 118.699 6.09067 119.061 5.472C119.435 4.85333 119.941 4.37333 120.581 4.032C121.221 3.69067 121.941 3.52 122.741 3.52C123.456 3.52 124.101 3.664 124.677 3.952C125.253 4.24 125.717 4.656 126.069 5.2V3.584H127.157ZM122.853 10.672C123.461 10.672 124.011 10.544 124.501 10.288C124.992 10.0213 125.371 9.65333 125.637 9.184C125.915 8.71467 126.053 8.18133 126.053 7.584C126.053 6.98667 125.915 6.45867 125.637 6C125.371 5.53067 124.992 5.168 124.501 4.912C124.021 4.64533 123.472 4.512 122.853 4.512C122.245 4.512 121.696 4.64 121.205 4.896C120.725 5.152 120.347 5.51467 120.069 5.984C119.803 6.45333 119.669 6.98667 119.669 7.584C119.669 8.18133 119.803 8.71467 120.069 9.184C120.347 9.65333 120.725 10.0213 121.205 10.288C121.696 10.544 122.245 10.672 122.853 10.672ZM140.83 3.52C141.886 3.52 142.713 3.824 143.31 4.432C143.918 5.04 144.222 5.936 144.222 7.12V12H143.086V7.232C143.086 6.35733 142.873 5.69067 142.446 5.232C142.03 4.77333 141.438 4.544 140.67 4.544C139.795 4.544 139.107 4.816 138.606 5.36C138.105 5.89333 137.854 6.63467 137.854 7.584V12H136.718V7.232C136.718 6.35733 136.505 5.69067 136.078 5.232C135.662 4.77333 135.065 4.544 134.286 4.544C133.422 4.544 132.734 4.816 132.222 5.36C131.721 5.89333 131.47 6.63467 131.47 7.584V12H130.334V3.584H131.422V5.12C131.721 4.608 132.137 4.21333 132.67 3.936C133.203 3.65867 133.817 3.52 134.51 3.52C135.214 3.52 135.822 3.66933 136.334 3.968C136.857 4.26667 137.246 4.70933 137.502 5.296C137.811 4.74133 138.254 4.30933 138.83 4C139.417 3.68 140.083 3.52 140.83 3.52ZM150.247 3.52C151.345 3.52 152.188 3.79733 152.775 4.352C153.361 4.896 153.655 5.70667 153.655 6.784V12H152.567V10.688C152.311 11.1253 151.932 11.4667 151.431 11.712C150.94 11.9573 150.353 12.08 149.671 12.08C148.732 12.08 147.985 11.856 147.431 11.408C146.876 10.96 146.599 10.368 146.599 9.632C146.599 8.91733 146.855 8.34133 147.367 7.904C147.889 7.46667 148.716 7.248 149.847 7.248H152.519V6.736C152.519 6.01067 152.316 5.46133 151.911 5.088C151.505 4.704 150.913 4.512 150.135 4.512C149.601 4.512 149.089 4.60267 148.599 4.784C148.108 4.95467 147.687 5.19467 147.335 5.504L146.823 4.656C147.249 4.29333 147.761 4.016 148.359 3.824C148.956 3.62133 149.585 3.52 150.247 3.52ZM149.847 11.184C150.487 11.184 151.036 11.04 151.495 10.752C151.953 10.4533 152.295 10.0267 152.519 9.472V8.096H149.879C148.439 8.096 147.719 8.59733 147.719 9.6C147.719 10.0907 147.905 10.48 148.279 10.768C148.652 11.0453 149.175 11.184 149.847 11.184ZM156.74 3.584H157.876V12H156.74V3.584ZM157.316 1.744C157.082 1.744 156.884 1.664 156.724 1.504C156.564 1.344 156.484 1.152 156.484 0.927999C156.484 0.714666 156.564 0.528 156.724 0.367999C156.884 0.207999 157.082 0.127999 157.316 0.127999C157.551 0.127999 157.748 0.207999 157.908 0.367999C158.068 0.517332 158.148 0.698666 158.148 0.912C158.148 1.14667 158.068 1.344 157.908 1.504C157.748 1.664 157.551 1.744 157.316 1.744ZM161.037 0.127999H162.173V12H161.037V0.127999ZM165.446 12.08C165.211 12.08 165.009 11.9947 164.838 11.824C164.678 11.6533 164.598 11.4453 164.598 11.2C164.598 10.9547 164.678 10.752 164.838 10.592C165.009 10.4213 165.211 10.336 165.446 10.336C165.681 10.336 165.883 10.4213 166.054 10.592C166.225 10.752 166.31 10.9547 166.31 11.2C166.31 11.4453 166.225 11.6533 166.054 11.824C165.883 11.9947 165.681 12.08 165.446 12.08ZM171.978 12.08C171.146 12.08 170.4 11.8987 169.738 11.536C169.088 11.1733 168.576 10.6667 168.202 10.016C167.829 9.35467 167.642 8.61333 167.642 7.792C167.642 6.97067 167.829 6.23467 168.202 5.584C168.576 4.93333 169.088 4.42667 169.738 4.064C170.4 3.70133 171.146 3.52 171.978 3.52C172.704 3.52 173.349 3.664 173.914 3.952C174.49 4.22933 174.944 4.64 175.274 5.184L174.426 5.76C174.149 5.344 173.797 5.03467 173.37 4.832C172.944 4.61867 172.48 4.512 171.978 4.512C171.37 4.512 170.821 4.65067 170.33 4.928C169.85 5.19467 169.472 5.57867 169.194 6.08C168.928 6.58133 168.794 7.152 168.794 7.792C168.794 8.44267 168.928 9.01867 169.194 9.52C169.472 10.0107 169.85 10.3947 170.33 10.672C170.821 10.9387 171.37 11.072 171.978 11.072C172.48 11.072 172.944 10.9707 173.37 10.768C173.797 10.5653 174.149 10.256 174.426 9.84L175.274 10.416C174.944 10.96 174.49 11.376 173.914 11.664C173.338 11.9413 172.693 12.08 171.978 12.08ZM180.805 12.08C179.995 12.08 179.264 11.8987 178.613 11.536C177.963 11.1627 177.451 10.6507 177.077 10C176.704 9.34933 176.517 8.61333 176.517 7.792C176.517 6.97067 176.704 6.23467 177.077 5.584C177.451 4.93333 177.963 4.42667 178.613 4.064C179.264 3.70133 179.995 3.52 180.805 3.52C181.616 3.52 182.347 3.70133 182.997 4.064C183.648 4.42667 184.155 4.93333 184.517 5.584C184.891 6.23467 185.077 6.97067 185.077 7.792C185.077 8.61333 184.891 9.34933 184.517 10C184.155 10.6507 183.648 11.1627 182.997 11.536C182.347 11.8987 181.616 12.08 180.805 12.08ZM180.805 11.072C181.403 11.072 181.936 10.9387 182.405 10.672C182.885 10.3947 183.259 10.0053 183.525 9.504C183.792 9.00267 183.925 8.432 183.925 7.792C183.925 7.152 183.792 6.58133 183.525 6.08C183.259 5.57867 182.885 5.19467 182.405 4.928C181.936 4.65067 181.403 4.512 180.805 4.512C180.208 4.512 179.669 4.65067 179.189 4.928C178.72 5.19467 178.347 5.57867 178.069 6.08C177.803 6.58133 177.669 7.152 177.669 7.792C177.669 8.432 177.803 9.00267 178.069 9.504C178.347 10.0053 178.72 10.3947 179.189 10.672C179.669 10.9387 180.208 11.072 180.805 11.072ZM197.893 3.52C198.949 3.52 199.775 3.824 200.373 4.432C200.981 5.04 201.285 5.936 201.285 7.12V12H200.149V7.232C200.149 6.35733 199.935 5.69067 199.509 5.232C199.093 4.77333 198.501 4.544 197.733 4.544C196.858 4.544 196.17 4.816 195.669 5.36C195.167 5.89333 194.917 6.63467 194.917 7.584V12H193.781V7.232C193.781 6.35733 193.567 5.69067 193.141 5.232C192.725 4.77333 192.127 4.544 191.349 4.544C190.485 4.544 189.797 4.816 189.285 5.36C188.783 5.89333 188.533 6.63467 188.533 7.584V12H187.397V3.584H188.485V5.12C188.783 4.608 189.199 4.21333 189.733 3.936C190.266 3.65867 190.879 3.52 191.573 3.52C192.277 3.52 192.885 3.66933 193.397 3.968C193.919 4.26667 194.309 4.70933 194.565 5.296C194.874 4.74133 195.317 4.30933 195.893 4C196.479 3.68 197.146 3.52 197.893 3.52Z" fill="white"/>
</svg>
