<svg width="675" height="127" viewBox="0 0 675 127" fill="none" xmlns="http://www.w3.org/2000/svg">
<path d="M209.194 49.696H201.13V70H189.538V19.6H201.13V39.976H209.482L222.73 19.6H235.042L218.554 43.936L235.546 70H222.298L209.194 49.696ZM255.546 30.688C261.546 30.688 266.154 32.128 269.37 35.008C272.586 37.84 274.194 42.136 274.194 47.896V70H263.682V65.176C261.57 68.776 257.634 70.576 251.874 70.576C248.898 70.576 246.306 70.072 244.098 69.064C241.938 68.056 240.282 66.664 239.13 64.888C237.978 63.112 237.402 61.096 237.402 58.84C237.402 55.24 238.746 52.408 241.434 50.344C244.17 48.28 248.37 47.248 254.034 47.248H262.962C262.962 44.8 262.218 42.928 260.73 41.632C259.242 40.288 257.01 39.616 254.034 39.616C251.97 39.616 249.93 39.952 247.914 40.624C245.946 41.248 244.266 42.112 242.874 43.216L238.842 35.368C240.954 33.88 243.474 32.728 246.402 31.912C249.378 31.096 252.426 30.688 255.546 30.688ZM254.682 63.016C256.602 63.016 258.306 62.584 259.794 61.72C261.282 60.808 262.338 59.488 262.962 57.76V53.8H255.258C250.65 53.8 248.346 55.312 248.346 58.336C248.346 59.776 248.898 60.928 250.002 61.792C251.154 62.608 252.714 63.016 254.682 63.016ZM316.495 40.48H303.391V70H292.231V40.48H279.127V31.264H316.495V40.48ZM337.53 30.688C343.53 30.688 348.138 32.128 351.354 35.008C354.57 37.84 356.178 42.136 356.178 47.896V70H345.666V65.176C343.554 68.776 339.618 70.576 333.858 70.576C330.882 70.576 328.29 70.072 326.082 69.064C323.922 68.056 322.266 66.664 321.114 64.888C319.962 63.112 319.386 61.096 319.386 58.84C319.386 55.24 320.73 52.408 323.418 50.344C326.154 48.28 330.354 47.248 336.018 47.248H344.946C344.946 44.8 344.202 42.928 342.714 41.632C341.226 40.288 338.994 39.616 336.018 39.616C333.954 39.616 331.914 39.952 329.898 40.624C327.93 41.248 326.25 42.112 324.858 43.216L320.826 35.368C322.938 33.88 325.458 32.728 328.386 31.912C331.362 31.096 334.41 30.688 337.53 30.688ZM336.666 63.016C338.586 63.016 340.29 62.584 341.778 61.72C343.266 60.808 344.322 59.488 344.946 57.76V53.8H337.242C332.634 53.8 330.33 55.312 330.33 58.336C330.33 59.776 330.882 60.928 331.986 61.792C333.138 62.608 334.698 63.016 336.666 63.016Z" fill="#F0F0F0"/>
<path d="M403.087 31.264V70H391.855V40.48H379.615L379.255 47.32C379.063 52.408 378.583 56.632 377.815 59.992C377.047 63.352 375.799 65.992 374.071 67.912C372.343 69.832 369.943 70.792 366.871 70.792C365.239 70.792 363.295 70.504 361.039 69.928L361.615 60.712C362.383 60.808 362.935 60.856 363.271 60.856C364.951 60.856 366.199 60.256 367.015 59.056C367.879 57.808 368.455 56.248 368.743 54.376C369.031 52.456 369.247 49.936 369.391 46.816L369.967 31.264H403.087ZM432.032 70.576C427.952 70.576 424.28 69.736 421.016 68.056C417.8 66.328 415.28 63.952 413.456 60.928C411.632 57.904 410.72 54.472 410.72 50.632C410.72 46.792 411.632 43.36 413.456 40.336C415.28 37.312 417.8 34.96 421.016 33.28C424.28 31.552 427.952 30.688 432.032 30.688C436.112 30.688 439.76 31.552 442.976 33.28C446.192 34.96 448.712 37.312 450.536 40.336C452.36 43.36 453.272 46.792 453.272 50.632C453.272 54.472 452.36 57.904 450.536 60.928C448.712 63.952 446.192 66.328 442.976 68.056C439.76 69.736 436.112 70.576 432.032 70.576ZM432.032 61.36C434.912 61.36 437.264 60.4 439.088 58.48C440.96 56.512 441.896 53.896 441.896 50.632C441.896 47.368 440.96 44.776 439.088 42.856C437.264 40.888 434.912 39.904 432.032 39.904C429.152 39.904 426.776 40.888 424.904 42.856C423.032 44.776 422.096 47.368 422.096 50.632C422.096 53.896 423.032 56.512 424.904 58.48C426.776 60.4 429.152 61.36 432.032 61.36ZM492.03 40.48H472.158V70H460.998V31.264H492.03V40.48Z" fill="#F0F0F0"/>
<path d="M403.087 31.264V70H391.855V40.48H379.615L379.255 47.32C379.063 52.408 378.583 56.632 377.815 59.992C377.047 63.352 375.799 65.992 374.071 67.912C372.343 69.832 369.943 70.792 366.871 70.792C365.239 70.792 363.295 70.504 361.039 69.928L361.615 60.712C362.383 60.808 362.935 60.856 363.271 60.856C364.951 60.856 366.199 60.256 367.015 59.056C367.879 57.808 368.455 56.248 368.743 54.376C369.031 52.456 369.247 49.936 369.391 46.816L369.967 31.264H403.087ZM432.032 70.576C427.952 70.576 424.28 69.736 421.016 68.056C417.8 66.328 415.28 63.952 413.456 60.928C411.632 57.904 410.72 54.472 410.72 50.632C410.72 46.792 411.632 43.36 413.456 40.336C415.28 37.312 417.8 34.96 421.016 33.28C424.28 31.552 427.952 30.688 432.032 30.688C436.112 30.688 439.76 31.552 442.976 33.28C446.192 34.96 448.712 37.312 450.536 40.336C452.36 43.36 453.272 46.792 453.272 50.632C453.272 54.472 452.36 57.904 450.536 60.928C448.712 63.952 446.192 66.328 442.976 68.056C439.76 69.736 436.112 70.576 432.032 70.576ZM432.032 61.36C434.912 61.36 437.264 60.4 439.088 58.48C440.96 56.512 441.896 53.896 441.896 50.632C441.896 47.368 440.96 44.776 439.088 42.856C437.264 40.888 434.912 39.904 432.032 39.904C429.152 39.904 426.776 40.888 424.904 42.856C423.032 44.776 422.096 47.368 422.096 50.632C422.096 53.896 423.032 56.512 424.904 58.48C426.776 60.4 429.152 61.36 432.032 61.36ZM492.03 40.48H472.158V70H460.998V31.264H492.03V40.48Z" fill="#FFC700"/>
<path d="M129.312 107.48C130.976 107.757 132.224 108.365 133.056 109.304C133.909 110.243 134.336 111.491 134.336 113.048C134.336 114.968 133.664 116.44 132.32 117.464C130.976 118.488 128.981 119 126.336 119H116.704V96.6H125.728C128.075 96.6 129.899 97.0907 131.2 98.072C132.523 99.0533 133.184 100.461 133.184 102.296C133.184 103.597 132.843 104.685 132.16 105.56C131.477 106.435 130.528 107.075 129.312 107.48ZM118.336 106.968H125.696C127.573 106.968 129.013 106.584 130.016 105.816C131.019 105.048 131.52 103.939 131.52 102.488C131.52 101.016 131.019 99.896 130.016 99.128C129.013 98.36 127.573 97.976 125.696 97.976H118.336V106.968ZM126.368 117.624C130.592 117.624 132.704 116.067 132.704 112.952C132.704 111.352 132.171 110.179 131.104 109.432C130.037 108.685 128.459 108.312 126.368 108.312H118.336V117.624H126.368ZM146.528 119.32C144.331 119.32 142.635 118.765 141.44 117.656C140.245 116.525 139.648 114.957 139.648 112.952V102.296H141.248V109.688C141.739 108.963 142.464 108.376 143.424 107.928C144.384 107.459 145.493 107.224 146.752 107.224C148.8 107.224 150.389 107.757 151.52 108.824C152.651 109.869 153.216 111.267 153.216 113.016C153.216 114.232 152.939 115.32 152.384 116.28C151.851 117.219 151.083 117.965 150.08 118.52C149.077 119.053 147.893 119.32 146.528 119.32ZM156.16 102.296H157.76V119H156.16V102.296ZM146.592 118.04C148.149 118.04 149.365 117.571 150.24 116.632C151.136 115.672 151.584 114.477 151.584 113.048C151.584 111.704 151.136 110.605 150.24 109.752C149.344 108.899 148.064 108.472 146.4 108.472C145.205 108.472 144.16 108.739 143.264 109.272C142.368 109.784 141.696 110.499 141.248 111.416V113.016C141.248 114.595 141.707 115.832 142.624 116.728C143.541 117.603 144.864 118.04 146.592 118.04ZM172.403 102.552C173.96 102.552 175.336 102.904 176.531 103.608C177.747 104.291 178.696 105.251 179.379 106.488C180.062 107.725 180.403 109.155 180.403 110.776C180.403 112.397 180.051 113.848 179.347 115.128C178.664 116.387 177.694 117.379 176.435 118.104C175.198 118.808 173.779 119.16 172.179 119.16C170.344 119.16 168.776 118.712 167.475 117.816C166.195 116.92 165.214 115.651 164.531 114.008C163.87 112.365 163.539 110.445 163.539 108.248C163.539 105.752 163.838 103.683 164.435 102.04C165.054 100.397 165.971 99.1067 167.187 98.168C168.424 97.208 170.003 96.4933 171.923 96.024L179.315 94.232L179.571 95.736L172.531 97.4C170.803 97.8053 169.395 98.4027 168.307 99.192C167.24 99.96 166.44 101.016 165.907 102.36C165.374 103.704 165.096 105.421 165.075 107.512C165.63 105.976 166.558 104.771 167.859 103.896C169.16 103 170.675 102.552 172.403 102.552ZM172.211 117.784C173.47 117.784 174.6 117.485 175.603 116.888C176.606 116.291 177.384 115.469 177.939 114.424C178.494 113.357 178.771 112.152 178.771 110.808C178.771 109.464 178.494 108.28 177.939 107.256C177.384 106.211 176.606 105.411 175.603 104.856C174.622 104.28 173.491 103.992 172.211 103.992C170.931 103.992 169.79 104.28 168.787 104.856C167.784 105.411 167.006 106.211 166.451 107.256C165.896 108.28 165.619 109.464 165.619 110.808C165.619 112.152 165.896 113.357 166.451 114.424C167.006 115.469 167.784 116.291 168.787 116.888C169.79 117.485 170.931 117.784 172.211 117.784ZM199.931 102.296V119H198.363V115.48C197.787 116.632 196.955 117.528 195.867 118.168C194.8 118.808 193.542 119.128 192.091 119.128C189.915 119.128 188.198 118.531 186.939 117.336C185.702 116.12 185.083 114.36 185.083 112.056V102.296H186.683V111.928C186.683 113.805 187.163 115.235 188.123 116.216C189.083 117.197 190.438 117.688 192.187 117.688C194.064 117.688 195.558 117.101 196.667 115.928C197.776 114.755 198.331 113.176 198.331 111.192V102.296H199.931ZM214.271 102.168C215.871 102.168 217.301 102.531 218.559 103.256C219.818 103.981 220.799 104.995 221.503 106.296C222.207 107.576 222.559 109.037 222.559 110.68C222.559 112.301 222.207 113.752 221.503 115.032C220.821 116.312 219.861 117.315 218.623 118.04C217.386 118.765 215.978 119.128 214.399 119.128C212.863 119.128 211.509 118.787 210.335 118.104C209.183 117.421 208.277 116.451 207.615 115.192V125.208H206.015V110.68C206.015 109.037 206.367 107.576 207.071 106.296C207.775 104.995 208.746 103.981 209.983 103.256C211.242 102.531 212.671 102.168 214.271 102.168ZM214.239 117.72C215.519 117.72 216.671 117.421 217.695 116.824C218.719 116.205 219.519 115.363 220.095 114.296C220.671 113.229 220.959 112.024 220.959 110.68C220.959 109.315 220.671 108.099 220.095 107.032C219.519 105.965 218.719 105.133 217.695 104.536C216.693 103.917 215.541 103.608 214.239 103.608C212.959 103.608 211.807 103.907 210.783 104.504C209.781 105.101 208.991 105.933 208.415 107C207.861 108.067 207.583 109.283 207.583 110.648C207.583 112.013 207.861 113.229 208.415 114.296C208.991 115.363 209.781 116.205 210.783 116.824C211.807 117.421 212.959 117.72 214.239 117.72ZM242.599 102.296V119H241.031V115.064C240.37 116.365 239.442 117.368 238.247 118.072C237.053 118.776 235.698 119.128 234.183 119.128C232.626 119.128 231.218 118.765 229.959 118.04C228.701 117.315 227.709 116.312 226.983 115.032C226.279 113.752 225.927 112.291 225.927 110.648C225.927 109.005 226.279 107.544 226.983 106.264C227.709 104.963 228.701 103.96 229.959 103.256C231.218 102.531 232.626 102.168 234.183 102.168C235.677 102.168 237.01 102.52 238.183 103.224C239.378 103.928 240.317 104.909 240.999 106.168V102.296H242.599ZM234.279 117.688C235.559 117.688 236.701 117.389 237.703 116.792C238.727 116.195 239.527 115.363 240.103 114.296C240.701 113.229 240.999 112.013 240.999 110.648C240.999 109.283 240.701 108.067 240.103 107C239.527 105.933 238.727 105.101 237.703 104.504C236.701 103.907 235.559 103.608 234.279 103.608C232.999 103.608 231.847 103.907 230.823 104.504C229.821 105.101 229.021 105.933 228.423 107C227.847 108.067 227.559 109.283 227.559 110.648C227.559 112.013 227.847 113.229 228.423 114.296C229.021 115.363 229.821 116.195 230.823 116.792C231.847 117.389 232.999 117.688 234.279 117.688ZM263.681 102.296V119H262.113V115.48C261.537 116.632 260.705 117.528 259.617 118.168C258.55 118.808 257.292 119.128 255.841 119.128C253.665 119.128 251.948 118.531 250.689 117.336C249.452 116.12 248.833 114.36 248.833 112.056V102.296H250.433V111.928C250.433 113.805 250.913 115.235 251.873 116.216C252.833 117.197 254.188 117.688 255.937 117.688C257.814 117.688 259.308 117.101 260.417 115.928C261.526 114.755 262.081 113.176 262.081 111.192V102.296H263.681ZM256.321 99.736C254.977 99.736 253.889 99.3947 253.057 98.712C252.225 98.008 251.798 97.0373 251.777 95.8H252.961C252.982 96.6747 253.302 97.368 253.921 97.88C254.561 98.392 255.361 98.648 256.321 98.648C257.281 98.648 258.07 98.392 258.689 97.88C259.308 97.368 259.628 96.6747 259.649 95.8H260.865C260.844 97.0373 260.417 98.008 259.585 98.712C258.753 99.3947 257.665 99.736 256.321 99.736ZM288.672 110.392C291.125 110.819 292.352 112.195 292.352 114.52C292.352 115.971 291.819 117.08 290.752 117.848C289.707 118.616 288.128 119 286.016 119H278.784V102.296H285.824C287.68 102.296 289.131 102.669 290.176 103.416C291.243 104.141 291.776 105.187 291.776 106.552C291.776 107.533 291.499 108.355 290.944 109.016C290.411 109.656 289.653 110.115 288.672 110.392ZM280.352 109.912H285.728C287.157 109.912 288.256 109.645 289.024 109.112C289.792 108.557 290.176 107.768 290.176 106.744C290.176 105.699 289.792 104.92 289.024 104.408C288.277 103.875 287.179 103.608 285.728 103.608H280.352V109.912ZM285.984 117.688C289.163 117.688 290.752 116.611 290.752 114.456C290.752 113.325 290.389 112.493 289.664 111.96C288.939 111.427 287.797 111.16 286.24 111.16H280.352V117.688H285.984ZM304.786 119.128C303.165 119.128 301.714 118.765 300.434 118.04C299.154 117.315 298.151 116.312 297.426 115.032C296.701 113.731 296.338 112.269 296.338 110.648C296.338 109.005 296.701 107.544 297.426 106.264C298.151 104.963 299.154 103.96 300.434 103.256C301.714 102.531 303.165 102.168 304.786 102.168C306.13 102.168 307.346 102.435 308.434 102.968C309.543 103.48 310.439 104.237 311.122 105.24L309.938 106.104C309.341 105.272 308.594 104.653 307.698 104.248C306.823 103.821 305.853 103.608 304.786 103.608C303.485 103.608 302.311 103.907 301.266 104.504C300.242 105.08 299.431 105.901 298.834 106.968C298.258 108.035 297.97 109.261 297.97 110.648C297.97 112.035 298.258 113.261 298.834 114.328C299.431 115.395 300.242 116.227 301.266 116.824C302.311 117.4 303.485 117.688 304.786 117.688C305.853 117.688 306.823 117.485 307.698 117.08C308.594 116.653 309.341 116.024 309.938 115.192L311.122 116.056C310.439 117.059 309.543 117.827 308.434 118.36C307.346 118.872 306.13 119.128 304.786 119.128ZM322.349 117.688C323.437 117.688 324.44 117.496 325.357 117.112C326.296 116.707 327.075 116.12 327.693 115.352L328.621 116.408C327.896 117.304 326.989 117.987 325.901 118.456C324.813 118.904 323.619 119.128 322.317 119.128C320.653 119.128 319.16 118.765 317.837 118.04C316.536 117.315 315.512 116.312 314.765 115.032C314.04 113.752 313.677 112.291 313.677 110.648C313.677 109.005 314.019 107.544 314.701 106.264C315.405 104.984 316.376 103.981 317.613 103.256C318.851 102.531 320.248 102.168 321.805 102.168C323.256 102.168 324.557 102.509 325.709 103.192C326.883 103.853 327.811 104.781 328.493 105.976C329.197 107.149 329.581 108.472 329.645 109.944L315.533 112.696C315.939 114.232 316.749 115.448 317.965 116.344C319.181 117.24 320.643 117.688 322.349 117.688ZM321.805 103.576C320.547 103.576 319.416 103.875 318.413 104.472C317.411 105.048 316.632 105.869 316.077 106.936C315.523 107.981 315.245 109.176 315.245 110.52C315.245 110.755 315.267 111.085 315.309 111.512L328.045 109.016C327.896 108.013 327.544 107.096 326.989 106.264C326.435 105.432 325.709 104.781 324.813 104.312C323.917 103.821 322.915 103.576 321.805 103.576ZM318.829 98.712C318.509 98.712 318.232 98.6053 317.997 98.392C317.784 98.1573 317.677 97.88 317.677 97.56C317.677 97.2187 317.784 96.9413 317.997 96.728C318.232 96.5147 318.509 96.408 318.829 96.408C319.149 96.408 319.416 96.5253 319.629 96.76C319.864 96.9733 319.981 97.24 319.981 97.56C319.981 97.88 319.864 98.1573 319.629 98.392C319.395 98.6053 319.128 98.712 318.829 98.712ZM324.333 98.712C324.035 98.712 323.768 98.6053 323.533 98.392C323.299 98.1573 323.181 97.88 323.181 97.56C323.181 97.24 323.288 96.9733 323.501 96.76C323.736 96.5253 324.013 96.408 324.333 96.408C324.653 96.408 324.92 96.5147 325.133 96.728C325.368 96.9413 325.485 97.2187 325.485 97.56C325.485 97.88 325.368 98.1573 325.133 98.392C324.92 98.6053 324.653 98.712 324.333 98.712ZM354.878 102.296V119H353.278V111.8C351.294 112.717 349.31 113.176 347.326 113.176C345.363 113.176 343.817 112.728 342.686 111.832C341.577 110.936 341.022 109.613 341.022 107.864V102.296H342.622V107.768C342.622 109.069 343.059 110.072 343.934 110.776C344.809 111.48 346.014 111.832 347.55 111.832C349.299 111.832 351.209 111.395 353.278 110.52V102.296H354.878ZM382.584 102.168C384.653 102.168 386.275 102.776 387.448 103.992C388.643 105.208 389.24 106.957 389.24 109.24V119H387.64V109.368C387.64 107.491 387.181 106.061 386.264 105.08C385.347 104.099 384.067 103.608 382.424 103.608C380.547 103.608 379.053 104.195 377.944 105.368C376.856 106.541 376.312 108.12 376.312 110.104V119H374.712V109.368C374.712 107.491 374.253 106.061 373.336 105.08C372.419 104.099 371.139 103.608 369.496 103.608C367.619 103.608 366.125 104.195 365.016 105.368C363.928 106.541 363.384 108.12 363.384 110.104V119H361.784V102.296H363.32V105.88C363.875 104.707 364.696 103.8 365.784 103.16C366.893 102.499 368.205 102.168 369.72 102.168C371.235 102.168 372.515 102.509 373.56 103.192C374.627 103.875 375.384 104.877 375.832 106.2C376.387 104.963 377.251 103.981 378.424 103.256C379.619 102.531 381.005 102.168 382.584 102.168ZM402.253 119.128C400.674 119.128 399.245 118.765 397.965 118.04C396.706 117.315 395.714 116.312 394.989 115.032C394.263 113.731 393.901 112.269 393.901 110.648C393.901 109.027 394.263 107.576 394.989 106.296C395.714 104.995 396.706 103.981 397.965 103.256C399.245 102.531 400.674 102.168 402.253 102.168C403.831 102.168 405.25 102.531 406.509 103.256C407.789 103.981 408.791 104.995 409.517 106.296C410.242 107.576 410.605 109.027 410.605 110.648C410.605 112.269 410.242 113.731 409.517 115.032C408.791 116.312 407.789 117.315 406.509 118.04C405.25 118.765 403.831 119.128 402.253 119.128ZM402.253 117.688C403.533 117.688 404.674 117.389 405.677 116.792C406.701 116.195 407.501 115.363 408.077 114.296C408.674 113.229 408.973 112.013 408.973 110.648C408.973 109.283 408.674 108.067 408.077 107C407.501 105.933 406.701 105.101 405.677 104.504C404.674 103.907 403.533 103.608 402.253 103.608C400.973 103.608 399.821 103.907 398.797 104.504C397.794 105.101 396.994 105.933 396.397 107C395.821 108.067 395.533 109.283 395.533 110.648C395.533 112.013 395.821 113.229 396.397 114.296C396.994 115.363 397.794 116.195 398.797 116.792C399.821 117.389 400.973 117.688 402.253 117.688ZM438.626 102.296V119H437.026V103.736H425.634V119H424.034V102.296H438.626ZM452.19 119.128C450.611 119.128 449.182 118.765 447.902 118.04C446.643 117.315 445.651 116.312 444.926 115.032C444.201 113.731 443.838 112.269 443.838 110.648C443.838 109.027 444.201 107.576 444.926 106.296C445.651 104.995 446.643 103.981 447.902 103.256C449.182 102.531 450.611 102.168 452.19 102.168C453.769 102.168 455.187 102.531 456.446 103.256C457.726 103.981 458.729 104.995 459.454 106.296C460.179 107.576 460.542 109.027 460.542 110.648C460.542 112.269 460.179 113.731 459.454 115.032C458.729 116.312 457.726 117.315 456.446 118.04C455.187 118.765 453.769 119.128 452.19 119.128ZM452.19 117.688C453.47 117.688 454.611 117.389 455.614 116.792C456.638 116.195 457.438 115.363 458.014 114.296C458.611 113.229 458.91 112.013 458.91 110.648C458.91 109.283 458.611 108.067 458.014 107C457.438 105.933 456.638 105.101 455.614 104.504C454.611 103.907 453.47 103.608 452.19 103.608C450.91 103.608 449.758 103.907 448.734 104.504C447.731 105.101 446.931 105.933 446.334 107C445.758 108.067 445.47 109.283 445.47 110.648C445.47 112.013 445.758 113.229 446.334 114.296C446.931 115.363 447.731 116.195 448.734 116.792C449.758 117.389 450.91 117.688 452.19 117.688ZM489.012 102.296V117.208C489.012 119.981 488.34 122.029 486.996 123.352C485.652 124.675 483.625 125.336 480.916 125.336C479.38 125.336 477.929 125.101 476.564 124.632C475.198 124.163 474.1 123.512 473.268 122.68L474.132 121.464C474.964 122.232 475.966 122.829 477.14 123.256C478.313 123.683 479.561 123.896 480.884 123.896C483.102 123.896 484.745 123.363 485.812 122.296C486.878 121.251 487.412 119.619 487.412 117.4V114.584C486.729 115.8 485.78 116.739 484.564 117.4C483.348 118.061 481.982 118.392 480.468 118.392C478.91 118.392 477.492 118.051 476.212 117.368C474.953 116.664 473.961 115.693 473.236 114.456C472.51 113.219 472.148 111.821 472.148 110.264C472.148 108.707 472.51 107.309 473.236 106.072C473.961 104.835 474.953 103.875 476.212 103.192C477.492 102.509 478.91 102.168 480.468 102.168C482.004 102.168 483.39 102.509 484.628 103.192C485.865 103.875 486.814 104.835 487.476 106.072V102.296H489.012ZM480.596 116.952C481.897 116.952 483.07 116.675 484.116 116.12C485.161 115.544 485.972 114.755 486.548 113.752C487.145 112.728 487.444 111.565 487.444 110.264C487.444 108.963 487.145 107.811 486.548 106.808C485.972 105.805 485.161 105.027 484.116 104.472C483.07 103.896 481.897 103.608 480.596 103.608C479.294 103.608 478.121 103.896 477.076 104.472C476.052 105.027 475.241 105.805 474.644 106.808C474.068 107.811 473.78 108.963 473.78 110.264C473.78 111.565 474.068 112.728 474.644 113.752C475.241 114.755 476.052 115.544 477.076 116.12C478.121 116.675 479.294 116.952 480.596 116.952ZM510.469 102.296V117.208C510.469 119.981 509.85 122.029 508.613 123.352C507.376 124.675 505.509 125.336 503.013 125.336C501.584 125.336 500.24 125.101 498.981 124.632C497.722 124.163 496.709 123.512 495.941 122.68L496.805 121.464C497.552 122.232 498.458 122.829 499.525 123.256C500.592 123.683 501.733 123.896 502.949 123.896C504.976 123.896 506.469 123.363 507.429 122.296C508.389 121.251 508.869 119.619 508.869 117.4V114.84C508.293 115.949 507.461 116.824 506.373 117.464C505.306 118.083 504.058 118.392 502.629 118.392C500.453 118.392 498.746 117.784 497.509 116.568C496.272 115.352 495.653 113.603 495.653 111.32V102.296H497.253V111.192C497.253 113.069 497.733 114.499 498.693 115.48C499.653 116.461 501.008 116.952 502.757 116.952C504.634 116.952 506.117 116.365 507.205 115.192C508.314 114.019 508.869 112.44 508.869 110.456V102.296H510.469ZM539.779 102.296V119H517.315V102.296H518.915V117.592H527.779V102.296H529.379V117.592H538.179V102.296H539.779ZM553.474 117.688C554.562 117.688 555.565 117.496 556.482 117.112C557.421 116.707 558.2 116.12 558.818 115.352L559.746 116.408C559.021 117.304 558.114 117.987 557.026 118.456C555.938 118.904 554.744 119.128 553.442 119.128C551.778 119.128 550.285 118.765 548.962 118.04C547.661 117.315 546.637 116.312 545.89 115.032C545.165 113.752 544.802 112.291 544.802 110.648C544.802 109.005 545.144 107.544 545.826 106.264C546.53 104.984 547.501 103.981 548.738 103.256C549.976 102.531 551.373 102.168 552.93 102.168C554.381 102.168 555.682 102.509 556.834 103.192C558.008 103.853 558.936 104.781 559.618 105.976C560.322 107.149 560.706 108.472 560.77 109.944L546.658 112.696C547.064 114.232 547.874 115.448 549.09 116.344C550.306 117.24 551.768 117.688 553.474 117.688ZM552.93 103.576C551.672 103.576 550.541 103.875 549.538 104.472C548.536 105.048 547.757 105.869 547.202 106.936C546.648 107.981 546.37 109.176 546.37 110.52C546.37 110.755 546.392 111.085 546.434 111.512L559.17 109.016C559.021 108.013 558.669 107.096 558.114 106.264C557.56 105.432 556.834 104.781 555.938 104.312C555.042 103.821 554.04 103.576 552.93 103.576Z" fill="#949494"/>
</svg>
