<svg width="716" height="127" viewBox="0 0 716 127" fill="none" xmlns="http://www.w3.org/2000/svg">
<path d="M30.5218 70.864C25.3858 70.864 20.7298 69.76 16.5538 67.552C12.4258 65.296 9.16178 62.2 6.76178 58.264C4.40978 54.28 3.23378 49.792 3.23378 44.8C3.23378 39.808 4.40978 35.344 6.76178 31.408C9.16178 27.424 12.4258 24.328 16.5538 22.12C20.7298 19.864 25.4098 18.736 30.5938 18.736C34.9618 18.736 38.8978 19.504 42.4018 21.04C45.9538 22.576 48.9298 24.784 51.3298 27.664L43.8418 34.576C40.4338 30.64 36.2098 28.672 31.1698 28.672C28.0498 28.672 25.2658 29.368 22.8178 30.76C20.3698 32.104 18.4498 34 17.0578 36.448C15.7138 38.896 15.0418 41.68 15.0418 44.8C15.0418 47.92 15.7138 50.704 17.0578 53.152C18.4498 55.6 20.3698 57.52 22.8178 58.912C25.2658 60.256 28.0498 60.928 31.1698 60.928C36.2098 60.928 40.4338 58.936 43.8418 54.952L51.3298 61.864C48.9298 64.792 45.9538 67.024 42.4018 68.56C38.8498 70.096 34.8898 70.864 30.5218 70.864ZM87.66 49.768C92.22 51.304 94.5 54.376 94.5 58.984C94.5 62.488 93.18 65.2 90.54 67.12C87.9 69.04 83.964 70 78.732 70H58.068V31.264H77.868C82.716 31.264 86.508 32.152 89.244 33.928C91.98 35.656 93.348 38.104 93.348 41.272C93.348 43.192 92.844 44.896 91.836 46.384C90.876 47.824 89.484 48.952 87.66 49.768ZM68.364 47.176H76.86C80.796 47.176 82.764 45.784 82.764 43C82.764 40.264 80.796 38.896 76.86 38.896H68.364V47.176ZM77.796 62.368C81.924 62.368 83.988 60.952 83.988 58.12C83.988 56.632 83.508 55.552 82.548 54.88C81.588 54.16 80.076 53.8 78.012 53.8H68.364V62.368H77.796ZM137.273 31.264V70H127.265V58.912H118.985L111.641 70H99.689L108.545 57.328C105.857 56.272 103.793 54.76 102.353 52.792C100.961 50.776 100.265 48.352 100.265 45.52C100.265 40.96 101.897 37.456 105.161 35.008C108.473 32.512 113.009 31.264 118.769 31.264H137.273ZM118.985 40.408C116.585 40.408 114.761 40.84 113.513 41.704C112.313 42.568 111.713 43.96 111.713 45.88C111.713 47.8 112.289 49.216 113.441 50.128C114.641 50.992 116.441 51.424 118.841 51.424H127.265V40.408H118.985ZM186.444 55.312H181.044V70H169.956V55.312H164.556L156.348 70H143.1L155.268 49.984L143.964 31.264H155.844L164.412 46.312H169.956V31.264H181.044V46.312H186.516L195.156 31.264H207.036L195.732 49.984L207.972 70H194.652L186.444 55.312ZM213.81 31.264H224.97V54.304L243.834 31.264H254.13V70H242.97V46.96L224.178 70H213.81V31.264ZM297.471 40.48H284.367V70H273.207V40.48H260.103V31.264H297.471V40.48ZM339.497 50.776C339.497 50.92 339.425 51.928 339.281 53.8H309.977C310.505 56.2 311.753 58.096 313.721 59.488C315.689 60.88 318.137 61.576 321.065 61.576C323.081 61.576 324.857 61.288 326.393 60.712C327.977 60.088 329.441 59.128 330.785 57.832L336.761 64.312C333.113 68.488 327.785 70.576 320.777 70.576C316.409 70.576 312.545 69.736 309.185 68.056C305.825 66.328 303.233 63.952 301.409 60.928C299.585 57.904 298.673 54.472 298.673 50.632C298.673 46.84 299.561 43.432 301.337 40.408C303.161 37.336 305.633 34.96 308.753 33.28C311.921 31.552 315.449 30.688 319.337 30.688C323.129 30.688 326.561 31.504 329.633 33.136C332.705 34.768 335.105 37.12 336.833 40.192C338.609 43.216 339.497 46.744 339.497 50.776ZM319.409 39.184C316.865 39.184 314.729 39.904 313.001 41.344C311.273 42.784 310.217 44.752 309.833 47.248H328.913C328.529 44.8 327.473 42.856 325.745 41.416C324.017 39.928 321.905 39.184 319.409 39.184ZM366.539 70.576C362.411 70.576 358.691 69.736 355.379 68.056C352.115 66.328 349.547 63.952 347.675 60.928C345.851 57.904 344.939 54.472 344.939 50.632C344.939 46.792 345.851 43.36 347.675 40.336C349.547 37.312 352.115 34.96 355.379 33.28C358.691 31.552 362.411 30.688 366.539 30.688C370.619 30.688 374.171 31.552 377.195 33.28C380.267 34.96 382.499 37.384 383.891 40.552L375.179 45.232C373.163 41.68 370.259 39.904 366.467 39.904C363.539 39.904 361.115 40.864 359.195 42.784C357.275 44.704 356.315 47.32 356.315 50.632C356.315 53.944 357.275 56.56 359.195 58.48C361.115 60.4 363.539 61.36 366.467 61.36C370.307 61.36 373.211 59.584 375.179 56.032L383.891 60.784C382.499 63.856 380.267 66.256 377.195 67.984C374.171 69.712 370.619 70.576 366.539 70.576ZM411.668 43.648C416.708 43.696 420.572 44.848 423.26 47.104C425.948 49.312 427.292 52.456 427.292 56.536C427.292 60.808 425.78 64.144 422.756 66.544C419.78 68.896 415.58 70.072 410.156 70.072L390.716 70V31.264H401.876V43.648H411.668ZM409.148 62.08C411.308 62.128 412.964 61.672 414.116 60.712C415.268 59.752 415.844 58.312 415.844 56.392C415.844 54.52 415.268 53.152 414.116 52.288C413.012 51.424 411.356 50.968 409.148 50.92L401.876 50.848V62.08H409.148ZM473.133 70.576C469.005 70.576 465.285 69.736 461.973 68.056C458.709 66.328 456.141 63.952 454.269 60.928C452.445 57.904 451.533 54.472 451.533 50.632C451.533 46.792 452.445 43.36 454.269 40.336C456.141 37.312 458.709 34.96 461.973 33.28C465.285 31.552 469.005 30.688 473.133 30.688C477.213 30.688 480.765 31.552 483.789 33.28C486.861 34.96 489.093 37.384 490.485 40.552L481.773 45.232C479.757 41.68 476.853 39.904 473.061 39.904C470.133 39.904 467.709 40.864 465.789 42.784C463.869 44.704 462.909 47.32 462.909 50.632C462.909 53.944 463.869 56.56 465.789 58.48C467.709 60.4 470.133 61.36 473.061 61.36C476.901 61.36 479.805 59.584 481.773 56.032L490.485 60.784C489.093 63.856 486.861 66.256 483.789 67.984C480.765 69.712 477.213 70.576 473.133 70.576Z" fill="#F0F0F0"/>
<path d="M517.701 31.264H528.861V46.384H545.709V31.264H556.941V70H545.709V55.528H528.861V70H517.701V31.264ZM582.741 30.688C588.741 30.688 593.349 32.128 596.565 35.008C599.781 37.84 601.389 42.136 601.389 47.896V70H590.877V65.176C588.765 68.776 584.829 70.576 579.069 70.576C576.093 70.576 573.501 70.072 571.293 69.064C569.133 68.056 567.477 66.664 566.325 64.888C565.173 63.112 564.597 61.096 564.597 58.84C564.597 55.24 565.941 52.408 568.629 50.344C571.365 48.28 575.565 47.248 581.229 47.248H590.157C590.157 44.8 589.413 42.928 587.925 41.632C586.437 40.288 584.205 39.616 581.229 39.616C579.165 39.616 577.125 39.952 575.109 40.624C573.141 41.248 571.461 42.112 570.069 43.216L566.037 35.368C568.149 33.88 570.669 32.728 573.597 31.912C576.573 31.096 579.621 30.688 582.741 30.688ZM581.877 63.016C583.797 63.016 585.501 62.584 586.989 61.72C588.477 60.808 589.533 59.488 590.157 57.76V53.8H582.453C577.845 53.8 575.541 55.312 575.541 58.336C575.541 59.776 576.093 60.928 577.197 61.792C578.349 62.608 579.909 63.016 581.877 63.016ZM648.946 70V46.816L637.354 66.256H632.602L621.298 46.744V70H611.146V31.264H622.882L635.266 53.656L648.442 31.264H658.954L659.098 70H648.946ZM669.857 31.264H681.017V54.304L699.881 31.264H710.177V70H699.017V46.96L680.225 70H669.857V31.264Z" fill="#F0F0F0"/>
<path d="M517.701 31.264H528.861V46.384H545.709V31.264H556.941V70H545.709V55.528H528.861V70H517.701V31.264ZM582.741 30.688C588.741 30.688 593.349 32.128 596.565 35.008C599.781 37.84 601.389 42.136 601.389 47.896V70H590.877V65.176C588.765 68.776 584.829 70.576 579.069 70.576C576.093 70.576 573.501 70.072 571.293 69.064C569.133 68.056 567.477 66.664 566.325 64.888C565.173 63.112 564.597 61.096 564.597 58.84C564.597 55.24 565.941 52.408 568.629 50.344C571.365 48.28 575.565 47.248 581.229 47.248H590.157C590.157 44.8 589.413 42.928 587.925 41.632C586.437 40.288 584.205 39.616 581.229 39.616C579.165 39.616 577.125 39.952 575.109 40.624C573.141 41.248 571.461 42.112 570.069 43.216L566.037 35.368C568.149 33.88 570.669 32.728 573.597 31.912C576.573 31.096 579.621 30.688 582.741 30.688ZM581.877 63.016C583.797 63.016 585.501 62.584 586.989 61.72C588.477 60.808 589.533 59.488 590.157 57.76V53.8H582.453C577.845 53.8 575.541 55.312 575.541 58.336C575.541 59.776 576.093 60.928 577.197 61.792C578.349 62.608 579.909 63.016 581.877 63.016ZM648.946 70V46.816L637.354 66.256H632.602L621.298 46.744V70H611.146V31.264H622.882L635.266 53.656L648.442 31.264H658.954L659.098 70H648.946ZM669.857 31.264H681.017V54.304L699.881 31.264H710.177V70H699.017V46.96L680.225 70H669.857V31.264Z" fill="#FFC700"/>
<path d="M184.004 96.44C186.073 96.44 187.94 96.9307 189.604 97.912C191.289 98.8933 192.612 100.259 193.572 102.008C194.532 103.736 195.012 105.667 195.012 107.8C195.012 109.933 194.532 111.875 193.572 113.624C192.612 115.352 191.289 116.707 189.604 117.688C187.94 118.669 186.073 119.16 184.004 119.16C182.319 119.16 180.761 118.904 179.332 118.392C177.924 117.859 176.729 117.08 175.748 116.056L176.772 114.968C178.585 116.76 180.975 117.656 183.94 117.656C185.647 117.656 187.204 117.251 188.612 116.44C190.02 115.629 191.14 114.509 191.972 113.08C192.825 111.629 193.284 110.019 193.348 108.248H181.22V106.872H193.316C193.188 105.165 192.697 103.64 191.844 102.296C190.991 100.931 189.871 99.864 188.484 99.096C187.119 98.328 185.604 97.944 183.94 97.944C181.017 97.944 178.628 98.84 176.772 100.632L175.748 99.576C176.729 98.552 177.924 97.7733 179.332 97.24C180.761 96.7067 182.319 96.44 184.004 96.44ZM221.319 102.168C223.388 102.168 225.009 102.776 226.183 103.992C227.377 105.208 227.975 106.957 227.975 109.24V119H226.375V109.368C226.375 107.491 225.916 106.061 224.999 105.08C224.081 104.099 222.801 103.608 221.159 103.608C219.281 103.608 217.788 104.195 216.679 105.368C215.591 106.541 215.047 108.12 215.047 110.104V119H213.447V109.368C213.447 107.491 212.988 106.061 212.071 105.08C211.153 104.099 209.873 103.608 208.231 103.608C206.353 103.608 204.86 104.195 203.751 105.368C202.663 106.541 202.119 108.12 202.119 110.104V119H200.519V102.296H202.055V105.88C202.609 104.707 203.431 103.8 204.519 103.16C205.628 102.499 206.94 102.168 208.455 102.168C209.969 102.168 211.249 102.509 212.295 103.192C213.361 103.875 214.119 104.877 214.567 106.2C215.121 104.963 215.985 103.981 217.159 103.256C218.353 102.531 219.74 102.168 221.319 102.168ZM240.987 119.128C239.408 119.128 237.979 118.765 236.699 118.04C235.44 117.315 234.448 116.312 233.723 115.032C232.998 113.731 232.635 112.269 232.635 110.648C232.635 109.027 232.998 107.576 233.723 106.296C234.448 104.995 235.44 103.981 236.699 103.256C237.979 102.531 239.408 102.168 240.987 102.168C242.566 102.168 243.984 102.531 245.243 103.256C246.523 103.981 247.526 104.995 248.251 106.296C248.976 107.576 249.339 109.027 249.339 110.648C249.339 112.269 248.976 113.731 248.251 115.032C247.526 116.312 246.523 117.315 245.243 118.04C243.984 118.765 242.566 119.128 240.987 119.128ZM240.987 117.688C242.267 117.688 243.408 117.389 244.411 116.792C245.435 116.195 246.235 115.363 246.811 114.296C247.408 113.229 247.707 112.013 247.707 110.648C247.707 109.283 247.408 108.067 246.811 107C246.235 105.933 245.435 105.101 244.411 104.504C243.408 103.907 242.267 103.608 240.987 103.608C239.707 103.608 238.555 103.907 237.531 104.504C236.528 105.101 235.728 105.933 235.131 107C234.555 108.067 234.267 109.283 234.267 110.648C234.267 112.013 234.555 113.229 235.131 114.296C235.728 115.363 236.528 116.195 237.531 116.792C238.555 117.389 239.707 117.688 240.987 117.688ZM270.513 102.552C272.07 102.552 273.446 102.904 274.641 103.608C275.857 104.291 276.806 105.251 277.489 106.488C278.171 107.725 278.513 109.155 278.513 110.776C278.513 112.397 278.161 113.848 277.457 115.128C276.774 116.387 275.803 117.379 274.545 118.104C273.307 118.808 271.889 119.16 270.289 119.16C268.454 119.16 266.886 118.712 265.585 117.816C264.305 116.92 263.323 115.651 262.641 114.008C261.979 112.365 261.649 110.445 261.649 108.248C261.649 105.752 261.947 103.683 262.545 102.04C263.163 100.397 264.081 99.1067 265.297 98.168C266.534 97.208 268.113 96.4933 270.033 96.024L277.425 94.232L277.681 95.736L270.641 97.4C268.913 97.8053 267.505 98.4027 266.417 99.192C265.35 99.96 264.55 101.016 264.016 102.36C263.483 103.704 263.206 105.421 263.185 107.512C263.739 105.976 264.667 104.771 265.969 103.896C267.27 103 268.785 102.552 270.513 102.552ZM270.321 117.784C271.579 117.784 272.71 117.485 273.713 116.888C274.715 116.291 275.494 115.469 276.049 114.424C276.603 113.357 276.881 112.152 276.881 110.808C276.881 109.464 276.603 108.28 276.049 107.256C275.494 106.211 274.715 105.411 273.713 104.856C272.731 104.28 271.601 103.992 270.321 103.992C269.041 103.992 267.899 104.28 266.897 104.856C265.894 105.411 265.115 106.211 264.561 107.256C264.006 108.28 263.729 109.464 263.729 110.808C263.729 112.152 264.006 113.357 264.561 114.424C265.115 115.469 265.894 116.291 266.897 116.888C267.899 117.485 269.041 117.784 270.321 117.784ZM290.169 119.32C287.971 119.32 286.275 118.765 285.081 117.656C283.886 116.525 283.289 114.957 283.289 112.952V102.296H284.889V109.688C285.379 108.963 286.105 108.376 287.065 107.928C288.025 107.459 289.134 107.224 290.393 107.224C292.441 107.224 294.03 107.757 295.161 108.824C296.291 109.869 296.857 111.267 296.857 113.016C296.857 114.232 296.579 115.32 296.025 116.28C295.491 117.219 294.723 117.965 293.721 118.52C292.718 119.053 291.534 119.32 290.169 119.32ZM299.801 102.296H301.401V119H299.801V102.296ZM290.233 118.04C291.79 118.04 293.006 117.571 293.881 116.632C294.777 115.672 295.225 114.477 295.225 113.048C295.225 111.704 294.777 110.605 293.881 109.752C292.985 108.899 291.705 108.472 290.041 108.472C288.846 108.472 287.801 108.739 286.905 109.272C286.009 109.784 285.337 110.499 284.889 111.416V113.016C284.889 114.595 285.347 115.832 286.265 116.728C287.182 117.603 288.505 118.04 290.233 118.04ZM315.052 119.128C313.43 119.128 311.98 118.765 310.7 118.04C309.42 117.315 308.417 116.312 307.692 115.032C306.966 113.731 306.604 112.269 306.604 110.648C306.604 109.005 306.966 107.544 307.692 106.264C308.417 104.963 309.42 103.96 310.7 103.256C311.98 102.531 313.43 102.168 315.052 102.168C316.396 102.168 317.612 102.435 318.7 102.968C319.809 103.48 320.705 104.237 321.388 105.24L320.204 106.104C319.606 105.272 318.86 104.653 317.964 104.248C317.089 103.821 316.118 103.608 315.052 103.608C313.75 103.608 312.577 103.907 311.532 104.504C310.508 105.08 309.697 105.901 309.1 106.968C308.524 108.035 308.236 109.261 308.236 110.648C308.236 112.035 308.524 113.261 309.1 114.328C309.697 115.395 310.508 116.227 311.532 116.824C312.577 117.4 313.75 117.688 315.052 117.688C316.118 117.688 317.089 117.485 317.964 117.08C318.86 116.653 319.606 116.024 320.204 115.192L321.388 116.056C320.705 117.059 319.809 117.827 318.7 118.36C317.612 118.872 316.396 119.128 315.052 119.128ZM346.912 102.168C348.982 102.168 350.603 102.776 351.776 103.992C352.971 105.208 353.568 106.957 353.568 109.24V119H351.968V109.368C351.968 107.491 351.51 106.061 350.592 105.08C349.675 104.099 348.395 103.608 346.752 103.608C344.875 103.608 343.382 104.195 342.272 105.368C341.184 106.541 340.64 108.12 340.64 110.104V119H339.04V109.368C339.04 107.491 338.582 106.061 337.664 105.08C336.747 104.099 335.467 103.608 333.824 103.608C331.947 103.608 330.454 104.195 329.344 105.368C328.256 106.541 327.712 108.12 327.712 110.104V119H326.112V102.296H327.648V105.88C328.203 104.707 329.024 103.8 330.112 103.16C331.222 102.499 332.534 102.168 334.048 102.168C335.563 102.168 336.843 102.509 337.888 103.192C338.955 103.875 339.712 104.877 340.16 106.2C340.715 104.963 341.579 103.981 342.752 103.256C343.947 102.531 345.334 102.168 346.912 102.168ZM366.581 119.128C365.002 119.128 363.573 118.765 362.293 118.04C361.034 117.315 360.042 116.312 359.317 115.032C358.591 113.731 358.229 112.269 358.229 110.648C358.229 109.027 358.591 107.576 359.317 106.296C360.042 104.995 361.034 103.981 362.293 103.256C363.573 102.531 365.002 102.168 366.581 102.168C368.159 102.168 369.578 102.531 370.837 103.256C372.117 103.981 373.119 104.995 373.845 106.296C374.57 107.576 374.933 109.027 374.933 110.648C374.933 112.269 374.57 113.731 373.845 115.032C373.119 116.312 372.117 117.315 370.837 118.04C369.578 118.765 368.159 119.128 366.581 119.128ZM366.581 117.688C367.861 117.688 369.002 117.389 370.005 116.792C371.029 116.195 371.829 115.363 372.405 114.296C373.002 113.229 373.301 112.013 373.301 110.648C373.301 109.283 373.002 108.067 372.405 107C371.829 105.933 371.029 105.101 370.005 104.504C369.002 103.907 367.861 103.608 366.581 103.608C365.301 103.608 364.149 103.907 363.125 104.504C362.122 105.101 361.322 105.933 360.725 107C360.149 108.067 359.861 109.283 359.861 110.648C359.861 112.013 360.149 113.229 360.725 114.296C361.322 115.363 362.122 116.195 363.125 116.792C364.149 117.389 365.301 117.688 366.581 117.688ZM402.634 102.296V119H401.066V115.48C400.49 116.632 399.658 117.528 398.57 118.168C397.504 118.808 396.245 119.128 394.794 119.128C392.618 119.128 390.901 118.531 389.642 117.336C388.405 116.12 387.786 114.36 387.786 112.056V102.296H389.386V111.928C389.386 113.805 389.866 115.235 390.826 116.216C391.786 117.197 393.141 117.688 394.89 117.688C396.768 117.688 398.261 117.101 399.37 115.928C400.48 114.755 401.034 113.176 401.034 111.192V102.296H402.634ZM432.297 102.296V117.208C432.297 119.981 431.679 122.029 430.441 123.352C429.204 124.675 427.337 125.336 424.841 125.336C423.412 125.336 422.068 125.101 420.809 124.632C419.551 124.163 418.537 123.512 417.769 122.68L418.633 121.464C419.38 122.232 420.287 122.829 421.353 123.256C422.42 123.683 423.561 123.896 424.777 123.896C426.804 123.896 428.297 123.363 429.257 122.296C430.217 121.251 430.697 119.619 430.697 117.4V114.84C430.121 115.949 429.289 116.824 428.201 117.464C427.135 118.083 425.887 118.392 424.457 118.392C422.281 118.392 420.575 117.784 419.337 116.568C418.1 115.352 417.481 113.603 417.481 111.32V102.296H419.081V111.192C419.081 113.069 419.561 114.499 420.521 115.48C421.481 116.461 422.836 116.952 424.585 116.952C426.463 116.952 427.945 116.365 429.033 115.192C430.143 114.019 430.697 112.44 430.697 110.456V102.296H432.297ZM454.184 102.296V117.208C454.184 119.981 453.512 122.029 452.168 123.352C450.824 124.675 448.797 125.336 446.088 125.336C444.552 125.336 443.101 125.101 441.736 124.632C440.37 124.163 439.272 123.512 438.44 122.68L439.304 121.464C440.136 122.232 441.138 122.829 442.312 123.256C443.485 123.683 444.733 123.896 446.056 123.896C448.274 123.896 449.917 123.363 450.984 122.296C452.05 121.251 452.583 119.619 452.583 117.4V114.584C451.901 115.8 450.952 116.739 449.736 117.4C448.52 118.061 447.154 118.392 445.64 118.392C444.082 118.392 442.664 118.051 441.384 117.368C440.125 116.664 439.133 115.693 438.408 114.456C437.682 113.219 437.32 111.821 437.32 110.264C437.32 108.707 437.682 107.309 438.408 106.072C439.133 104.835 440.125 103.875 441.384 103.192C442.664 102.509 444.082 102.168 445.64 102.168C447.176 102.168 448.562 102.509 449.8 103.192C451.037 103.875 451.986 104.835 452.648 106.072V102.296H454.184ZM445.768 116.952C447.069 116.952 448.242 116.675 449.288 116.12C450.333 115.544 451.144 114.755 451.72 113.752C452.317 112.728 452.616 111.565 452.616 110.264C452.616 108.963 452.317 107.811 451.72 106.808C451.144 105.805 450.333 105.027 449.288 104.472C448.242 103.896 447.069 103.608 445.768 103.608C444.466 103.608 443.293 103.896 442.248 104.472C441.224 105.027 440.413 105.805 439.816 106.808C439.24 107.811 438.952 108.963 438.952 110.264C438.952 111.565 439.24 112.728 439.816 113.752C440.413 114.755 441.224 115.544 442.248 116.12C443.293 116.675 444.466 116.952 445.768 116.952ZM467.737 119.128C466.158 119.128 464.729 118.765 463.449 118.04C462.19 117.315 461.198 116.312 460.473 115.032C459.748 113.731 459.385 112.269 459.385 110.648C459.385 109.027 459.748 107.576 460.473 106.296C461.198 104.995 462.19 103.981 463.449 103.256C464.729 102.531 466.158 102.168 467.737 102.168C469.316 102.168 470.734 102.531 471.993 103.256C473.273 103.981 474.276 104.995 475.001 106.296C475.726 107.576 476.089 109.027 476.089 110.648C476.089 112.269 475.726 113.731 475.001 115.032C474.276 116.312 473.273 117.315 471.993 118.04C470.734 118.765 469.316 119.128 467.737 119.128ZM467.737 117.688C469.017 117.688 470.158 117.389 471.161 116.792C472.185 116.195 472.985 115.363 473.561 114.296C474.158 113.229 474.457 112.013 474.457 110.648C474.457 109.283 474.158 108.067 473.561 107C472.985 105.933 472.185 105.101 471.161 104.504C470.158 103.907 469.017 103.608 467.737 103.608C466.457 103.608 465.305 103.907 464.281 104.504C463.278 105.101 462.478 105.933 461.881 107C461.305 108.067 461.017 109.283 461.017 110.648C461.017 112.013 461.305 113.229 461.881 114.296C462.478 115.363 463.278 116.195 464.281 116.792C465.305 117.389 466.457 117.688 467.737 117.688ZM489.044 102.552C490.601 102.552 491.977 102.904 493.172 103.608C494.388 104.291 495.337 105.251 496.02 106.488C496.702 107.725 497.044 109.155 497.044 110.776C497.044 112.397 496.692 113.848 495.988 115.128C495.305 116.387 494.334 117.379 493.076 118.104C491.838 118.808 490.42 119.16 488.82 119.16C486.985 119.16 485.417 118.712 484.116 117.816C482.836 116.92 481.854 115.651 481.172 114.008C480.51 112.365 480.18 110.445 480.18 108.248C480.18 105.752 480.478 103.683 481.076 102.04C481.694 100.397 482.612 99.1067 483.828 98.168C485.065 97.208 486.644 96.4933 488.564 96.024L495.956 94.232L496.212 95.736L489.172 97.4C487.444 97.8053 486.036 98.4027 484.948 99.192C483.881 99.96 483.081 101.016 482.548 102.36C482.014 103.704 481.737 105.421 481.716 107.512C482.27 105.976 483.198 104.771 484.5 103.896C485.801 103 487.316 102.552 489.044 102.552ZM488.852 117.784C490.11 117.784 491.241 117.485 492.244 116.888C493.246 116.291 494.025 115.469 494.58 114.424C495.134 113.357 495.412 112.152 495.412 110.808C495.412 109.464 495.134 108.28 494.58 107.256C494.025 106.211 493.246 105.411 492.244 104.856C491.262 104.28 490.132 103.992 488.852 103.992C487.572 103.992 486.43 104.28 485.428 104.856C484.425 105.411 483.646 106.211 483.092 107.256C482.537 108.28 482.26 109.464 482.26 110.808C482.26 112.152 482.537 113.357 483.092 114.424C483.646 115.469 484.425 116.291 485.428 116.888C486.43 117.485 487.572 117.784 488.852 117.784ZM502.3 102.296H503.9V109.912H515.228V102.296H516.828V119H515.228V111.32H503.9V119H502.3V102.296ZM530.393 119.128C528.815 119.128 527.385 118.765 526.105 118.04C524.847 117.315 523.855 116.312 523.129 115.032C522.404 113.731 522.041 112.269 522.041 110.648C522.041 109.027 522.404 107.576 523.129 106.296C523.855 104.995 524.847 103.981 526.105 103.256C527.385 102.531 528.815 102.168 530.393 102.168C531.972 102.168 533.391 102.531 534.649 103.256C535.929 103.981 536.932 104.995 537.657 106.296C538.383 107.576 538.745 109.027 538.745 110.648C538.745 112.269 538.383 113.731 537.657 115.032C536.932 116.312 535.929 117.315 534.649 118.04C533.391 118.765 531.972 119.128 530.393 119.128ZM530.393 117.688C531.673 117.688 532.815 117.389 533.817 116.792C534.841 116.195 535.641 115.363 536.217 114.296C536.815 113.229 537.113 112.013 537.113 110.648C537.113 109.283 536.815 108.067 536.217 107C535.641 105.933 534.841 105.101 533.817 104.504C532.815 103.907 531.673 103.608 530.393 103.608C529.113 103.608 527.961 103.907 526.937 104.504C525.935 105.101 525.135 105.933 524.537 107C523.961 108.067 523.673 109.283 523.673 110.648C523.673 112.013 523.961 113.229 524.537 114.296C525.135 115.363 525.935 116.195 526.937 116.792C527.961 117.389 529.113 117.688 530.393 117.688Z" fill="#949494"/>
</svg>
