<svg width="675" height="127" viewBox="0 0 675 127" fill="none" xmlns="http://www.w3.org/2000/svg">
<path d="M128.886 19.6V70H117.222V49.336H94.3264V70H82.6624V19.6H94.3264V39.472H117.222V19.6H128.886ZM155.698 30.688C161.698 30.688 166.306 32.128 169.522 35.008C172.738 37.84 174.346 42.136 174.346 47.896V70H163.834V65.176C161.722 68.776 157.786 70.576 152.026 70.576C149.05 70.576 146.458 70.072 144.25 69.064C142.09 68.056 140.434 66.664 139.282 64.888C138.13 63.112 137.554 61.096 137.554 58.84C137.554 55.24 138.898 52.408 141.586 50.344C144.322 48.28 148.522 47.248 154.186 47.248H163.114C163.114 44.8 162.37 42.928 160.882 41.632C159.394 40.288 157.162 39.616 154.186 39.616C152.122 39.616 150.082 39.952 148.066 40.624C146.098 41.248 144.418 42.112 143.026 43.216L138.994 35.368C141.106 33.88 143.626 32.728 146.554 31.912C149.53 31.096 152.578 30.688 155.698 30.688ZM154.834 63.016C156.754 63.016 158.458 62.584 159.946 61.72C161.434 60.808 162.49 59.488 163.114 57.76V53.8H155.41C150.802 53.8 148.498 55.312 148.498 58.336C148.498 59.776 149.05 60.928 150.154 61.792C151.306 62.608 152.866 63.016 154.834 63.016ZM243.215 31.264V70H184.103V31.264H195.263V60.784H208.151V31.264H219.311V60.784H232.055V31.264H243.215ZM253.994 31.264H265.154V54.304L284.018 31.264H294.314V70H283.154V46.96L264.362 70H253.994V31.264Z" fill="#F0F0F0"/>
<path d="M364.31 31.264L346.814 72.376C345.038 76.84 342.83 79.984 340.19 81.808C337.598 83.632 334.454 84.544 330.758 84.544C328.742 84.544 326.75 84.232 324.782 83.608C322.814 82.984 321.206 82.12 319.958 81.016L324.062 73.024C324.926 73.792 325.91 74.392 327.014 74.824C328.166 75.256 329.294 75.472 330.398 75.472C331.934 75.472 333.182 75.088 334.142 74.32C335.102 73.6 335.966 72.376 336.734 70.648L336.878 70.288L320.102 31.264H331.694L342.566 57.544L353.51 31.264H364.31ZM387.105 70.576C382.977 70.576 379.257 69.736 375.945 68.056C372.681 66.328 370.113 63.952 368.241 60.928C366.417 57.904 365.505 54.472 365.505 50.632C365.505 46.792 366.417 43.36 368.241 40.336C370.113 37.312 372.681 34.96 375.945 33.28C379.257 31.552 382.977 30.688 387.105 30.688C391.185 30.688 394.737 31.552 397.761 33.28C400.833 34.96 403.065 37.384 404.457 40.552L395.745 45.232C393.729 41.68 390.825 39.904 387.033 39.904C384.105 39.904 381.681 40.864 379.761 42.784C377.841 44.704 376.881 47.32 376.881 50.632C376.881 53.944 377.841 56.56 379.761 58.48C381.681 60.4 384.105 61.36 387.033 61.36C390.873 61.36 393.777 59.584 395.745 56.032L404.457 60.784C403.065 63.856 400.833 66.256 397.761 67.984C394.737 69.712 391.185 70.576 387.105 70.576ZM447.872 31.264V70H436.64V40.48H424.4L424.04 47.32C423.848 52.408 423.368 56.632 422.6 59.992C421.832 63.352 420.584 65.992 418.856 67.912C417.128 69.832 414.728 70.792 411.656 70.792C410.024 70.792 408.08 70.504 405.824 69.928L406.4 60.712C407.168 60.808 407.72 60.856 408.056 60.856C409.736 60.856 410.984 60.256 411.8 59.056C412.664 57.808 413.24 56.248 413.528 54.376C413.816 52.456 414.032 49.936 414.176 46.816L414.752 31.264H447.872ZM497.481 31.264L479.985 72.376C478.209 76.84 476.001 79.984 473.361 81.808C470.769 83.632 467.625 84.544 463.929 84.544C461.913 84.544 459.921 84.232 457.953 83.608C455.985 82.984 454.377 82.12 453.129 81.016L457.233 73.024C458.097 73.792 459.081 74.392 460.185 74.824C461.337 75.256 462.465 75.472 463.569 75.472C465.105 75.472 466.353 75.088 467.313 74.32C468.273 73.6 469.137 72.376 469.905 70.648L470.049 70.288L453.273 31.264H464.865L475.737 57.544L486.681 31.264H497.481ZM533.932 40.48H514.06V70H502.9V31.264H533.932V40.48ZM539.884 31.264H551.044V54.304L569.908 31.264H580.204V70H569.044V46.96L550.252 70H539.884V31.264Z" fill="#F0F0F0"/>
<path d="M364.31 31.264L346.814 72.376C345.038 76.84 342.83 79.984 340.19 81.808C337.598 83.632 334.454 84.544 330.758 84.544C328.742 84.544 326.75 84.232 324.782 83.608C322.814 82.984 321.206 82.12 319.958 81.016L324.062 73.024C324.926 73.792 325.91 74.392 327.014 74.824C328.166 75.256 329.294 75.472 330.398 75.472C331.934 75.472 333.182 75.088 334.142 74.32C335.102 73.6 335.966 72.376 336.734 70.648L336.878 70.288L320.102 31.264H331.694L342.566 57.544L353.51 31.264H364.31ZM387.105 70.576C382.977 70.576 379.257 69.736 375.945 68.056C372.681 66.328 370.113 63.952 368.241 60.928C366.417 57.904 365.505 54.472 365.505 50.632C365.505 46.792 366.417 43.36 368.241 40.336C370.113 37.312 372.681 34.96 375.945 33.28C379.257 31.552 382.977 30.688 387.105 30.688C391.185 30.688 394.737 31.552 397.761 33.28C400.833 34.96 403.065 37.384 404.457 40.552L395.745 45.232C393.729 41.68 390.825 39.904 387.033 39.904C384.105 39.904 381.681 40.864 379.761 42.784C377.841 44.704 376.881 47.32 376.881 50.632C376.881 53.944 377.841 56.56 379.761 58.48C381.681 60.4 384.105 61.36 387.033 61.36C390.873 61.36 393.777 59.584 395.745 56.032L404.457 60.784C403.065 63.856 400.833 66.256 397.761 67.984C394.737 69.712 391.185 70.576 387.105 70.576ZM447.872 31.264V70H436.64V40.48H424.4L424.04 47.32C423.848 52.408 423.368 56.632 422.6 59.992C421.832 63.352 420.584 65.992 418.856 67.912C417.128 69.832 414.728 70.792 411.656 70.792C410.024 70.792 408.08 70.504 405.824 69.928L406.4 60.712C407.168 60.808 407.72 60.856 408.056 60.856C409.736 60.856 410.984 60.256 411.8 59.056C412.664 57.808 413.24 56.248 413.528 54.376C413.816 52.456 414.032 49.936 414.176 46.816L414.752 31.264H447.872ZM497.481 31.264L479.985 72.376C478.209 76.84 476.001 79.984 473.361 81.808C470.769 83.632 467.625 84.544 463.929 84.544C461.913 84.544 459.921 84.232 457.953 83.608C455.985 82.984 454.377 82.12 453.129 81.016L457.233 73.024C458.097 73.792 459.081 74.392 460.185 74.824C461.337 75.256 462.465 75.472 463.569 75.472C465.105 75.472 466.353 75.088 467.313 74.32C468.273 73.6 469.137 72.376 469.905 70.648L470.049 70.288L453.273 31.264H464.865L475.737 57.544L486.681 31.264H497.481ZM533.932 40.48H514.06V70H502.9V31.264H533.932V40.48ZM539.884 31.264H551.044V54.304L569.908 31.264H580.204V70H569.044V46.96L550.252 70H539.884V31.264Z" fill="#FFC700"/>
<path d="M45.8255 98.072H33.6015V119H31.9695V96.6H45.8255V98.072ZM57.5745 102.296V119H55.9745V103.736H47.2705L47.0465 108.184C46.9185 110.488 46.7265 112.419 46.4705 113.976C46.2145 115.533 45.7772 116.792 45.1585 117.752C44.5398 118.712 43.6865 119.192 42.5985 119.192C42.2785 119.192 41.8198 119.117 41.2225 118.968L41.3825 117.592C41.7238 117.677 41.9798 117.72 42.1505 117.72C43.0465 117.72 43.7292 117.283 44.1985 116.408C44.6678 115.533 44.9878 114.445 45.1585 113.144C45.3292 111.843 45.4678 110.147 45.5745 108.056L45.8625 102.296H57.5745ZM79.2713 102.296V119H77.7033V115.064C77.0419 116.365 76.1139 117.368 74.9193 118.072C73.7246 118.776 72.3699 119.128 70.8553 119.128C69.2979 119.128 67.8899 118.765 66.6313 118.04C65.3726 117.315 64.3806 116.312 63.6553 115.032C62.9513 113.752 62.5993 112.291 62.5993 110.648C62.5993 109.005 62.9513 107.544 63.6553 106.264C64.3806 104.963 65.3726 103.96 66.6313 103.256C67.8899 102.531 69.2979 102.168 70.8553 102.168C72.3486 102.168 73.6819 102.52 74.8553 103.224C76.0499 103.928 76.9886 104.909 77.6713 106.168V102.296H79.2713ZM70.9513 117.688C72.2313 117.688 73.3726 117.389 74.3753 116.792C75.3993 116.195 76.1993 115.363 76.7753 114.296C77.3726 113.229 77.6713 112.013 77.6713 110.648C77.6713 109.283 77.3726 108.067 76.7753 107C76.1993 105.933 75.3993 105.101 74.3753 104.504C73.3726 103.907 72.2313 103.608 70.9513 103.608C69.6713 103.608 68.5193 103.907 67.4953 104.504C66.4926 105.101 65.6926 105.933 65.0953 107C64.5193 108.067 64.2313 109.283 64.2313 110.648C64.2313 112.013 64.5193 113.229 65.0953 114.296C65.6926 115.363 66.4926 116.195 67.4953 116.792C68.5193 117.389 69.6713 117.688 70.9513 117.688ZM95.969 110.392C98.4223 110.819 99.649 112.195 99.649 114.52C99.649 115.971 99.1157 117.08 98.049 117.848C97.0037 118.616 95.425 119 93.313 119H86.081V102.296H93.121C94.977 102.296 96.4277 102.669 97.473 103.416C98.5397 104.141 99.073 105.187 99.073 106.552C99.073 107.533 98.7957 108.355 98.241 109.016C97.7077 109.656 96.9503 110.115 95.969 110.392ZM87.649 109.912H93.025C94.4543 109.912 95.553 109.645 96.321 109.112C97.089 108.557 97.473 107.768 97.473 106.744C97.473 105.699 97.089 104.92 96.321 104.408C95.5743 103.875 94.4757 103.608 93.025 103.608H87.649V109.912ZM93.281 117.688C96.4597 117.688 98.049 116.611 98.049 114.456C98.049 113.325 97.6863 112.493 96.961 111.96C96.2357 111.427 95.0943 111.16 93.537 111.16H87.649V117.688H93.281ZM105.331 102.296H106.931V109.912H118.259V102.296H119.859V119H118.259V111.32H106.931V119H105.331V102.296ZM133.425 119.128C131.846 119.128 130.417 118.765 129.137 118.04C127.878 117.315 126.886 116.312 126.161 115.032C125.435 113.731 125.073 112.269 125.073 110.648C125.073 109.027 125.435 107.576 126.161 106.296C126.886 104.995 127.878 103.981 129.137 103.256C130.417 102.531 131.846 102.168 133.425 102.168C135.003 102.168 136.422 102.531 137.681 103.256C138.961 103.981 139.963 104.995 140.689 106.296C141.414 107.576 141.777 109.027 141.777 110.648C141.777 112.269 141.414 113.731 140.689 115.032C139.963 116.312 138.961 117.315 137.681 118.04C136.422 118.765 135.003 119.128 133.425 119.128ZM133.425 117.688C134.705 117.688 135.846 117.389 136.849 116.792C137.873 116.195 138.673 115.363 139.249 114.296C139.846 113.229 140.145 112.013 140.145 110.648C140.145 109.283 139.846 108.067 139.249 107C138.673 105.933 137.873 105.101 136.849 104.504C135.846 103.907 134.705 103.608 133.425 103.608C132.145 103.608 130.993 103.907 129.969 104.504C128.966 105.101 128.166 105.933 127.569 107C126.993 108.067 126.705 109.283 126.705 110.648C126.705 112.013 126.993 113.229 127.569 114.296C128.166 115.363 128.966 116.195 129.969 116.792C130.993 117.389 132.145 117.688 133.425 117.688ZM161.259 102.296V119H159.691V115.48C159.115 116.632 158.283 117.528 157.195 118.168C156.129 118.808 154.87 119.128 153.419 119.128C151.243 119.128 149.526 118.531 148.267 117.336C147.03 116.12 146.411 114.36 146.411 112.056V102.296H148.011V111.928C148.011 113.805 148.491 115.235 149.451 116.216C150.411 117.197 151.766 117.688 153.515 117.688C155.393 117.688 156.886 117.101 157.995 115.928C159.105 114.755 159.659 113.176 159.659 111.192V102.296H161.259ZM153.899 99.736C152.555 99.736 151.467 99.3947 150.635 98.712C149.803 98.008 149.377 97.0373 149.355 95.8H150.539C150.561 96.6747 150.881 97.368 151.499 97.88C152.139 98.392 152.939 98.648 153.899 98.648C154.859 98.648 155.649 98.392 156.267 97.88C156.886 97.368 157.206 96.6747 157.227 95.8H158.443C158.422 97.0373 157.995 98.008 157.163 98.712C156.331 99.3947 155.243 99.736 153.899 99.736ZM191.402 102.296V117.208C191.402 119.981 190.73 122.029 189.386 123.352C188.042 124.675 186.016 125.336 183.306 125.336C181.77 125.336 180.32 125.101 178.954 124.632C177.589 124.163 176.49 123.512 175.658 122.68L176.522 121.464C177.354 122.232 178.357 122.829 179.53 123.256C180.704 123.683 181.952 123.896 183.274 123.896C185.493 123.896 187.136 123.363 188.202 122.296C189.269 121.251 189.802 119.619 189.802 117.4V114.584C189.12 115.8 188.17 116.739 186.954 117.4C185.738 118.061 184.373 118.392 182.858 118.392C181.301 118.392 179.882 118.051 178.602 117.368C177.344 116.664 176.352 115.693 175.626 114.456C174.901 113.219 174.538 111.821 174.538 110.264C174.538 108.707 174.901 107.309 175.626 106.072C176.352 104.835 177.344 103.875 178.602 103.192C179.882 102.509 181.301 102.168 182.858 102.168C184.394 102.168 185.781 102.509 187.018 103.192C188.256 103.875 189.205 104.835 189.866 106.072V102.296H191.402ZM182.986 116.952C184.288 116.952 185.461 116.675 186.506 116.12C187.552 115.544 188.362 114.755 188.938 113.752C189.536 112.728 189.834 111.565 189.834 110.264C189.834 108.963 189.536 107.811 188.938 106.808C188.362 105.805 187.552 105.027 186.506 104.472C185.461 103.896 184.288 103.608 182.986 103.608C181.685 103.608 180.512 103.896 179.466 104.472C178.442 105.027 177.632 105.805 177.034 106.808C176.458 107.811 176.17 108.963 176.17 110.264C176.17 111.565 176.458 112.728 177.034 113.752C177.632 114.755 178.442 115.544 179.466 116.12C180.512 116.675 181.685 116.952 182.986 116.952ZM205.084 117.688C206.172 117.688 207.174 117.496 208.092 117.112C209.03 116.707 209.809 116.12 210.428 115.352L211.356 116.408C210.63 117.304 209.724 117.987 208.636 118.456C207.548 118.904 206.353 119.128 205.052 119.128C203.388 119.128 201.894 118.765 200.572 118.04C199.27 117.315 198.246 116.312 197.5 115.032C196.774 113.752 196.412 112.291 196.412 110.648C196.412 109.005 196.753 107.544 197.436 106.264C198.14 104.984 199.11 103.981 200.348 103.256C201.585 102.531 202.982 102.168 204.54 102.168C205.99 102.168 207.292 102.509 208.444 103.192C209.617 103.853 210.545 104.781 211.228 105.976C211.932 107.149 212.316 108.472 212.38 109.944L198.268 112.696C198.673 114.232 199.484 115.448 200.7 116.344C201.916 117.24 203.377 117.688 205.084 117.688ZM204.54 103.576C203.281 103.576 202.15 103.875 201.148 104.472C200.145 105.048 199.366 105.869 198.812 106.936C198.257 107.981 197.98 109.176 197.98 110.52C197.98 110.755 198.001 111.085 198.044 111.512L210.78 109.016C210.63 108.013 210.278 107.096 209.724 106.264C209.169 105.432 208.444 104.781 207.548 104.312C206.652 103.821 205.649 103.576 204.54 103.576ZM229.245 102.296V119H227.773V113.24H222.205C221.821 113.24 221.543 113.229 221.373 113.208L217.245 119H215.485L219.805 113.016C218.439 112.717 217.394 112.131 216.669 111.256C215.943 110.381 215.581 109.251 215.581 107.864C215.581 106.029 216.189 104.643 217.405 103.704C218.642 102.765 220.327 102.296 222.461 102.296H229.245ZM217.181 107.928C217.181 110.659 218.909 112.024 222.365 112.024H227.773V103.704H222.557C218.973 103.704 217.181 105.112 217.181 107.928ZM256.944 102.168C259.013 102.168 260.634 102.776 261.808 103.992C263.002 105.208 263.6 106.957 263.6 109.24V119H262V109.368C262 107.491 261.541 106.061 260.624 105.08C259.706 104.099 258.426 103.608 256.784 103.608C254.906 103.608 253.413 104.195 252.304 105.368C251.216 106.541 250.672 108.12 250.672 110.104V119H249.072V109.368C249.072 107.491 248.613 106.061 247.696 105.08C246.778 104.099 245.498 103.608 243.856 103.608C241.978 103.608 240.485 104.195 239.376 105.368C238.288 106.541 237.744 108.12 237.744 110.104V119H236.144V102.296H237.68V105.88C238.234 104.707 239.056 103.8 240.144 103.16C241.253 102.499 242.565 102.168 244.08 102.168C245.594 102.168 246.874 102.509 247.92 103.192C248.986 103.875 249.744 104.877 250.192 106.2C250.746 104.963 251.61 103.981 252.784 103.256C253.978 102.531 255.365 102.168 256.944 102.168ZM276.74 117.688C277.828 117.688 278.831 117.496 279.748 117.112C280.687 116.707 281.465 116.12 282.084 115.352L283.012 116.408C282.287 117.304 281.38 117.987 280.292 118.456C279.204 118.904 278.009 119.128 276.708 119.128C275.044 119.128 273.551 118.765 272.228 118.04C270.927 117.315 269.903 116.312 269.156 115.032C268.431 113.752 268.068 112.291 268.068 110.648C268.068 109.005 268.409 107.544 269.092 106.264C269.796 104.984 270.767 103.981 272.004 103.256C273.241 102.531 274.639 102.168 276.196 102.168C277.647 102.168 278.948 102.509 280.1 103.192C281.273 103.853 282.201 104.781 282.884 105.976C283.588 107.149 283.972 108.472 284.036 109.944L269.924 112.696C270.329 114.232 271.14 115.448 272.356 116.344C273.572 117.24 275.033 117.688 276.74 117.688ZM276.196 103.576C274.937 103.576 273.807 103.875 272.804 104.472C271.801 105.048 271.023 105.869 270.468 106.936C269.913 107.981 269.636 109.176 269.636 110.52C269.636 110.755 269.657 111.085 269.7 111.512L282.436 109.016C282.287 108.013 281.935 107.096 281.38 106.264C280.825 105.432 280.1 104.781 279.204 104.312C278.308 103.821 277.305 103.576 276.196 103.576ZM301.7 102.296V119H300.1V103.736H291.396L291.172 108.184C291.044 110.488 290.852 112.419 290.596 113.976C290.34 115.533 289.902 116.792 289.284 117.752C288.665 118.712 287.812 119.192 286.724 119.192C286.404 119.192 285.945 119.117 285.348 118.968L285.508 117.592C285.849 117.677 286.105 117.72 286.276 117.72C287.172 117.72 287.854 117.283 288.324 116.408C288.793 115.533 289.113 114.445 289.284 113.144C289.454 111.843 289.593 110.147 289.7 108.056L289.988 102.296H301.7ZM315.14 119.32C312.922 119.32 311.194 118.765 309.956 117.656C308.74 116.525 308.132 114.957 308.132 112.952V102.296H309.732V109.688C310.287 108.92 311.044 108.323 312.004 107.896C312.986 107.448 314.116 107.224 315.396 107.224C317.487 107.224 319.108 107.757 320.26 108.824C321.412 109.869 321.988 111.267 321.988 113.016C321.988 114.232 321.711 115.32 321.156 116.28C320.623 117.24 319.834 117.987 318.788 118.52C317.764 119.053 316.548 119.32 315.14 119.32ZM315.172 118.04C316.772 118.04 318.031 117.571 318.948 116.632C319.887 115.693 320.356 114.499 320.356 113.048C320.356 111.683 319.898 110.584 318.98 109.752C318.063 108.899 316.762 108.472 315.076 108.472C313.839 108.472 312.751 108.739 311.812 109.272C310.895 109.784 310.202 110.499 309.732 111.416V113.016C309.732 114.573 310.212 115.8 311.172 116.696C312.132 117.592 313.466 118.04 315.172 118.04ZM326.737 102.296H328.337V109.912H339.665V102.296H341.265V119H339.665V111.32H328.337V119H326.737V102.296ZM354.831 119.128C353.252 119.128 351.823 118.765 350.543 118.04C349.284 117.315 348.292 116.312 347.567 115.032C346.841 113.731 346.479 112.269 346.479 110.648C346.479 109.027 346.841 107.576 347.567 106.296C348.292 104.995 349.284 103.981 350.543 103.256C351.823 102.531 353.252 102.168 354.831 102.168C356.409 102.168 357.828 102.531 359.087 103.256C360.367 103.981 361.369 104.995 362.095 106.296C362.82 107.576 363.183 109.027 363.183 110.648C363.183 112.269 362.82 113.731 362.095 115.032C361.369 116.312 360.367 117.315 359.087 118.04C357.828 118.765 356.409 119.128 354.831 119.128ZM354.831 117.688C356.111 117.688 357.252 117.389 358.255 116.792C359.279 116.195 360.079 115.363 360.655 114.296C361.252 113.229 361.551 112.013 361.551 110.648C361.551 109.283 361.252 108.067 360.655 107C360.079 105.933 359.279 105.101 358.255 104.504C357.252 103.907 356.111 103.608 354.831 103.608C353.551 103.608 352.399 103.907 351.375 104.504C350.372 105.101 349.572 105.933 348.975 107C348.399 108.067 348.111 109.283 348.111 110.648C348.111 112.013 348.399 113.229 348.975 114.296C349.572 115.363 350.372 116.195 351.375 116.792C352.399 117.389 353.551 117.688 354.831 117.688ZM375.146 119.128C373.524 119.128 372.074 118.765 370.794 118.04C369.514 117.315 368.511 116.312 367.786 115.032C367.06 113.731 366.698 112.269 366.698 110.648C366.698 109.005 367.06 107.544 367.786 106.264C368.511 104.963 369.514 103.96 370.794 103.256C372.074 102.531 373.524 102.168 375.146 102.168C376.49 102.168 377.706 102.435 378.794 102.968C379.903 103.48 380.799 104.237 381.482 105.24L380.298 106.104C379.7 105.272 378.954 104.653 378.058 104.248C377.183 103.821 376.212 103.608 375.146 103.608C373.844 103.608 372.671 103.907 371.626 104.504C370.602 105.08 369.791 105.901 369.194 106.968C368.618 108.035 368.33 109.261 368.33 110.648C368.33 112.035 368.618 113.261 369.194 114.328C369.791 115.395 370.602 116.227 371.626 116.824C372.671 117.4 373.844 117.688 375.146 117.688C376.212 117.688 377.183 117.485 378.058 117.08C378.954 116.653 379.7 116.024 380.298 115.192L381.482 116.056C380.799 117.059 379.903 117.827 378.794 118.36C377.706 118.872 376.49 119.128 375.146 119.128ZM407.006 102.168C409.075 102.168 410.697 102.776 411.87 103.992C413.065 105.208 413.662 106.957 413.662 109.24V119H412.062V109.368C412.062 107.491 411.603 106.061 410.686 105.08C409.769 104.099 408.489 103.608 406.846 103.608C404.969 103.608 403.475 104.195 402.366 105.368C401.278 106.541 400.734 108.12 400.734 110.104V119H399.134V109.368C399.134 107.491 398.675 106.061 397.758 105.08C396.841 104.099 395.561 103.608 393.918 103.608C392.041 103.608 390.547 104.195 389.438 105.368C388.35 106.541 387.806 108.12 387.806 110.104V119H386.206V102.296H387.742V105.88C388.297 104.707 389.118 103.8 390.206 103.16C391.315 102.499 392.627 102.168 394.142 102.168C395.657 102.168 396.937 102.509 397.982 103.192C399.049 103.875 399.806 104.877 400.254 106.2C400.809 104.963 401.673 103.981 402.846 103.256C404.041 102.531 405.427 102.168 407.006 102.168ZM426.547 119.32C424.328 119.32 422.6 118.765 421.363 117.656C420.147 116.525 419.539 114.957 419.539 112.952V102.296H421.139V109.688C421.693 108.92 422.451 108.323 423.411 107.896C424.392 107.448 425.523 107.224 426.803 107.224C428.893 107.224 430.515 107.757 431.667 108.824C432.819 109.869 433.395 111.267 433.395 113.016C433.395 114.232 433.117 115.32 432.562 116.28C432.029 117.24 431.24 117.987 430.195 118.52C429.171 119.053 427.955 119.32 426.547 119.32ZM426.579 118.04C428.179 118.04 429.437 117.571 430.355 116.632C431.293 115.693 431.763 114.499 431.763 113.048C431.763 111.683 431.304 110.584 430.387 109.752C429.469 108.899 428.168 108.472 426.483 108.472C425.245 108.472 424.157 108.739 423.219 109.272C422.301 109.784 421.608 110.499 421.139 111.416V113.016C421.139 114.573 421.619 115.8 422.579 116.696C423.539 117.592 424.872 118.04 426.579 118.04ZM452.128 102.168C453.685 102.168 455.082 102.531 456.32 103.256C457.557 103.96 458.528 104.963 459.232 106.264C459.936 107.544 460.288 109.005 460.288 110.648C460.288 112.269 459.936 113.731 459.232 115.032C458.528 116.312 457.557 117.315 456.32 118.04C455.082 118.765 453.685 119.128 452.128 119.128C450.634 119.128 449.28 118.797 448.064 118.136C446.869 117.475 445.909 116.547 445.184 115.352C444.48 114.157 444.085 112.792 444 111.256H439.744V119H438.144V102.296H439.744V109.784H444C444.128 108.291 444.554 106.968 445.28 105.816C446.005 104.664 446.965 103.768 448.16 103.128C449.354 102.488 450.677 102.168 452.128 102.168ZM452.128 117.72C453.365 117.72 454.485 117.421 455.488 116.824C456.49 116.227 457.269 115.395 457.824 114.328C458.4 113.24 458.688 112.013 458.688 110.648C458.688 109.261 458.4 108.035 457.824 106.968C457.269 105.901 456.49 105.08 455.488 104.504C454.485 103.907 453.365 103.608 452.128 103.608C450.89 103.608 449.77 103.907 448.768 104.504C447.765 105.08 446.976 105.901 446.4 106.968C445.845 108.035 445.568 109.261 445.568 110.648C445.568 112.013 445.845 113.24 446.4 114.328C446.976 115.395 447.765 116.227 448.768 116.824C449.77 117.421 450.89 117.72 452.128 117.72ZM491.945 102.296V119H490.473V104.856L483.209 116.856H482.473L475.241 104.888V119H473.769V102.296H475.337L482.889 114.936L490.473 102.296H491.945ZM513.646 102.296V119H512.078V115.064C511.417 116.365 510.489 117.368 509.294 118.072C508.1 118.776 506.745 119.128 505.23 119.128C503.673 119.128 502.265 118.765 501.006 118.04C499.748 117.315 498.756 116.312 498.03 115.032C497.326 113.752 496.974 112.291 496.974 110.648C496.974 109.005 497.326 107.544 498.03 106.264C498.756 104.963 499.748 103.96 501.006 103.256C502.265 102.531 503.673 102.168 505.23 102.168C506.724 102.168 508.057 102.52 509.23 103.224C510.425 103.928 511.364 104.909 512.046 106.168V102.296H513.646ZM505.326 117.688C506.606 117.688 507.748 117.389 508.75 116.792C509.774 116.195 510.574 115.363 511.15 114.296C511.748 113.229 512.046 112.013 512.046 110.648C512.046 109.283 511.748 108.067 511.15 107C510.574 105.933 509.774 105.101 508.75 104.504C507.748 103.907 506.606 103.608 505.326 103.608C504.046 103.608 502.894 103.907 501.87 104.504C500.868 105.101 500.068 105.933 499.47 107C498.894 108.067 498.606 109.283 498.606 110.648C498.606 112.013 498.894 113.229 499.47 114.296C500.068 115.363 500.868 116.195 501.87 116.792C502.894 117.389 504.046 117.688 505.326 117.688ZM527.208 119.128C525.587 119.128 524.136 118.765 522.856 118.04C521.576 117.315 520.573 116.312 519.848 115.032C519.123 113.731 518.76 112.269 518.76 110.648C518.76 109.005 519.123 107.544 519.848 106.264C520.573 104.963 521.576 103.96 522.856 103.256C524.136 102.531 525.587 102.168 527.208 102.168C528.552 102.168 529.768 102.435 530.856 102.968C531.965 103.48 532.861 104.237 533.544 105.24L532.36 106.104C531.763 105.272 531.016 104.653 530.12 104.248C529.245 103.821 528.275 103.608 527.208 103.608C525.907 103.608 524.733 103.907 523.688 104.504C522.664 105.08 521.853 105.901 521.256 106.968C520.68 108.035 520.392 109.261 520.392 110.648C520.392 112.035 520.68 113.261 521.256 114.328C521.853 115.395 522.664 116.227 523.688 116.824C524.733 117.4 525.907 117.688 527.208 117.688C528.275 117.688 529.245 117.485 530.12 117.08C531.016 116.653 531.763 116.024 532.36 115.192L533.544 116.056C532.861 117.059 531.965 117.827 530.856 118.36C529.768 118.872 528.552 119.128 527.208 119.128ZM544.643 119.128C543.065 119.128 541.635 118.765 540.355 118.04C539.097 117.315 538.105 116.312 537.379 115.032C536.654 113.731 536.291 112.269 536.291 110.648C536.291 109.027 536.654 107.576 537.379 106.296C538.105 104.995 539.097 103.981 540.355 103.256C541.635 102.531 543.065 102.168 544.643 102.168C546.222 102.168 547.641 102.531 548.899 103.256C550.179 103.981 551.182 104.995 551.907 106.296C552.633 107.576 552.995 109.027 552.995 110.648C552.995 112.269 552.633 113.731 551.907 115.032C551.182 116.312 550.179 117.315 548.899 118.04C547.641 118.765 546.222 119.128 544.643 119.128ZM544.643 117.688C545.923 117.688 547.065 117.389 548.067 116.792C549.091 116.195 549.891 115.363 550.467 114.296C551.065 113.229 551.363 112.013 551.363 110.648C551.363 109.283 551.065 108.067 550.467 107C549.891 105.933 549.091 105.101 548.067 104.504C547.065 103.907 545.923 103.608 544.643 103.608C543.363 103.608 542.211 103.907 541.187 104.504C540.185 105.101 539.385 105.933 538.787 107C538.211 108.067 537.923 109.283 537.923 110.648C537.923 112.013 538.211 113.229 538.787 114.296C539.385 115.363 540.185 116.195 541.187 116.792C542.211 117.389 543.363 117.688 544.643 117.688ZM558.206 102.296H559.806V109.912H571.134V102.296H572.734V119H571.134V111.32H559.806V119H558.206V102.296ZM586.396 119.128C584.774 119.128 583.324 118.765 582.044 118.04C580.764 117.315 579.761 116.312 579.036 115.032C578.31 113.731 577.948 112.269 577.948 110.648C577.948 109.005 578.31 107.544 579.036 106.264C579.761 104.963 580.764 103.96 582.044 103.256C583.324 102.531 584.774 102.168 586.396 102.168C587.74 102.168 588.956 102.435 590.044 102.968C591.153 103.48 592.049 104.237 592.732 105.24L591.548 106.104C590.95 105.272 590.204 104.653 589.308 104.248C588.433 103.821 587.462 103.608 586.396 103.608C585.094 103.608 583.921 103.907 582.876 104.504C581.852 105.08 581.041 105.901 580.444 106.968C579.868 108.035 579.58 109.261 579.58 110.648C579.58 112.035 579.868 113.261 580.444 114.328C581.041 115.395 581.852 116.227 582.876 116.824C583.921 117.4 585.094 117.688 586.396 117.688C587.462 117.688 588.433 117.485 589.308 117.08C590.204 116.653 590.95 116.024 591.548 115.192L592.732 116.056C592.049 117.059 591.153 117.827 590.044 118.36C588.956 118.872 587.74 119.128 586.396 119.128ZM618.256 102.168C620.325 102.168 621.947 102.776 623.12 103.992C624.315 105.208 624.912 106.957 624.912 109.24V119H623.312V109.368C623.312 107.491 622.853 106.061 621.936 105.08C621.019 104.099 619.739 103.608 618.096 103.608C616.219 103.608 614.725 104.195 613.616 105.368C612.528 106.541 611.984 108.12 611.984 110.104V119H610.384V109.368C610.384 107.491 609.925 106.061 609.008 105.08C608.091 104.099 606.811 103.608 605.168 103.608C603.291 103.608 601.797 104.195 600.688 105.368C599.6 106.541 599.056 108.12 599.056 110.104V119H597.456V102.296H598.992V105.88C599.547 104.707 600.368 103.8 601.456 103.16C602.565 102.499 603.877 102.168 605.392 102.168C606.907 102.168 608.187 102.509 609.232 103.192C610.299 103.875 611.056 104.877 611.504 106.2C612.059 104.963 612.923 103.981 614.096 103.256C615.291 102.531 616.677 102.168 618.256 102.168ZM641.157 110.392C643.61 110.819 644.837 112.195 644.837 114.52C644.837 115.971 644.303 117.08 643.237 117.848C642.191 118.616 640.613 119 638.501 119H631.269V102.296H638.309C640.165 102.296 641.615 102.669 642.661 103.416C643.727 104.141 644.26 105.187 644.26 106.552C644.26 107.533 643.983 108.355 643.429 109.016C642.895 109.656 642.138 110.115 641.157 110.392ZM632.837 109.912H638.213C639.642 109.912 640.741 109.645 641.509 109.112C642.277 108.557 642.661 107.768 642.661 106.744C642.661 105.699 642.277 104.92 641.509 104.408C640.762 103.875 639.663 103.608 638.213 103.608H632.837V109.912ZM638.469 117.688C641.647 117.688 643.237 116.611 643.237 114.456C643.237 113.325 642.874 112.493 642.149 111.96C641.423 111.427 640.282 111.16 638.725 111.16H632.837V117.688H638.469Z" fill="#949494"/>
</svg>
