<svg width="179" height="151" viewBox="0 0 179 151" fill="none" xmlns="http://www.w3.org/2000/svg">
<path d="M2.73928 6.2H5.81128V18.128L14.8353 6.2H17.7393V23H14.6673V11.096L5.64328 23H2.73928V6.2ZM22.1137 10.184H25.1137V15.392H31.5697V10.184H34.5697V23H31.5697V17.936H25.1137V23H22.1137V10.184ZM55.5342 16.568C55.5342 18.552 54.8702 20.112 53.5422 21.248C52.2302 22.384 50.3502 23.032 47.9022 23.192V27.656H45.0702V23.216C42.6222 23.056 40.7422 22.408 39.4302 21.272C38.1182 20.136 37.4622 18.568 37.4622 16.568C37.4622 14.584 38.1182 13.04 39.4302 11.936C40.7422 10.816 42.6222 10.176 45.0702 10.016V5.192H47.9022V10.016C50.3502 10.176 52.2302 10.816 53.5422 11.936C54.8702 13.056 55.5342 14.6 55.5342 16.568ZM40.4142 16.568C40.4142 17.8 40.7902 18.76 41.5422 19.448C42.3102 20.136 43.4862 20.552 45.0702 20.696V12.56C43.4862 12.688 42.3102 13.088 41.5422 13.76C40.7902 14.432 40.4142 15.368 40.4142 16.568ZM47.9022 20.696C51.0382 20.408 52.6062 19.032 52.6062 16.568C52.6062 15.352 52.2142 14.416 51.4302 13.76C50.6622 13.088 49.4862 12.688 47.9022 12.56V20.696ZM64.1538 23.168C62.8578 23.168 61.6898 22.888 60.6498 22.328C59.6098 21.768 58.7938 20.992 58.2018 20C57.6258 18.992 57.3378 17.856 57.3378 16.592C57.3378 15.328 57.6258 14.2 58.2018 13.208C58.7938 12.216 59.6098 11.44 60.6498 10.88C61.6898 10.32 62.8578 10.04 64.1538 10.04C65.4658 10.04 66.6418 10.32 67.6818 10.88C68.7218 11.44 69.5298 12.216 70.1058 13.208C70.6978 14.2 70.9938 15.328 70.9938 16.592C70.9938 17.856 70.6978 18.992 70.1058 20C69.5298 20.992 68.7218 21.768 67.6818 22.328C66.6418 22.888 65.4658 23.168 64.1538 23.168ZM64.1538 20.6C65.2578 20.6 66.1698 20.232 66.8898 19.496C67.6098 18.76 67.9698 17.792 67.9698 16.592C67.9698 15.392 67.6098 14.424 66.8898 13.688C66.1698 12.952 65.2578 12.584 64.1538 12.584C63.0498 12.584 62.1378 12.952 61.4178 13.688C60.7138 14.424 60.3618 15.392 60.3618 16.592C60.3618 17.792 60.7138 18.76 61.4178 19.496C62.1378 20.232 63.0498 20.6 64.1538 20.6ZM81.0614 10.04C82.3094 10.04 83.4214 10.312 84.3974 10.856C85.3894 11.4 86.1654 12.168 86.7254 13.16C87.2854 14.152 87.5654 15.296 87.5654 16.592C87.5654 17.888 87.2854 19.04 86.7254 20.048C86.1654 21.04 85.3894 21.808 84.3974 22.352C83.4214 22.896 82.3094 23.168 81.0614 23.168C79.3334 23.168 77.9654 22.592 76.9574 21.44V27.656H73.9574V10.184H76.8134V11.864C77.3094 11.256 77.9174 10.8 78.6374 10.496C79.3734 10.192 80.1814 10.04 81.0614 10.04ZM80.7254 20.6C81.8294 20.6 82.7334 20.232 83.4374 19.496C84.1574 18.76 84.5174 17.792 84.5174 16.592C84.5174 15.392 84.1574 14.424 83.4374 13.688C82.7334 12.952 81.8294 12.584 80.7254 12.584C80.0054 12.584 79.3574 12.752 78.7814 13.088C78.2054 13.408 77.7494 13.872 77.4134 14.48C77.0774 15.088 76.9094 15.792 76.9094 16.592C76.9094 17.392 77.0774 18.096 77.4134 18.704C77.7494 19.312 78.2054 19.784 78.7814 20.12C79.3574 20.44 80.0054 20.6 80.7254 20.6ZM103.151 23V14.504L98.8312 21.656H97.5352L93.2872 14.48V23H90.5512V10.184H93.6952L98.2552 18.2L103.031 10.184H105.839L105.863 23H103.151ZM114.663 10.04C116.551 10.04 117.991 10.496 118.983 11.408C119.991 12.304 120.495 13.664 120.495 15.488V23H117.663V21.44C117.295 22 116.767 22.432 116.079 22.736C115.407 23.024 114.591 23.168 113.631 23.168C112.671 23.168 111.831 23.008 111.111 22.688C110.391 22.352 109.831 21.896 109.431 21.32C109.047 20.728 108.855 20.064 108.855 19.328C108.855 18.176 109.279 17.256 110.127 16.568C110.991 15.864 112.343 15.512 114.183 15.512H117.495V15.32C117.495 14.424 117.223 13.736 116.679 13.256C116.151 12.776 115.359 12.536 114.303 12.536C113.583 12.536 112.871 12.648 112.167 12.872C111.479 13.096 110.895 13.408 110.415 13.808L109.239 11.624C109.911 11.112 110.719 10.72 111.663 10.448C112.607 10.176 113.607 10.04 114.663 10.04ZM114.255 20.984C115.007 20.984 115.671 20.816 116.247 20.48C116.839 20.128 117.255 19.632 117.495 18.992V17.504H114.399C112.671 17.504 111.807 18.072 111.807 19.208C111.807 19.752 112.023 20.184 112.455 20.504C112.887 20.824 113.487 20.984 114.255 20.984ZM138.271 20.456V25.952H135.463V23H124.207V10.184H127.207V20.456H133.327V10.184H136.327V20.456H138.271ZM140.942 10.184H143.942V18.632L151.022 10.184H153.758V23H150.758V14.552L143.702 23H140.942V10.184ZM168.617 10.184V23H165.929V19.136H162.545L159.929 23H156.713L159.737 18.728C158.809 18.408 158.097 17.92 157.601 17.264C157.121 16.592 156.881 15.768 156.881 14.792C156.881 13.32 157.401 12.184 158.441 11.384C159.481 10.584 160.913 10.184 162.737 10.184H168.617ZM162.833 12.704C160.897 12.704 159.929 13.432 159.929 14.888C159.929 16.328 160.865 17.048 162.737 17.048H165.929V12.704H162.833Z" fill="white"/>
<path d="M6.01406 57.864H3.45406V63H2.30206V51.8H3.45406V56.824H6.01406L9.80606 51.8H11.0861L6.92606 57.24L11.3261 63H9.96606L6.01406 57.864ZM20.4281 54.584V63H19.3401V61.336C18.9987 61.9013 18.5454 62.3333 17.9801 62.632C17.4254 62.9307 16.7961 63.08 16.0921 63.08C15.3027 63.08 14.5881 62.8987 13.9481 62.536C13.3081 62.1733 12.8067 61.6667 12.4441 61.016C12.0814 60.3653 11.9001 59.624 11.9001 58.792C11.9001 57.96 12.0814 57.2187 12.4441 56.568C12.8067 55.9173 13.3081 55.416 13.9481 55.064C14.5881 54.7013 15.3027 54.52 16.0921 54.52C16.7747 54.52 17.3881 54.664 17.9321 54.952C18.4867 55.2293 18.9401 55.64 19.2921 56.184V54.584H20.4281ZM16.1881 62.072C16.7747 62.072 17.3027 61.9387 17.7721 61.672C18.2521 61.3947 18.6254 61.0053 18.8921 60.504C19.1694 60.0027 19.3081 59.432 19.3081 58.792C19.3081 58.152 19.1694 57.5813 18.8921 57.08C18.6254 56.5787 18.2521 56.1947 17.7721 55.928C17.3027 55.6507 16.7747 55.512 16.1881 55.512C15.5907 55.512 15.0521 55.6507 14.5721 55.928C14.1027 56.1947 13.7294 56.5787 13.4521 57.08C13.1854 57.5813 13.0521 58.152 13.0521 58.792C13.0521 59.432 13.1854 60.0027 13.4521 60.504C13.7294 61.0053 14.1027 61.3947 14.5721 61.672C15.0521 61.9387 15.5907 62.072 16.1881 62.072ZM34.1198 54.52C35.1758 54.52 36.0025 54.824 36.5998 55.432C37.2078 56.04 37.5118 56.936 37.5118 58.12V63H36.3758V58.232C36.3758 57.3573 36.1625 56.6907 35.7358 56.232C35.3198 55.7733 34.7278 55.544 33.9598 55.544C33.0851 55.544 32.3971 55.816 31.8958 56.36C31.3945 56.8933 31.1438 57.6347 31.1438 58.584V63H30.0078V58.232C30.0078 57.3573 29.7945 56.6907 29.3678 56.232C28.9518 55.7733 28.3545 55.544 27.5758 55.544C26.7118 55.544 26.0238 55.816 25.5118 56.36C25.0105 56.8933 24.7598 57.6347 24.7598 58.584V63H23.6238V54.584H24.7118V56.12C25.0105 55.608 25.4265 55.2133 25.9598 54.936C26.4931 54.6587 27.1065 54.52 27.7998 54.52C28.5038 54.52 29.1118 54.6693 29.6238 54.968C30.1465 55.2667 30.5358 55.7093 30.7918 56.296C31.1011 55.7413 31.5438 55.3093 32.1198 55C32.7065 54.68 33.3731 54.52 34.1198 54.52ZM48.1312 54.584V63H47.0432V61.336C46.7019 61.9013 46.2485 62.3333 45.6832 62.632C45.1285 62.9307 44.4992 63.08 43.7952 63.08C43.0059 63.08 42.2912 62.8987 41.6512 62.536C41.0112 62.1733 40.5099 61.6667 40.1472 61.016C39.7845 60.3653 39.6032 59.624 39.6032 58.792C39.6032 57.96 39.7845 57.2187 40.1472 56.568C40.5099 55.9173 41.0112 55.416 41.6512 55.064C42.2912 54.7013 43.0059 54.52 43.7952 54.52C44.4779 54.52 45.0912 54.664 45.6352 54.952C46.1899 55.2293 46.6432 55.64 46.9952 56.184V54.584H48.1312ZM43.8912 62.072C44.4779 62.072 45.0059 61.9387 45.4752 61.672C45.9552 61.3947 46.3285 61.0053 46.5952 60.504C46.8725 60.0027 47.0112 59.432 47.0112 58.792C47.0112 58.152 46.8725 57.5813 46.5952 57.08C46.3285 56.5787 45.9552 56.1947 45.4752 55.928C45.0059 55.6507 44.4779 55.512 43.8912 55.512C43.2939 55.512 42.7552 55.6507 42.2752 55.928C41.8059 56.1947 41.4325 56.5787 41.1552 57.08C40.8885 57.5813 40.7552 58.152 40.7552 58.792C40.7552 59.432 40.8885 60.0027 41.1552 60.504C41.4325 61.0053 41.8059 61.3947 42.2752 61.672C42.7552 61.9387 43.2939 62.072 43.8912 62.072ZM58.2069 54.584V63H57.0709V55.592H53.0389L52.9269 57.672C52.8416 59.4213 52.6389 60.7653 52.3189 61.704C51.9989 62.6427 51.4283 63.112 50.6069 63.112C50.3829 63.112 50.1109 63.0693 49.7909 62.984L49.8709 62.008C50.0629 62.0507 50.1963 62.072 50.2709 62.072C50.7083 62.072 51.0389 61.8693 51.2629 61.464C51.4869 61.0587 51.6363 60.5573 51.7109 59.96C51.7856 59.3627 51.8496 58.5733 51.9029 57.592L52.0469 54.584H58.2069ZM64.9083 63.08C64.0976 63.08 63.367 62.8987 62.7163 62.536C62.0656 62.1627 61.5536 61.6507 61.1803 61C60.807 60.3493 60.6203 59.6133 60.6203 58.792C60.6203 57.9707 60.807 57.2347 61.1803 56.584C61.5536 55.9333 62.0656 55.4267 62.7163 55.064C63.367 54.7013 64.0976 54.52 64.9083 54.52C65.719 54.52 66.4496 54.7013 67.1003 55.064C67.751 55.4267 68.2576 55.9333 68.6203 56.584C68.9936 57.2347 69.1803 57.9707 69.1803 58.792C69.1803 59.6133 68.9936 60.3493 68.6203 61C68.2576 61.6507 67.751 62.1627 67.1003 62.536C66.4496 62.8987 65.719 63.08 64.9083 63.08ZM64.9083 62.072C65.5056 62.072 66.039 61.9387 66.5083 61.672C66.9883 61.3947 67.3616 61.0053 67.6283 60.504C67.895 60.0027 68.0283 59.432 68.0283 58.792C68.0283 58.152 67.895 57.5813 67.6283 57.08C67.3616 56.5787 66.9883 56.1947 66.5083 55.928C66.039 55.6507 65.5056 55.512 64.9083 55.512C64.311 55.512 63.7723 55.6507 63.2923 55.928C62.823 56.1947 62.4496 56.5787 62.1723 57.08C61.9056 57.5813 61.7723 58.152 61.7723 58.792C61.7723 59.432 61.9056 60.0027 62.1723 60.504C62.4496 61.0053 62.823 61.3947 63.2923 61.672C63.7723 61.9387 64.311 62.072 64.9083 62.072ZM77.5602 55.592H72.7442V63H71.6082V54.584H77.5602V55.592Z" fill="#B7B7B7"/>
<path d="M7.07344 91.096C5.9641 91.096 4.9561 90.8507 4.04944 90.36C3.15344 89.8587 2.44944 89.176 1.93744 88.312C1.4361 87.448 1.18544 86.4773 1.18544 85.4C1.18544 84.3227 1.4361 83.352 1.93744 82.488C2.44944 81.624 3.15344 80.9467 4.04944 80.456C4.9561 79.9547 5.9641 79.704 7.07344 79.704C8.18277 79.704 9.1801 79.9493 10.0654 80.44C10.9614 80.9307 11.6654 81.6133 12.1774 82.488C12.6894 83.352 12.9454 84.3227 12.9454 85.4C12.9454 86.4773 12.6894 87.4533 12.1774 88.328C11.6654 89.192 10.9614 89.8693 10.0654 90.36C9.1801 90.8507 8.18277 91.096 7.07344 91.096ZM7.07344 90.04C7.95877 90.04 8.75877 89.8427 9.47344 89.448C10.1881 89.0427 10.7481 88.488 11.1534 87.784C11.5588 87.0693 11.7614 86.2747 11.7614 85.4C11.7614 84.5253 11.5588 83.736 11.1534 83.032C10.7481 82.3173 10.1881 81.7627 9.47344 81.368C8.75877 80.9627 7.95877 80.76 7.07344 80.76C6.1881 80.76 5.38277 80.9627 4.65744 81.368C3.94277 81.7627 3.37744 82.3173 2.96144 83.032C2.5561 83.736 2.35344 84.5253 2.35344 85.4C2.35344 86.2747 2.5561 87.0693 2.96144 87.784C3.37744 88.488 3.94277 89.0427 4.65744 89.448C5.38277 89.8427 6.1881 90.04 7.07344 90.04ZM19.6863 82.584H20.8223V86.312H26.1183V82.584H27.2543V91H26.1183V87.288H20.8223V91H19.6863V82.584ZM38.1312 82.584V91H37.0432V89.336C36.7019 89.9013 36.2485 90.3333 35.6832 90.632C35.1285 90.9307 34.4992 91.08 33.7952 91.08C33.0059 91.08 32.2912 90.8987 31.6512 90.536C31.0112 90.1733 30.5099 89.6667 30.1472 89.016C29.7845 88.3653 29.6032 87.624 29.6032 86.792C29.6032 85.96 29.7845 85.2187 30.1472 84.568C30.5099 83.9173 31.0112 83.416 31.6512 83.064C32.2912 82.7013 33.0059 82.52 33.7952 82.52C34.4779 82.52 35.0912 82.664 35.6352 82.952C36.1899 83.2293 36.6432 83.64 36.9952 84.184V82.584H38.1312ZM33.8912 90.072C34.4779 90.072 35.0059 89.9387 35.4752 89.672C35.9552 89.3947 36.3285 89.0053 36.5952 88.504C36.8725 88.0027 37.0112 87.432 37.0112 86.792C37.0112 86.152 36.8725 85.5813 36.5952 85.08C36.3285 84.5787 35.9552 84.1947 35.4752 83.928C35.0059 83.6507 34.4779 83.512 33.8912 83.512C33.2939 83.512 32.7552 83.6507 32.2752 83.928C31.8059 84.1947 31.4325 84.5787 31.1552 85.08C30.8885 85.5813 30.7552 86.152 30.7552 86.792C30.7552 87.432 30.8885 88.0027 31.1552 88.504C31.4325 89.0053 31.8059 89.3947 32.2752 89.672C32.7552 89.9387 33.2939 90.072 33.8912 90.072ZM44.8469 91.08C44.0149 91.08 43.2683 90.8987 42.6069 90.536C41.9563 90.1733 41.4443 89.6667 41.0709 89.016C40.6976 88.3547 40.5109 87.6133 40.5109 86.792C40.5109 85.9707 40.6976 85.2347 41.0709 84.584C41.4443 83.9333 41.9563 83.4267 42.6069 83.064C43.2683 82.7013 44.0149 82.52 44.8469 82.52C45.5723 82.52 46.2176 82.664 46.7829 82.952C47.3589 83.2293 47.8123 83.64 48.1429 84.184L47.2949 84.76C47.0176 84.344 46.6656 84.0347 46.2389 83.832C45.8123 83.6187 45.3483 83.512 44.8469 83.512C44.2389 83.512 43.6896 83.6507 43.1989 83.928C42.7189 84.1947 42.3403 84.5787 42.0629 85.08C41.7963 85.5813 41.6629 86.152 41.6629 86.792C41.6629 87.4427 41.7963 88.0187 42.0629 88.52C42.3403 89.0107 42.7189 89.3947 43.1989 89.672C43.6896 89.9387 44.2389 90.072 44.8469 90.072C45.3483 90.072 45.8123 89.9707 46.2389 89.768C46.6656 89.5653 47.0176 89.256 47.2949 88.84L48.1429 89.416C47.8123 89.96 47.3589 90.376 46.7829 90.664C46.2069 90.9413 45.5616 91.08 44.8469 91.08Z" fill="#B7B7B7"/>
<path d="M13.095 117.976V121.512H11.991V119H2.039L2.023 121.512H0.919L0.935 117.976H2.343V112.52C2.343 110.963 2.759 109.773 3.591 108.952C4.43367 108.12 5.575 107.704 7.015 107.704C8.455 107.704 9.591 108.12 10.423 108.952C11.2657 109.773 11.687 110.963 11.687 112.52V117.976H13.095ZM10.503 117.976V112.408C10.503 111.203 10.1937 110.296 9.575 109.688C8.967 109.069 8.11367 108.76 7.015 108.76C5.90567 108.76 5.04167 109.069 4.423 109.688C3.815 110.296 3.511 111.203 3.511 112.408V117.976H10.503ZM18.6193 119.08C17.8086 119.08 17.0779 118.899 16.4273 118.536C15.7766 118.163 15.2646 117.651 14.8913 117C14.5179 116.349 14.3313 115.613 14.3313 114.792C14.3313 113.971 14.5179 113.235 14.8913 112.584C15.2646 111.933 15.7766 111.427 16.4273 111.064C17.0779 110.701 17.8086 110.52 18.6193 110.52C19.4299 110.52 20.1606 110.701 20.8113 111.064C21.4619 111.427 21.9686 111.933 22.3313 112.584C22.7046 113.235 22.8913 113.971 22.8913 114.792C22.8913 115.613 22.7046 116.349 22.3313 117C21.9686 117.651 21.4619 118.163 20.8113 118.536C20.1606 118.899 19.4299 119.08 18.6193 119.08ZM18.6193 118.072C19.2166 118.072 19.7499 117.939 20.2193 117.672C20.6993 117.395 21.0726 117.005 21.3393 116.504C21.6059 116.003 21.7393 115.432 21.7393 114.792C21.7393 114.152 21.6059 113.581 21.3393 113.08C21.0726 112.579 20.6993 112.195 20.2193 111.928C19.7499 111.651 19.2166 111.512 18.6193 111.512C18.0219 111.512 17.4833 111.651 17.0033 111.928C16.5339 112.195 16.1606 112.579 15.8832 113.08C15.6166 113.581 15.4833 114.152 15.4833 114.792C15.4833 115.432 15.6166 116.003 15.8832 116.504C16.1606 117.005 16.5339 117.395 17.0033 117.672C17.4833 117.939 18.0219 118.072 18.6193 118.072ZM28.8391 119.08C28.0071 119.08 27.2605 118.899 26.5991 118.536C25.9485 118.173 25.4365 117.667 25.0631 117.016C24.6898 116.355 24.5031 115.613 24.5031 114.792C24.5031 113.971 24.6898 113.235 25.0631 112.584C25.4365 111.933 25.9485 111.427 26.5991 111.064C27.2605 110.701 28.0071 110.52 28.8391 110.52C29.5645 110.52 30.2098 110.664 30.7751 110.952C31.3511 111.229 31.8045 111.64 32.1351 112.184L31.2871 112.76C31.0098 112.344 30.6578 112.035 30.2311 111.832C29.8045 111.619 29.3405 111.512 28.8391 111.512C28.2311 111.512 27.6818 111.651 27.1911 111.928C26.7111 112.195 26.3325 112.579 26.0551 113.08C25.7885 113.581 25.6551 114.152 25.6551 114.792C25.6551 115.443 25.7885 116.019 26.0551 116.52C26.3325 117.011 26.7111 117.395 27.1911 117.672C27.6818 117.939 28.2311 118.072 28.8391 118.072C29.3405 118.072 29.8045 117.971 30.2311 117.768C30.6578 117.565 31.0098 117.256 31.2871 116.84L32.1351 117.416C31.8045 117.96 31.3511 118.376 30.7751 118.664C30.1991 118.941 29.5538 119.08 28.8391 119.08ZM44.8308 110.52C45.8868 110.52 46.7134 110.824 47.3108 111.432C47.9188 112.04 48.2228 112.936 48.2228 114.12V119H47.0868V114.232C47.0868 113.357 46.8734 112.691 46.4468 112.232C46.0308 111.773 45.4388 111.544 44.6708 111.544C43.7961 111.544 43.1081 111.816 42.6068 112.36C42.1054 112.893 41.8548 113.635 41.8548 114.584V119H40.7188V114.232C40.7188 113.357 40.5054 112.691 40.0788 112.232C39.6628 111.773 39.0654 111.544 38.2868 111.544C37.4228 111.544 36.7348 111.816 36.2228 112.36C35.7214 112.893 35.4708 113.635 35.4708 114.584V119H34.3348V110.584H35.4228V112.12C35.7214 111.608 36.1374 111.213 36.6708 110.936C37.2041 110.659 37.8174 110.52 38.5108 110.52C39.2148 110.52 39.8228 110.669 40.3348 110.968C40.8574 111.267 41.2468 111.709 41.5028 112.296C41.8121 111.741 42.2548 111.309 42.8308 111C43.4174 110.68 44.0841 110.52 44.8308 110.52ZM58.8421 110.584V119H57.7541V117.336C57.4128 117.901 56.9595 118.333 56.3941 118.632C55.8395 118.931 55.2101 119.08 54.5061 119.08C53.7168 119.08 53.0021 118.899 52.3621 118.536C51.7221 118.173 51.2208 117.667 50.8581 117.016C50.4955 116.365 50.3141 115.624 50.3141 114.792C50.3141 113.96 50.4955 113.219 50.8581 112.568C51.2208 111.917 51.7221 111.416 52.3621 111.064C53.0021 110.701 53.7168 110.52 54.5061 110.52C55.1888 110.52 55.8021 110.664 56.3461 110.952C56.9008 111.229 57.3541 111.64 57.7061 112.184V110.584H58.8421ZM54.6021 118.072C55.1888 118.072 55.7168 117.939 56.1861 117.672C56.6661 117.395 57.0395 117.005 57.3061 116.504C57.5835 116.003 57.7221 115.432 57.7221 114.792C57.7221 114.152 57.5835 113.581 57.3061 113.08C57.0395 112.579 56.6661 112.195 56.1861 111.928C55.7168 111.651 55.1888 111.512 54.6021 111.512C54.0048 111.512 53.4661 111.651 52.9861 111.928C52.5168 112.195 52.1435 112.579 51.8661 113.08C51.5995 113.581 51.4661 114.152 51.4661 114.792C51.4661 115.432 51.5995 116.003 51.8661 116.504C52.1435 117.005 52.5168 117.395 52.9861 117.672C53.4661 117.939 54.0048 118.072 54.6021 118.072ZM67.3979 114.648C68.5392 114.915 69.1099 115.603 69.1099 116.712C69.1099 117.448 68.8379 118.013 68.2939 118.408C67.7499 118.803 66.9392 119 65.8619 119H62.0379V110.584H65.7499C66.7099 110.584 67.4619 110.771 68.0059 111.144C68.5499 111.517 68.8219 112.051 68.8219 112.744C68.8219 113.203 68.6939 113.597 68.4379 113.928C68.1925 114.248 67.8459 114.488 67.3979 114.648ZM63.1419 114.328H65.6699C66.3205 114.328 66.8165 114.205 67.1579 113.96C67.5099 113.715 67.6859 113.357 67.6859 112.888C67.6859 112.419 67.5099 112.067 67.1579 111.832C66.8165 111.597 66.3205 111.48 65.6699 111.48H63.1419V114.328ZM65.8139 118.104C66.5392 118.104 67.0832 117.987 67.4459 117.752C67.8085 117.517 67.9899 117.149 67.9899 116.648C67.9899 116.147 67.8245 115.779 67.4939 115.544C67.1632 115.299 66.6405 115.176 65.9259 115.176H63.1419V118.104H65.8139ZM74.8283 115.256H72.9083V119H71.7723V110.584H72.9083V114.28H74.8443L77.8043 110.584H79.0363L75.7243 114.664L79.2763 119H77.9323L74.8283 115.256ZM88.4203 110.584V119H87.3323V117.336C86.9909 117.901 86.5376 118.333 85.9723 118.632C85.4176 118.931 84.7883 119.08 84.0843 119.08C83.2949 119.08 82.5803 118.899 81.9403 118.536C81.3003 118.173 80.7989 117.667 80.4363 117.016C80.0736 116.365 79.8923 115.624 79.8923 114.792C79.8923 113.96 80.0736 113.219 80.4363 112.568C80.7989 111.917 81.3003 111.416 81.9403 111.064C82.5803 110.701 83.2949 110.52 84.0843 110.52C84.7669 110.52 85.3803 110.664 85.9243 110.952C86.4789 111.229 86.9323 111.64 87.2843 112.184V110.584H88.4203ZM84.1803 118.072C84.7669 118.072 85.2949 117.939 85.7643 117.672C86.2443 117.395 86.6176 117.005 86.8843 116.504C87.1616 116.003 87.3003 115.432 87.3003 114.792C87.3003 114.152 87.1616 113.581 86.8843 113.08C86.6176 112.579 86.2443 112.195 85.7643 111.928C85.2949 111.651 84.7669 111.512 84.1803 111.512C83.5829 111.512 83.0443 111.651 82.5643 111.928C82.0949 112.195 81.7216 112.579 81.4443 113.08C81.1776 113.581 81.0443 114.152 81.0443 114.792C81.0443 115.432 81.1776 116.003 81.4443 116.504C81.7216 117.005 82.0949 117.395 82.5643 117.672C83.0443 117.939 83.5829 118.072 84.1803 118.072ZM103.212 110.584V119H102.124V117.464C101.825 117.976 101.414 118.376 100.892 118.664C100.369 118.941 99.7715 119.08 99.0995 119.08C97.9902 119.08 97.1155 118.776 96.4755 118.168C95.8462 117.549 95.5315 116.648 95.5315 115.464V110.584H96.6675V115.352C96.6675 116.237 96.8862 116.909 97.3235 117.368C97.7608 117.827 98.3902 118.056 99.2115 118.056C100.097 118.056 100.796 117.789 101.308 117.256C101.82 116.712 102.076 115.96 102.076 115V110.584H103.212ZM114.104 119.08C113.293 119.08 112.562 118.899 111.912 118.536C111.261 118.163 110.749 117.651 110.376 117C110.002 116.349 109.816 115.613 109.816 114.792C109.816 113.971 110.002 113.235 110.376 112.584C110.749 111.933 111.261 111.427 111.912 111.064C112.562 110.701 113.293 110.52 114.104 110.52C114.914 110.52 115.645 110.701 116.296 111.064C116.946 111.427 117.453 111.933 117.816 112.584C118.189 113.235 118.376 113.971 118.376 114.792C118.376 115.613 118.189 116.349 117.816 117C117.453 117.651 116.946 118.163 116.296 118.536C115.645 118.899 114.914 119.08 114.104 119.08ZM114.104 118.072C114.701 118.072 115.234 117.939 115.704 117.672C116.184 117.395 116.557 117.005 116.824 116.504C117.09 116.003 117.224 115.432 117.224 114.792C117.224 114.152 117.09 113.581 116.824 113.08C116.557 112.579 116.184 112.195 115.704 111.928C115.234 111.651 114.701 111.512 114.104 111.512C113.506 111.512 112.968 111.651 112.488 111.928C112.018 112.195 111.645 112.579 111.368 113.08C111.101 113.581 110.968 114.152 110.968 114.792C110.968 115.432 111.101 116.003 111.368 116.504C111.645 117.005 112.018 117.395 112.488 117.672C112.968 117.939 113.506 118.072 114.104 118.072ZM128.356 110.584V119H127.22V111.592H121.94V119H120.804V110.584H128.356ZM138.465 110.584V119H137.329V111.592H133.297L133.185 113.672C133.099 115.421 132.897 116.765 132.577 117.704C132.257 118.643 131.686 119.112 130.865 119.112C130.641 119.112 130.369 119.069 130.049 118.984L130.129 118.008C130.321 118.051 130.454 118.072 130.529 118.072C130.966 118.072 131.297 117.869 131.521 117.464C131.745 117.059 131.894 116.557 131.969 115.96C132.043 115.363 132.107 114.573 132.161 113.592L132.305 110.584H138.465ZM149.342 110.584V119H148.254V117.336C147.913 117.901 147.459 118.333 146.894 118.632C146.339 118.931 145.71 119.08 145.006 119.08C144.217 119.08 143.502 118.899 142.862 118.536C142.222 118.173 141.721 117.667 141.358 117.016C140.995 116.365 140.814 115.624 140.814 114.792C140.814 113.96 140.995 113.219 141.358 112.568C141.721 111.917 142.222 111.416 142.862 111.064C143.502 110.701 144.217 110.52 145.006 110.52C145.689 110.52 146.302 110.664 146.846 110.952C147.401 111.229 147.854 111.64 148.206 112.184V110.584H149.342ZM145.102 118.072C145.689 118.072 146.217 117.939 146.686 117.672C147.166 117.395 147.539 117.005 147.806 116.504C148.083 116.003 148.222 115.432 148.222 114.792C148.222 114.152 148.083 113.581 147.806 113.08C147.539 112.579 147.166 112.195 146.686 111.928C146.217 111.651 145.689 111.512 145.102 111.512C144.505 111.512 143.966 111.651 143.486 111.928C143.017 112.195 142.643 112.579 142.366 113.08C142.099 113.581 141.966 114.152 141.966 114.792C141.966 115.432 142.099 116.003 142.366 116.504C142.643 117.005 143.017 117.395 143.486 117.672C143.966 117.939 144.505 118.072 145.102 118.072ZM163.034 110.52C164.09 110.52 164.917 110.824 165.514 111.432C166.122 112.04 166.426 112.936 166.426 114.12V119H165.29V114.232C165.29 113.357 165.077 112.691 164.65 112.232C164.234 111.773 163.642 111.544 162.874 111.544C161.999 111.544 161.311 111.816 160.81 112.36C160.309 112.893 160.058 113.635 160.058 114.584V119H158.922V114.232C158.922 113.357 158.709 112.691 158.282 112.232C157.866 111.773 157.269 111.544 156.49 111.544C155.626 111.544 154.938 111.816 154.426 112.36C153.925 112.893 153.674 113.635 153.674 114.584V119H152.538V110.584H153.626V112.12C153.925 111.608 154.341 111.213 154.874 110.936C155.407 110.659 156.021 110.52 156.714 110.52C157.418 110.52 158.026 110.669 158.538 110.968C159.061 111.267 159.45 111.709 159.706 112.296C160.015 111.741 160.458 111.309 161.034 111C161.621 110.68 162.287 110.52 163.034 110.52ZM177.045 110.584V119H175.957V117.336C175.616 117.901 175.163 118.333 174.597 118.632C174.043 118.931 173.413 119.08 172.709 119.08C171.92 119.08 171.205 118.899 170.565 118.536C169.925 118.173 169.424 117.667 169.061 117.016C168.699 116.365 168.517 115.624 168.517 114.792C168.517 113.96 168.699 113.219 169.061 112.568C169.424 111.917 169.925 111.416 170.565 111.064C171.205 110.701 171.92 110.52 172.709 110.52C173.392 110.52 174.005 110.664 174.549 110.952C175.104 111.229 175.557 111.64 175.909 112.184V110.584H177.045ZM172.805 118.072C173.392 118.072 173.92 117.939 174.389 117.672C174.869 117.395 175.243 117.005 175.509 116.504C175.787 116.003 175.925 115.432 175.925 114.792C175.925 114.152 175.787 113.581 175.509 113.08C175.243 112.579 174.869 112.195 174.389 111.928C173.92 111.651 173.392 111.512 172.805 111.512C172.208 111.512 171.669 111.651 171.189 111.928C170.72 112.195 170.347 112.579 170.069 113.08C169.803 113.581 169.669 114.152 169.669 114.792C169.669 115.432 169.803 116.003 170.069 116.504C170.347 117.005 170.72 117.395 171.189 117.672C171.669 117.939 172.208 118.072 172.805 118.072Z" fill="#B7B7B7"/>
<path d="M8.8405 141.224C9.61917 141.384 10.2112 141.699 10.6165 142.168C11.0218 142.627 11.2245 143.229 11.2245 143.976C11.2245 144.947 10.8778 145.693 10.1845 146.216C9.50183 146.739 8.49383 147 7.1605 147H2.2005V135.8H6.8565C8.05117 135.8 8.9845 136.045 9.6565 136.536C10.3285 137.027 10.6645 137.736 10.6645 138.664C10.6645 139.293 10.5045 139.827 10.1845 140.264C9.8645 140.691 9.4165 141.011 8.8405 141.224ZM3.3685 140.872H6.7925C7.6565 140.872 8.31783 140.696 8.7765 140.344C9.24583 139.992 9.4805 139.48 9.4805 138.808C9.4805 138.136 9.24583 137.624 8.7765 137.272C8.31783 136.92 7.6565 136.744 6.7925 136.744H3.3685V140.872ZM7.1605 146.056C9.09117 146.056 10.0565 145.336 10.0565 143.896C10.0565 142.488 9.09117 141.784 7.1605 141.784H3.3685V146.056H7.1605ZM17.3849 147.08C16.5742 147.08 15.8435 146.899 15.1929 146.536C14.5422 146.163 14.0302 145.651 13.6569 145C13.2835 144.349 13.0969 143.613 13.0969 142.792C13.0969 141.971 13.2835 141.235 13.6569 140.584C14.0302 139.933 14.5422 139.427 15.1929 139.064C15.8435 138.701 16.5742 138.52 17.3849 138.52C18.1955 138.52 18.9262 138.701 19.5769 139.064C20.2275 139.427 20.7342 139.933 21.0969 140.584C21.4702 141.235 21.6569 141.971 21.6569 142.792C21.6569 143.613 21.4702 144.349 21.0969 145C20.7342 145.651 20.2275 146.163 19.5769 146.536C18.9262 146.899 18.1955 147.08 17.3849 147.08ZM17.3849 146.072C17.9822 146.072 18.5155 145.939 18.9849 145.672C19.4649 145.395 19.8382 145.005 20.1049 144.504C20.3715 144.003 20.5049 143.432 20.5049 142.792C20.5049 142.152 20.3715 141.581 20.1049 141.08C19.8382 140.579 19.4649 140.195 18.9849 139.928C18.5155 139.651 17.9822 139.512 17.3849 139.512C16.7875 139.512 16.2489 139.651 15.7689 139.928C15.2995 140.195 14.9262 140.579 14.6489 141.08C14.3822 141.581 14.2489 142.152 14.2489 142.792C14.2489 143.432 14.3822 144.003 14.6489 144.504C14.9262 145.005 15.2995 145.395 15.7689 145.672C16.2489 145.939 16.7875 146.072 17.3849 146.072ZM28.1183 142.616C28.7156 142.755 29.1743 142.995 29.4943 143.336C29.8249 143.677 29.9903 144.093 29.9903 144.584C29.9903 145.075 29.8196 145.512 29.4783 145.896C29.1476 146.28 28.6943 146.579 28.1183 146.792C27.5423 146.995 26.9076 147.096 26.2143 147.096C25.6063 147.096 25.0089 147.011 24.4223 146.84C23.8356 146.659 23.3236 146.397 22.8863 146.056L23.2703 145.208C23.6543 145.496 24.1023 145.72 24.6143 145.88C25.1263 146.04 25.6436 146.12 26.1663 146.12C26.9449 146.12 27.5796 145.976 28.0703 145.688C28.5716 145.389 28.8223 144.989 28.8223 144.488C28.8223 144.04 28.6196 143.693 28.2143 143.448C27.8089 143.192 27.2543 143.064 26.5503 143.064H25.1103V142.232H26.4863C27.1156 142.232 27.6223 142.115 28.0063 141.88C28.3903 141.635 28.5823 141.309 28.5823 140.904C28.5823 140.456 28.3636 140.104 27.9263 139.848C27.4996 139.592 26.9396 139.464 26.2463 139.464C25.3396 139.464 24.4436 139.693 23.5583 140.152L23.2383 139.272C24.2409 138.749 25.2809 138.488 26.3583 138.488C26.9983 138.488 27.5743 138.584 28.0863 138.776C28.6089 138.957 29.0143 139.219 29.3023 139.56C29.6009 139.901 29.7503 140.296 29.7503 140.744C29.7503 141.171 29.6009 141.549 29.3023 141.88C29.0143 142.211 28.6196 142.456 28.1183 142.616ZM37.9291 142.648C39.0705 142.915 39.6411 143.603 39.6411 144.712C39.6411 145.448 39.3691 146.013 38.8251 146.408C38.2811 146.803 37.4705 147 36.3931 147H32.5691V138.584H36.2811C37.2411 138.584 37.9931 138.771 38.5371 139.144C39.0811 139.517 39.3531 140.051 39.3531 140.744C39.3531 141.203 39.2251 141.597 38.9691 141.928C38.7238 142.248 38.3771 142.488 37.9291 142.648ZM33.6731 142.328H36.2011C36.8518 142.328 37.3478 142.205 37.6891 141.96C38.0411 141.715 38.2171 141.357 38.2171 140.888C38.2171 140.419 38.0411 140.067 37.6891 139.832C37.3478 139.597 36.8518 139.48 36.2011 139.48H33.6731V142.328ZM36.3451 146.104C37.0705 146.104 37.6145 145.987 37.9771 145.752C38.3398 145.517 38.5211 145.149 38.5211 144.648C38.5211 144.147 38.3558 143.779 38.0251 143.544C37.6945 143.299 37.1718 143.176 36.4571 143.176H33.6731V146.104H36.3451ZM46.1755 138.52C46.9968 138.52 47.7275 138.701 48.3675 139.064C49.0075 139.427 49.5035 139.933 49.8555 140.584C50.2182 141.235 50.3995 141.976 50.3995 142.808C50.3995 143.64 50.2235 144.381 49.8715 145.032C49.5195 145.672 49.0288 146.173 48.3995 146.536C47.7808 146.899 47.0715 147.08 46.2715 147.08C45.5675 147.08 44.9382 146.941 44.3835 146.664C43.8395 146.376 43.3968 145.965 43.0555 145.432V150.104H41.9195V142.824C41.9195 141.981 42.0955 141.235 42.4475 140.584C42.8102 139.933 43.3115 139.427 43.9515 139.064C44.6022 138.701 45.3435 138.52 46.1755 138.52ZM46.1435 146.088C46.7408 146.088 47.2795 145.949 47.7595 145.672C48.2395 145.395 48.6128 145.005 48.8795 144.504C49.1462 144.003 49.2795 143.437 49.2795 142.808C49.2795 142.179 49.1462 141.613 48.8795 141.112C48.6128 140.611 48.2395 140.221 47.7595 139.944C47.2795 139.656 46.7408 139.512 46.1435 139.512C45.5462 139.512 45.0075 139.651 44.5275 139.928C44.0582 140.205 43.6902 140.595 43.4235 141.096C43.1675 141.587 43.0395 142.152 43.0395 142.792C43.0395 143.432 43.1675 144.003 43.4235 144.504C43.6902 145.005 44.0582 145.395 44.5275 145.672C45.0075 145.949 45.5462 146.088 46.1435 146.088ZM60.4984 138.584V147H59.4104V145.336C59.069 145.901 58.6157 146.333 58.0504 146.632C57.4957 146.931 56.8664 147.08 56.1624 147.08C55.373 147.08 54.6584 146.899 54.0184 146.536C53.3784 146.173 52.877 145.667 52.5144 145.016C52.1517 144.365 51.9704 143.624 51.9704 142.792C51.9704 141.96 52.1517 141.219 52.5144 140.568C52.877 139.917 53.3784 139.416 54.0184 139.064C54.6584 138.701 55.373 138.52 56.1624 138.52C56.845 138.52 57.4584 138.664 58.0024 138.952C58.557 139.229 59.0104 139.64 59.3624 140.184V138.584H60.4984ZM56.2584 146.072C56.845 146.072 57.373 145.939 57.8424 145.672C58.3224 145.395 58.6957 145.005 58.9624 144.504C59.2397 144.003 59.3784 143.432 59.3784 142.792C59.3784 142.152 59.2397 141.581 58.9624 141.08C58.6957 140.579 58.3224 140.195 57.8424 139.928C57.373 139.651 56.845 139.512 56.2584 139.512C55.661 139.512 55.1224 139.651 54.6424 139.928C54.173 140.195 53.7997 140.579 53.5224 141.08C53.2557 141.581 53.1224 142.152 53.1224 142.792C53.1224 143.432 53.2557 144.003 53.5224 144.504C53.7997 145.005 54.173 145.395 54.6424 145.672C55.1224 145.939 55.661 146.072 56.2584 146.072ZM75.3101 138.584V147H63.6941V138.584H64.8301V146.008H68.9581V138.584H70.0941V146.008H74.1741V138.584H75.3101ZM76.6061 146.008V148.84H75.5341V147H74.1101V146.008H76.6061ZM82.1215 146.072C82.6442 146.072 83.1242 145.981 83.5615 145.8C84.0095 145.608 84.3882 145.331 84.6975 144.968L85.3375 145.704C84.9642 146.152 84.5002 146.493 83.9455 146.728C83.3908 146.963 82.7775 147.08 82.1055 147.08C81.2415 147.08 80.4735 146.899 79.8015 146.536C79.1295 146.163 78.6068 145.651 78.2335 145C77.8602 144.349 77.6735 143.613 77.6735 142.792C77.6735 141.971 77.8495 141.235 78.2015 140.584C78.5642 139.933 79.0602 139.427 79.6895 139.064C80.3188 138.701 81.0335 138.52 81.8335 138.52C82.5802 138.52 83.2522 138.691 83.8495 139.032C84.4575 139.373 84.9375 139.848 85.2895 140.456C85.6522 141.064 85.8442 141.757 85.8655 142.536L78.9535 143.88C79.1668 144.563 79.5508 145.101 80.1055 145.496C80.6708 145.88 81.3428 146.072 82.1215 146.072ZM81.8335 139.496C81.2468 139.496 80.7188 139.635 80.2495 139.912C79.7908 140.179 79.4282 140.557 79.1615 141.048C78.9055 141.528 78.7775 142.083 78.7775 142.712C78.7775 142.872 78.7828 142.989 78.7935 143.064L84.7295 141.912C84.6015 141.208 84.2762 140.632 83.7535 140.184C83.2308 139.725 82.5908 139.496 81.8335 139.496ZM88.2098 138.584H89.3458V142.312H94.6418V138.584H95.7778V147H94.6418V143.288H89.3458V147H88.2098V138.584ZM106.415 138.584V147H105.327V145.464C105.028 145.976 104.617 146.376 104.095 146.664C103.572 146.941 102.975 147.08 102.303 147.08C101.193 147.08 100.319 146.776 99.6786 146.168C99.0493 145.549 98.7346 144.648 98.7346 143.464V138.584H99.8706V143.352C99.8706 144.237 100.089 144.909 100.527 145.368C100.964 145.827 101.593 146.056 102.415 146.056C103.3 146.056 103.999 145.789 104.511 145.256C105.023 144.712 105.279 143.96 105.279 143V138.584H106.415ZM113.215 146.072C113.738 146.072 114.218 145.981 114.655 145.8C115.103 145.608 115.482 145.331 115.791 144.968L116.431 145.704C116.058 146.152 115.594 146.493 115.039 146.728C114.485 146.963 113.871 147.08 113.199 147.08C112.335 147.08 111.567 146.899 110.895 146.536C110.223 146.163 109.701 145.651 109.327 145C108.954 144.349 108.767 143.613 108.767 142.792C108.767 141.971 108.943 141.235 109.295 140.584C109.658 139.933 110.154 139.427 110.783 139.064C111.413 138.701 112.127 138.52 112.927 138.52C113.674 138.52 114.346 138.691 114.943 139.032C115.551 139.373 116.031 139.848 116.383 140.456C116.746 141.064 116.938 141.757 116.959 142.536L110.047 143.88C110.261 144.563 110.645 145.101 111.199 145.496C111.765 145.88 112.437 146.072 113.215 146.072ZM112.927 139.496C112.341 139.496 111.813 139.635 111.343 139.912C110.885 140.179 110.522 140.557 110.255 141.048C109.999 141.528 109.871 142.083 109.871 142.712C109.871 142.872 109.877 142.989 109.887 143.064L115.823 141.912C115.695 141.208 115.37 140.632 114.847 140.184C114.325 139.725 113.685 139.496 112.927 139.496Z" fill="#B7B7B7"/>
</svg>
