<svg width="110" height="40" viewBox="0 0 110 40" fill="none" xmlns="http://www.w3.org/2000/svg">
<rect width="40" height="40" rx="6" fill="#FFC700"/>
<path d="M29.9467 11.4928C29.6869 11.175 29.2976 11 28.8506 11C28.6076 11 28.3502 11.0511 28.0856 11.1523L10.0765 18.0269C9.1208 18.3916 8.99208 18.9389 9.00036 19.2327C9.00864 19.5265 9.16819 20.0657 10.1431 20.3759C10.1489 20.3777 10.1548 20.3795 10.1606 20.3811L13.8962 21.4501L15.9164 27.227C16.1918 28.0146 16.8101 28.5038 17.5301 28.5038C17.9841 28.5038 18.4307 28.3136 18.8215 27.9539L21.1321 25.8264L24.4835 28.5249C24.4838 28.5252 24.4843 28.5254 24.4846 28.5257L24.5164 28.5514C24.5193 28.5536 24.5224 28.5561 24.5253 28.5583C24.8979 28.8473 25.3045 28.9998 25.7017 29H25.7018C26.4779 29 27.0958 28.4256 27.2758 27.5367L30.2266 12.9665C30.3451 12.3816 30.2457 11.8583 29.9467 11.4928ZM15.1458 21.2471L22.3529 17.5652L17.8653 22.3336C17.7918 22.4117 17.7397 22.5073 17.714 22.6114L16.8487 26.1164L15.1458 21.2471ZM17.977 27.0368C17.9471 27.0642 17.9171 27.0887 17.8871 27.1113L18.6899 23.8597L20.1502 25.0357L17.977 27.0368ZM29.0048 12.7189L26.054 27.2893C26.0256 27.4288 25.9349 27.7532 25.7017 27.7532C25.5864 27.7532 25.4416 27.6904 25.2934 27.5763L21.4959 24.5186C21.4954 24.5181 21.4947 24.5176 21.4941 24.5173L19.2345 22.6977L25.7241 15.802C25.9318 15.5812 25.9507 15.2431 25.7687 15.0006C25.5866 14.7581 25.2566 14.6818 24.9867 14.8198L14.313 20.2727L10.5266 19.1894L28.5302 12.3169C28.6823 12.2588 28.7884 12.2466 28.8506 12.2466C28.8888 12.2466 28.9566 12.2511 28.9818 12.2821C29.0149 12.3226 29.0571 12.4604 29.0048 12.7189Z" fill="#141414"/>
<rect x="70" width="40" height="40" rx="6" fill="#FFC700"/>
<path d="M93.25 30H85.75C83.9598 30 82.2429 29.2888 80.977 28.023C79.7112 26.7571 79 25.0402 79 23.25V15.75C79 13.9598 79.7112 12.2429 80.977 10.977C82.2429 9.71116 83.9598 9 85.75 9H93.25C95.0402 9 96.7571 9.71116 98.023 10.977C99.2888 12.2429 100 13.9598 100 15.75V23.25C100 25.0402 99.2888 26.7571 98.023 28.023C96.7571 29.2888 95.0402 30 93.25 30ZM85.75 10.5C84.3576 10.5 83.0223 11.0531 82.0377 12.0377C81.0531 13.0223 80.5 14.3576 80.5 15.75V23.25C80.5 24.6424 81.0531 25.9777 82.0377 26.9623C83.0223 27.9469 84.3576 28.5 85.75 28.5H93.25C94.6424 28.5 95.9777 27.9469 96.9623 26.9623C97.9469 25.9777 98.5 24.6424 98.5 23.25V15.75C98.5 14.3576 97.9469 13.0223 96.9623 12.0377C95.9777 11.0531 94.6424 10.5 93.25 10.5H85.75Z" fill="black"/>
<path d="M89.5 24.75C88.7223 24.7564 87.9532 24.5872 87.25 24.255C87.0738 24.1682 86.9386 24.0156 86.8736 23.8302C86.8087 23.6448 86.8191 23.4413 86.9026 23.2634C86.9861 23.0856 87.1361 22.9476 87.3203 22.8792C87.5045 22.8107 87.7081 22.8173 87.8875 22.8975C88.7014 23.2736 89.6231 23.3457 90.4856 23.1006C91.348 22.8556 92.0941 22.3096 92.5887 21.5618C93.0832 20.8139 93.2934 19.9136 93.1811 19.024C93.0689 18.1345 92.6417 17.3146 91.9769 16.713C91.3121 16.1113 90.4538 15.7678 89.5575 15.7447C88.6612 15.7215 87.7863 16.0203 87.0913 16.5868C86.3963 17.1533 85.9273 17.95 85.7693 18.8326C85.6113 19.7151 85.7748 20.6251 86.23 21.3975C86.2843 21.4829 86.3207 21.5783 86.3371 21.6781C86.3535 21.7779 86.3496 21.88 86.3255 21.9783C86.3015 22.0765 86.2578 22.1689 86.1971 22.2498C86.1364 22.3308 86.06 22.3986 85.9724 22.4492C85.8848 22.4998 85.7879 22.5322 85.6875 22.5444C85.5871 22.5566 85.4853 22.5483 85.3881 22.5202C85.291 22.492 85.2005 22.4444 85.1222 22.3804C85.0439 22.3163 84.9794 22.2371 84.9325 22.1475C84.4728 21.3417 84.2372 20.4276 84.25 19.5C84.25 18.4617 84.5579 17.4466 85.1348 16.5833C85.7117 15.7199 86.5316 15.047 87.4909 14.6496C88.4502 14.2523 89.5058 14.1483 90.5242 14.3509C91.5426 14.5535 92.4781 15.0535 93.2123 15.7877C93.9465 16.5219 94.4466 17.4574 94.6491 18.4758C94.8517 19.4942 94.7477 20.5498 94.3504 21.5091C93.953 22.4684 93.2801 23.2883 92.4168 23.8652C91.5534 24.4421 90.5384 24.75 89.5 24.75Z" fill="black"/>
<path d="M95.1252 15.001C95.7466 15.001 96.2502 14.4973 96.2502 13.876C96.2502 13.2547 95.7466 12.751 95.1252 12.751C94.5039 12.751 94.0002 13.2547 94.0002 13.876C94.0002 14.4973 94.5039 15.001 95.1252 15.001Z" fill="black"/>
</svg>
