<svg width="465" height="127" viewBox="0 0 465 127" fill="none" xmlns="http://www.w3.org/2000/svg">
<path d="M44.9012 29.104H28.7732V70H17.2532V29.104H1.19719V19.6H44.9012V29.104ZM65.5674 70.576C61.4874 70.576 57.8154 69.736 54.5514 68.056C51.3354 66.328 48.8154 63.952 46.9914 60.928C45.1674 57.904 44.2554 54.472 44.2554 50.632C44.2554 46.792 45.1674 43.36 46.9914 40.336C48.8154 37.312 51.3354 34.96 54.5514 33.28C57.8154 31.552 61.4874 30.688 65.5674 30.688C69.6474 30.688 73.2954 31.552 76.5114 33.28C79.7274 34.96 82.2474 37.312 84.0714 40.336C85.8954 43.36 86.8074 46.792 86.8074 50.632C86.8074 54.472 85.8954 57.904 84.0714 60.928C82.2474 63.952 79.7274 66.328 76.5114 68.056C73.2954 69.736 69.6474 70.576 65.5674 70.576ZM65.5674 61.36C68.4474 61.36 70.7994 60.4 72.6234 58.48C74.4954 56.512 75.4314 53.896 75.4314 50.632C75.4314 47.368 74.4954 44.776 72.6234 42.856C70.7994 40.888 68.4474 39.904 65.5674 39.904C62.6874 39.904 60.3114 40.888 58.4394 42.856C56.5674 44.776 55.6314 47.368 55.6314 50.632C55.6314 53.896 56.5674 56.512 58.4394 58.48C60.3114 60.4 62.6874 61.36 65.5674 61.36ZM133.053 31.264V70H121.821V40.48H105.693V70H94.5328V31.264H133.053ZM202.733 31.264V70H191.501V40.48H175.373V70H164.213V31.264H202.733ZM236.326 30.688C239.926 30.688 243.19 31.528 246.118 33.208C249.094 34.84 251.422 37.168 253.102 40.192C254.782 43.168 255.622 46.648 255.622 50.632C255.622 54.616 254.782 58.12 253.102 61.144C251.422 64.12 249.094 66.448 246.118 68.128C243.19 69.76 239.926 70.576 236.326 70.576C231.382 70.576 227.494 69.016 224.662 65.896V83.968H213.43V31.264H224.158V35.728C226.942 32.368 230.998 30.688 236.326 30.688ZM234.382 61.36C237.262 61.36 239.614 60.4 241.438 58.48C243.31 56.512 244.246 53.896 244.246 50.632C244.246 47.368 243.31 44.776 241.438 42.856C239.614 40.888 237.262 39.904 234.382 39.904C231.502 39.904 229.126 40.888 227.254 42.856C225.43 44.776 224.518 47.368 224.518 50.632C224.518 53.896 225.43 56.512 227.254 58.48C229.126 60.4 231.502 61.36 234.382 61.36ZM281.638 70.576C277.558 70.576 273.886 69.736 270.622 68.056C267.406 66.328 264.886 63.952 263.062 60.928C261.238 57.904 260.326 54.472 260.326 50.632C260.326 46.792 261.238 43.36 263.062 40.336C264.886 37.312 267.406 34.96 270.622 33.28C273.886 31.552 277.558 30.688 281.638 30.688C285.718 30.688 289.366 31.552 292.582 33.28C295.798 34.96 298.318 37.312 300.142 40.336C301.966 43.36 302.878 46.792 302.878 50.632C302.878 54.472 301.966 57.904 300.142 60.928C298.318 63.952 295.798 66.328 292.582 68.056C289.366 69.736 285.718 70.576 281.638 70.576ZM281.638 61.36C284.518 61.36 286.87 60.4 288.694 58.48C290.566 56.512 291.502 53.896 291.502 50.632C291.502 47.368 290.566 44.776 288.694 42.856C286.87 40.888 284.518 39.904 281.638 39.904C278.758 39.904 276.382 40.888 274.51 42.856C272.638 44.776 271.702 47.368 271.702 50.632C271.702 53.896 272.638 56.512 274.51 58.48C276.382 60.4 278.758 61.36 281.638 61.36Z" fill="#F1F1F1"/>
<path d="M354.019 60.784V78.352H343.579V70H316.363V78.352H305.923V60.784H307.507C309.907 60.736 311.563 59.32 312.475 56.536C313.387 53.752 313.963 49.792 314.203 44.656L314.707 31.264H348.475V60.784H354.019ZM324.355 45.448C324.211 49.384 323.899 52.6 323.419 55.096C322.987 57.592 322.147 59.488 320.899 60.784H337.243V40.48H324.571L324.355 45.448ZM376.136 30.688C382.136 30.688 386.744 32.128 389.96 35.008C393.176 37.84 394.784 42.136 394.784 47.896V70H384.272V65.176C382.16 68.776 378.224 70.576 372.464 70.576C369.488 70.576 366.896 70.072 364.688 69.064C362.528 68.056 360.872 66.664 359.72 64.888C358.568 63.112 357.992 61.096 357.992 58.84C357.992 55.24 359.336 52.408 362.024 50.344C364.76 48.28 368.96 47.248 374.624 47.248H383.552C383.552 44.8 382.808 42.928 381.32 41.632C379.832 40.288 377.6 39.616 374.624 39.616C372.56 39.616 370.52 39.952 368.504 40.624C366.536 41.248 364.856 42.112 363.464 43.216L359.432 35.368C361.544 33.88 364.064 32.728 366.992 31.912C369.968 31.096 373.016 30.688 376.136 30.688ZM375.272 63.016C377.192 63.016 378.896 62.584 380.384 61.72C381.872 60.808 382.928 59.488 383.552 57.76V53.8H375.848C371.24 53.8 368.936 55.312 368.936 58.336C368.936 59.776 369.488 60.928 370.592 61.792C371.744 62.608 373.304 63.016 375.272 63.016ZM442.917 55.312H437.517V70H426.429V55.312H421.029L412.821 70H399.573L411.741 49.984L400.437 31.264H412.317L420.885 46.312H426.429V31.264H437.517V46.312H442.989L451.629 31.264H463.509L452.205 49.984L464.445 70H451.125L442.917 55.312Z" fill="#FFC700"/>
<path d="M57.0919 100.152C54.8519 98.8293 52.3239 98.0933 49.5079 97.944V119H47.8439V97.944C45.1345 98.0507 42.6065 98.7867 40.2599 100.152L39.6199 98.84C42.3505 97.24 45.3585 96.44 48.6439 96.44C51.9719 96.44 55.0012 97.24 57.7319 98.84L57.0919 100.152ZM66.5026 119.128C64.924 119.128 63.4946 118.765 62.2146 118.04C60.956 117.315 59.964 116.312 59.2386 115.032C58.5133 113.731 58.1506 112.269 58.1506 110.648C58.1506 109.027 58.5133 107.576 59.2386 106.296C59.964 104.995 60.956 103.981 62.2146 103.256C63.4946 102.531 64.924 102.168 66.5026 102.168C68.0813 102.168 69.5 102.531 70.7586 103.256C72.0386 103.981 73.0413 104.995 73.7666 106.296C74.492 107.576 74.8546 109.027 74.8546 110.648C74.8546 112.269 74.492 113.731 73.7666 115.032C73.0413 116.312 72.0386 117.315 70.7586 118.04C69.5 118.765 68.0813 119.128 66.5026 119.128ZM66.5026 117.688C67.7826 117.688 68.924 117.389 69.9266 116.792C70.9506 116.195 71.7506 115.363 72.3266 114.296C72.924 113.229 73.2226 112.013 73.2226 110.648C73.2226 109.283 72.924 108.067 72.3266 107C71.7506 105.933 70.9506 105.101 69.9266 104.504C68.924 103.907 67.7826 103.608 66.5026 103.608C65.2226 103.608 64.0706 103.907 63.0466 104.504C62.044 105.101 61.244 105.933 60.6466 107C60.0706 108.067 59.7826 109.283 59.7826 110.648C59.7826 112.013 60.0706 113.229 60.6466 114.296C61.244 115.363 62.044 116.195 63.0466 116.792C64.0706 117.389 65.2226 117.688 66.5026 117.688ZM79.2781 116.408C79.6621 116.408 79.9821 116.547 80.2381 116.824C80.4941 117.08 80.6221 117.389 80.6221 117.752C80.6221 117.965 80.5901 118.189 80.5261 118.424C80.4835 118.659 80.4195 118.925 80.3341 119.224L79.0861 123.576H77.9341L78.9901 119.064C78.6701 118.979 78.4141 118.829 78.2221 118.616C78.0301 118.381 77.9341 118.093 77.9341 117.752C77.9341 117.368 78.0621 117.048 78.3181 116.792C78.5741 116.536 78.8941 116.408 79.2781 116.408ZM106.159 102.296V119H104.559V111.8C102.575 112.717 100.591 113.176 98.6071 113.176C96.6445 113.176 95.0978 112.728 93.9671 111.832C92.8578 110.936 92.3031 109.613 92.3031 107.864V102.296H93.9031V107.768C93.9031 109.069 94.3405 110.072 95.2151 110.776C96.0898 111.48 97.2951 111.832 98.8311 111.832C100.58 111.832 102.49 111.395 104.559 110.52V102.296H106.159ZM133.865 102.168C135.935 102.168 137.556 102.776 138.729 103.992C139.924 105.208 140.521 106.957 140.521 109.24V119H138.921V109.368C138.921 107.491 138.463 106.061 137.545 105.08C136.628 104.099 135.348 103.608 133.705 103.608C131.828 103.608 130.335 104.195 129.225 105.368C128.137 106.541 127.593 108.12 127.593 110.104V119H125.993V109.368C125.993 107.491 125.535 106.061 124.617 105.08C123.7 104.099 122.42 103.608 120.777 103.608C118.9 103.608 117.407 104.195 116.297 105.368C115.209 106.541 114.665 108.12 114.665 110.104V119H113.065V102.296H114.601V105.88C115.156 104.707 115.977 103.8 117.065 103.16C118.175 102.499 119.487 102.168 121.001 102.168C122.516 102.168 123.796 102.509 124.841 103.192C125.908 103.875 126.665 104.877 127.113 106.2C127.668 104.963 128.532 103.981 129.705 103.256C130.9 102.531 132.287 102.168 133.865 102.168ZM153.534 119.128C151.955 119.128 150.526 118.765 149.246 118.04C147.987 117.315 146.995 116.312 146.27 115.032C145.545 113.731 145.182 112.269 145.182 110.648C145.182 109.027 145.545 107.576 146.27 106.296C146.995 104.995 147.987 103.981 149.246 103.256C150.526 102.531 151.955 102.168 153.534 102.168C155.113 102.168 156.531 102.531 157.79 103.256C159.07 103.981 160.073 104.995 160.798 106.296C161.523 107.576 161.886 109.027 161.886 110.648C161.886 112.269 161.523 113.731 160.798 115.032C160.073 116.312 159.07 117.315 157.79 118.04C156.531 118.765 155.113 119.128 153.534 119.128ZM153.534 117.688C154.814 117.688 155.955 117.389 156.958 116.792C157.982 116.195 158.782 115.363 159.358 114.296C159.955 113.229 160.254 112.013 160.254 110.648C160.254 109.283 159.955 108.067 159.358 107C158.782 105.933 157.982 105.101 156.958 104.504C155.955 103.907 154.814 103.608 153.534 103.608C152.254 103.608 151.102 103.907 150.078 104.504C149.075 105.101 148.275 105.933 147.678 107C147.102 108.067 146.814 109.283 146.814 110.648C146.814 112.013 147.102 113.229 147.678 114.296C148.275 115.363 149.075 116.195 150.078 116.792C151.102 117.389 152.254 117.688 153.534 117.688ZM185.203 110.392C187.657 110.819 188.883 112.195 188.883 114.52C188.883 115.971 188.35 117.08 187.283 117.848C186.238 118.616 184.659 119 182.547 119H175.315V102.296H182.355C184.211 102.296 185.662 102.669 186.707 103.416C187.774 104.141 188.307 105.187 188.307 106.552C188.307 107.533 188.03 108.355 187.475 109.016C186.942 109.656 186.185 110.115 185.203 110.392ZM176.883 109.912H182.259C183.689 109.912 184.787 109.645 185.555 109.112C186.323 108.557 186.707 107.768 186.707 106.744C186.707 105.699 186.323 104.92 185.555 104.408C184.809 103.875 183.71 103.608 182.259 103.608H176.883V109.912ZM182.515 117.688C185.694 117.688 187.283 116.611 187.283 114.456C187.283 113.325 186.921 112.493 186.195 111.96C185.47 111.427 184.329 111.16 182.771 111.16H176.883V117.688H182.515ZM209.349 102.296V119H207.781V115.064C207.12 116.365 206.192 117.368 204.997 118.072C203.803 118.776 202.448 119.128 200.933 119.128C199.376 119.128 197.968 118.765 196.709 118.04C195.451 117.315 194.459 116.312 193.733 115.032C193.029 113.752 192.677 112.291 192.677 110.648C192.677 109.005 193.029 107.544 193.733 106.264C194.459 104.963 195.451 103.96 196.709 103.256C197.968 102.531 199.376 102.168 200.933 102.168C202.427 102.168 203.76 102.52 204.933 103.224C206.128 103.928 207.067 104.909 207.749 106.168V102.296H209.349ZM201.029 117.688C202.309 117.688 203.451 117.389 204.453 116.792C205.477 116.195 206.277 115.363 206.853 114.296C207.451 113.229 207.749 112.013 207.749 110.648C207.749 109.283 207.451 108.067 206.853 107C206.277 105.933 205.477 105.101 204.453 104.504C203.451 103.907 202.309 103.608 201.029 103.608C199.749 103.608 198.597 103.907 197.573 104.504C196.571 105.101 195.771 105.933 195.173 107C194.597 108.067 194.309 109.283 194.309 110.648C194.309 112.013 194.597 113.229 195.173 114.296C195.771 115.363 196.571 116.195 197.573 116.792C198.597 117.389 199.749 117.688 201.029 117.688ZM234.335 102.296V119H232.863V104.856L225.599 116.856H224.863L217.631 104.888V119H216.159V102.296H217.727L225.279 114.936L232.863 102.296H234.335ZM249.472 102.296H251.072V109.912H262.4V102.296H264V119H262.4V111.32H251.072V119H249.472V102.296ZM278.365 102.168C279.965 102.168 281.394 102.531 282.653 103.256C283.912 103.981 284.893 104.995 285.597 106.296C286.301 107.576 286.653 109.037 286.653 110.68C286.653 112.301 286.301 113.752 285.597 115.032C284.914 116.312 283.954 117.315 282.717 118.04C281.48 118.765 280.072 119.128 278.493 119.128C276.957 119.128 275.602 118.787 274.429 118.104C273.277 117.421 272.37 116.451 271.709 115.192V125.208H270.109V110.68C270.109 109.037 270.461 107.576 271.165 106.296C271.869 104.995 272.84 103.981 274.077 103.256C275.336 102.531 276.765 102.168 278.365 102.168ZM278.333 117.72C279.613 117.72 280.765 117.421 281.789 116.824C282.813 116.205 283.613 115.363 284.189 114.296C284.765 113.229 285.053 112.024 285.053 110.68C285.053 109.315 284.765 108.099 284.189 107.032C283.613 105.965 282.813 105.133 281.789 104.536C280.786 103.917 279.634 103.608 278.333 103.608C277.053 103.608 275.901 103.907 274.877 104.504C273.874 105.101 273.085 105.933 272.509 107C271.954 108.067 271.677 109.283 271.677 110.648C271.677 112.013 271.954 113.229 272.509 114.296C273.085 115.363 273.874 116.205 274.877 116.824C275.901 117.421 277.053 117.72 278.333 117.72ZM306.693 102.296V119H305.125V115.064C304.464 116.365 303.536 117.368 302.341 118.072C301.146 118.776 299.792 119.128 298.277 119.128C296.72 119.128 295.312 118.765 294.053 118.04C292.794 117.315 291.802 116.312 291.077 115.032C290.373 113.752 290.021 112.291 290.021 110.648C290.021 109.005 290.373 107.544 291.077 106.264C291.802 104.963 292.794 103.96 294.053 103.256C295.312 102.531 296.72 102.168 298.277 102.168C299.77 102.168 301.104 102.52 302.277 103.224C303.472 103.928 304.41 104.909 305.093 106.168V102.296H306.693ZM298.373 117.688C299.653 117.688 300.794 117.389 301.797 116.792C302.821 116.195 303.621 115.363 304.197 114.296C304.794 113.229 305.093 112.013 305.093 110.648C305.093 109.283 304.794 108.067 304.197 107C303.621 105.933 302.821 105.101 301.797 104.504C300.794 103.907 299.653 103.608 298.373 103.608C297.093 103.608 295.941 103.907 294.917 104.504C293.914 105.101 293.114 105.933 292.517 107C291.941 108.067 291.653 109.283 291.653 110.648C291.653 112.013 291.941 113.229 292.517 114.296C293.114 115.363 293.914 116.195 294.917 116.792C295.941 117.389 297.093 117.688 298.373 117.688ZM323.391 110.392C325.844 110.819 327.071 112.195 327.071 114.52C327.071 115.971 326.538 117.08 325.471 117.848C324.426 118.616 322.847 119 320.735 119H313.503V102.296H320.543C322.399 102.296 323.85 102.669 324.895 103.416C325.962 104.141 326.495 105.187 326.495 106.552C326.495 107.533 326.218 108.355 325.663 109.016C325.13 109.656 324.372 110.115 323.391 110.392ZM315.071 109.912H320.447C321.876 109.912 322.975 109.645 323.743 109.112C324.511 108.557 324.895 107.768 324.895 106.744C324.895 105.699 324.511 104.92 323.743 104.408C322.996 103.875 321.898 103.608 320.447 103.608H315.071V109.912ZM320.703 117.688C323.882 117.688 325.471 116.611 325.471 114.456C325.471 113.325 325.108 112.493 324.383 111.96C323.658 111.427 322.516 111.16 320.959 111.16H315.071V117.688H320.703ZM347.025 102.296V119H345.457V115.48C344.881 116.632 344.049 117.528 342.961 118.168C341.894 118.808 340.636 119.128 339.185 119.128C337.009 119.128 335.292 118.531 334.033 117.336C332.796 116.12 332.177 114.36 332.177 112.056V102.296H333.777V111.928C333.777 113.805 334.257 115.235 335.217 116.216C336.177 117.197 337.532 117.688 339.281 117.688C341.158 117.688 342.652 117.101 343.761 115.928C344.87 114.755 345.425 113.176 345.425 111.192V102.296H347.025ZM374.709 102.168C376.778 102.168 378.4 102.776 379.573 103.992C380.768 105.208 381.365 106.957 381.365 109.24V119H379.765V109.368C379.765 107.491 379.306 106.061 378.389 105.08C377.472 104.099 376.192 103.608 374.549 103.608C372.672 103.608 371.178 104.195 370.069 105.368C368.981 106.541 368.437 108.12 368.437 110.104V119H366.837V109.368C366.837 107.491 366.378 106.061 365.461 105.08C364.544 104.099 363.264 103.608 361.621 103.608C359.744 103.608 358.25 104.195 357.141 105.368C356.053 106.541 355.509 108.12 355.509 110.104V119H353.909V102.296H355.445V105.88C356 104.707 356.821 103.8 357.909 103.16C359.018 102.499 360.33 102.168 361.845 102.168C363.36 102.168 364.64 102.509 365.685 103.192C366.752 103.875 367.509 104.877 367.957 106.2C368.512 104.963 369.376 103.981 370.549 103.256C371.744 102.531 373.13 102.168 374.709 102.168ZM394.25 119.32C392.031 119.32 390.303 118.765 389.066 117.656C387.85 116.525 387.242 114.957 387.242 112.952V102.296H388.842V109.688C389.396 108.92 390.154 108.323 391.114 107.896C392.095 107.448 393.226 107.224 394.506 107.224C396.596 107.224 398.218 107.757 399.37 108.824C400.522 109.869 401.098 111.267 401.098 113.016C401.098 114.232 400.82 115.32 400.266 116.28C399.732 117.24 398.943 117.987 397.898 118.52C396.874 119.053 395.658 119.32 394.25 119.32ZM394.282 118.04C395.882 118.04 397.14 117.571 398.058 116.632C398.996 115.693 399.466 114.499 399.466 113.048C399.466 111.683 399.007 110.584 398.09 109.752C397.172 108.899 395.871 108.472 394.186 108.472C392.948 108.472 391.86 108.739 390.922 109.272C390.004 109.784 389.311 110.499 388.842 111.416V113.016C388.842 114.573 389.322 115.8 390.282 116.696C391.242 117.592 392.575 118.04 394.282 118.04ZM412.599 119.128C410.977 119.128 409.527 118.765 408.247 118.04C406.967 117.315 405.964 116.312 405.239 115.032C404.513 113.731 404.151 112.269 404.151 110.648C404.151 109.005 404.513 107.544 405.239 106.264C405.964 104.963 406.967 103.96 408.247 103.256C409.527 102.531 410.977 102.168 412.599 102.168C413.943 102.168 415.159 102.435 416.247 102.968C417.356 103.48 418.252 104.237 418.935 105.24L417.751 106.104C417.153 105.272 416.407 104.653 415.511 104.248C414.636 103.821 413.665 103.608 412.599 103.608C411.297 103.608 410.124 103.907 409.079 104.504C408.055 105.08 407.244 105.901 406.647 106.968C406.071 108.035 405.783 109.261 405.783 110.648C405.783 112.035 406.071 113.261 406.647 114.328C407.244 115.395 408.055 116.227 409.079 116.824C410.124 117.4 411.297 117.688 412.599 117.688C413.665 117.688 414.636 117.485 415.511 117.08C416.407 116.653 417.153 116.024 417.751 115.192L418.935 116.056C418.252 117.059 417.356 117.827 416.247 118.36C415.159 118.872 413.943 119.128 412.599 119.128ZM435.385 102.296V119H433.913V113.24H428.345C427.961 113.24 427.684 113.229 427.513 113.208L423.385 119H421.625L425.945 113.016C424.58 112.717 423.535 112.131 422.809 111.256C422.084 110.381 421.721 109.251 421.721 107.864C421.721 106.029 422.329 104.643 423.545 103.704C424.783 102.765 426.468 102.296 428.601 102.296H435.385ZM423.321 107.928C423.321 110.659 425.049 112.024 428.505 112.024H433.913V103.704H428.697C425.113 103.704 423.321 105.112 423.321 107.928Z" fill="#949494"/>
</svg>
