<svg width="109" height="36" viewBox="0 0 109 36" fill="none" xmlns="http://www.w3.org/2000/svg">
<path d="M34.4821 4.592H29.6661V12H28.5301V3.584H34.4821V4.592ZM35.4851 12.08C35.2504 12.08 35.0477 11.9947 34.8771 11.824C34.7171 11.6533 34.6371 11.4453 34.6371 11.2C34.6371 10.9547 34.7171 10.752 34.8771 10.592C35.0477 10.4213 35.2504 10.336 35.4851 10.336C35.7197 10.336 35.9224 10.4213 36.0931 10.592C36.2637 10.752 36.3491 10.9547 36.3491 11.2C36.3491 11.4453 36.2637 11.6533 36.0931 11.824C35.9224 11.9947 35.7197 12.08 35.4851 12.08ZM46.9672 6.864H44.4072V12H43.2552V0.799999H44.4072V5.824H46.9672L50.7592 0.799999H52.0392L47.8792 6.24L52.2792 12H50.9192L46.9672 6.864ZM54.0613 3.584H55.1973V10.272L60.8133 3.584H61.8213V12H60.6853V5.312L55.0853 12H54.0613V3.584ZM72.4369 8.144H65.3969C65.4609 9.01867 65.7969 9.728 66.4049 10.272C67.0129 10.8053 67.7809 11.072 68.7089 11.072C69.2316 11.072 69.7116 10.9813 70.1489 10.8C70.5863 10.608 70.9649 10.3307 71.2849 9.968L71.9249 10.704C71.5516 11.152 71.0823 11.4933 70.5169 11.728C69.9623 11.9627 69.3489 12.08 68.6769 12.08C67.8129 12.08 67.0449 11.8987 66.3729 11.536C65.7116 11.1627 65.1943 10.6507 64.8209 10C64.4476 9.34933 64.2609 8.61333 64.2609 7.792C64.2609 6.97067 64.4369 6.23467 64.7889 5.584C65.1516 4.93333 65.6423 4.42667 66.2609 4.064C66.8903 3.70133 67.5943 3.52 68.3729 3.52C69.1516 3.52 69.8503 3.70133 70.4689 4.064C71.0876 4.42667 71.5729 4.93333 71.9249 5.584C72.2769 6.224 72.4529 6.96 72.4529 7.792L72.4369 8.144ZM68.3729 4.496C67.5623 4.496 66.8796 4.75733 66.3249 5.28C65.7809 5.792 65.4716 6.464 65.3969 7.296H71.3649C71.2903 6.464 70.9756 5.792 70.4209 5.28C69.8769 4.75733 69.1943 4.496 68.3729 4.496ZM80.3276 7.648C81.4689 7.91467 82.0396 8.60267 82.0396 9.712C82.0396 10.448 81.7676 11.0133 81.2236 11.408C80.6796 11.8027 79.8689 12 78.7916 12H74.9676V3.584H78.6796C79.6396 3.584 80.3916 3.77067 80.9356 4.144C81.4796 4.51733 81.7516 5.05067 81.7516 5.744C81.7516 6.20267 81.6236 6.59733 81.3676 6.928C81.1222 7.248 80.7756 7.488 80.3276 7.648ZM76.0716 7.328H78.5996C79.2502 7.328 79.7462 7.20533 80.0876 6.96C80.4396 6.71467 80.6156 6.35733 80.6156 5.888C80.6156 5.41867 80.4396 5.06667 80.0876 4.832C79.7462 4.59733 79.2502 4.48 78.5996 4.48H76.0716V7.328ZM78.7436 11.104C79.4689 11.104 80.0129 10.9867 80.3756 10.752C80.7382 10.5173 80.9196 10.1493 80.9196 9.648C80.9196 9.14667 80.7542 8.77867 80.4236 8.544C80.0929 8.29867 79.5702 8.176 78.8556 8.176H76.0716V11.104H78.7436ZM9.84613 23.584L5.63813 33.008C5.29679 33.7973 4.90213 34.3573 4.45413 34.688C4.00613 35.0187 3.46746 35.184 2.83813 35.184C2.43279 35.184 2.05413 35.12 1.70213 34.992C1.35013 34.864 1.04612 34.672 0.790125 34.416L1.31813 33.568C1.74479 33.9947 2.25679 34.208 2.85413 34.208C3.23813 34.208 3.56346 34.1013 3.83013 33.888C4.10746 33.6747 4.36346 33.312 4.59813 32.8L4.96613 31.984L1.20613 23.584H2.39013L5.55813 30.736L8.72613 23.584H9.84613ZM18.121 23.584V32H16.985V24.592H12.953L12.841 26.672C12.7557 28.4213 12.553 29.7653 12.233 30.704C11.913 31.6427 11.3423 32.112 10.521 32.112C10.297 32.112 10.025 32.0693 9.705 31.984L9.785 31.008C9.977 31.0507 10.1103 31.072 10.185 31.072C10.6223 31.072 10.953 30.8693 11.177 30.464C11.401 30.0587 11.5503 29.5573 11.625 28.96C11.6997 28.3627 11.7637 27.5733 11.817 26.592L11.961 23.584H18.121ZM21.4304 32.08C21.1957 32.08 20.993 31.9947 20.8224 31.824C20.6624 31.6533 20.5824 31.4453 20.5824 31.2C20.5824 30.9547 20.6624 30.752 20.8224 30.592C20.993 30.4213 21.1957 30.336 21.4304 30.336C21.665 30.336 21.8677 30.4213 22.0384 30.592C22.209 30.752 22.2944 30.9547 22.2944 31.2C22.2944 31.4453 22.209 31.6533 22.0384 31.824C21.8677 31.9947 21.665 32.08 21.4304 32.08ZM38.5605 20.8V32H37.3925V26.832H30.3845V32H29.2005V20.8H30.3845V25.792H37.3925V20.8H38.5605ZM44.9651 23.52C46.0638 23.52 46.9065 23.7973 47.4931 24.352C48.0798 24.896 48.3731 25.7067 48.3731 26.784V32H47.2851V30.688C47.0291 31.1253 46.6505 31.4667 46.1491 31.712C45.6585 31.9573 45.0718 32.08 44.3891 32.08C43.4505 32.08 42.7038 31.856 42.1491 31.408C41.5945 30.96 41.3171 30.368 41.3171 29.632C41.3171 28.9173 41.5731 28.3413 42.0851 27.904C42.6078 27.4667 43.4345 27.248 44.5651 27.248H47.2371V26.736C47.2371 26.0107 47.0345 25.4613 46.6291 25.088C46.2238 24.704 45.6318 24.512 44.8531 24.512C44.3198 24.512 43.8078 24.6027 43.3171 24.784C42.8265 24.9547 42.4051 25.1947 42.0531 25.504L41.5411 24.656C41.9678 24.2933 42.4798 24.016 43.0771 23.824C43.6745 23.6213 44.3038 23.52 44.9651 23.52ZM44.5651 31.184C45.2051 31.184 45.7545 31.04 46.2131 30.752C46.6718 30.4533 47.0131 30.0267 47.2371 29.472V28.096H44.5971C43.1571 28.096 42.4371 28.5973 42.4371 29.6C42.4371 30.0907 42.6238 30.48 42.9971 30.768C43.3705 31.0453 43.8931 31.184 44.5651 31.184ZM55.3214 27.616C55.9187 27.7547 56.3774 27.9947 56.6974 28.336C57.028 28.6773 57.1934 29.0933 57.1934 29.584C57.1934 30.0747 57.0227 30.512 56.6814 30.896C56.3507 31.28 55.8974 31.5787 55.3214 31.792C54.7454 31.9947 54.1107 32.096 53.4174 32.096C52.8094 32.096 52.212 32.0107 51.6254 31.84C51.0387 31.6587 50.5267 31.3973 50.0894 31.056L50.4734 30.208C50.8574 30.496 51.3054 30.72 51.8174 30.88C52.3294 31.04 52.8467 31.12 53.3694 31.12C54.148 31.12 54.7827 30.976 55.2734 30.688C55.7747 30.3893 56.0254 29.9893 56.0254 29.488C56.0254 29.04 55.8227 28.6933 55.4174 28.448C55.012 28.192 54.4574 28.064 53.7534 28.064H52.3134V27.232H53.6894C54.3187 27.232 54.8254 27.1147 55.2094 26.88C55.5934 26.6347 55.7854 26.3093 55.7854 25.904C55.7854 25.456 55.5667 25.104 55.1294 24.848C54.7027 24.592 54.1427 24.464 53.4494 24.464C52.5427 24.464 51.6467 24.6933 50.7614 25.152L50.4414 24.272C51.444 23.7493 52.484 23.488 53.5614 23.488C54.2014 23.488 54.7774 23.584 55.2894 23.776C55.812 23.9573 56.2174 24.2187 56.5054 24.56C56.804 24.9013 56.9534 25.296 56.9534 25.744C56.9534 26.1707 56.804 26.5493 56.5054 26.88C56.2174 27.2107 55.8227 27.456 55.3214 27.616ZM65.1323 27.648C66.2736 27.9147 66.8443 28.6027 66.8443 29.712C66.8443 30.448 66.5723 31.0133 66.0283 31.408C65.4843 31.8027 64.6736 32 63.5963 32H59.7723V23.584H63.4843C64.4443 23.584 65.1963 23.7707 65.7403 24.144C66.2843 24.5173 66.5563 25.0507 66.5563 25.744C66.5563 26.2027 66.4283 26.5973 66.1723 26.928C65.9269 27.248 65.5803 27.488 65.1323 27.648ZM60.8763 27.328H63.4043C64.0549 27.328 64.5509 27.2053 64.8923 26.96C65.2443 26.7147 65.4203 26.3573 65.4203 25.888C65.4203 25.4187 65.2443 25.0667 64.8923 24.832C64.5509 24.5973 64.0549 24.48 63.4043 24.48H60.8763V27.328ZM63.5483 31.104C64.2736 31.104 64.8176 30.9867 65.1803 30.752C65.5429 30.5173 65.7243 30.1493 65.7243 29.648C65.7243 29.1467 65.5589 28.7787 65.2283 28.544C64.8976 28.2987 64.3749 28.176 63.6603 28.176H60.8763V31.104H63.5483ZM72.4026 23.52C73.5013 23.52 74.344 23.7973 74.9306 24.352C75.5173 24.896 75.8106 25.7067 75.8106 26.784V32H74.7226V30.688C74.4666 31.1253 74.088 31.4667 73.5866 31.712C73.096 31.9573 72.5093 32.08 71.8266 32.08C70.888 32.08 70.1413 31.856 69.5866 31.408C69.032 30.96 68.7546 30.368 68.7546 29.632C68.7546 28.9173 69.0106 28.3413 69.5226 27.904C70.0453 27.4667 70.872 27.248 72.0026 27.248H74.6746V26.736C74.6746 26.0107 74.472 25.4613 74.0666 25.088C73.6613 24.704 73.0693 24.512 72.2906 24.512C71.7573 24.512 71.2453 24.6027 70.7546 24.784C70.264 24.9547 69.8426 25.1947 69.4906 25.504L68.9786 24.656C69.4053 24.2933 69.9173 24.016 70.5146 23.824C71.112 23.6213 71.7413 23.52 72.4026 23.52ZM72.0026 31.184C72.6426 31.184 73.192 31.04 73.6506 30.752C74.1093 30.4533 74.4506 30.0267 74.6746 29.472V28.096H72.0346C70.5946 28.096 69.8746 28.5973 69.8746 29.6C69.8746 30.0907 70.0613 30.48 70.4346 30.768C70.808 31.0453 71.3306 31.184 72.0026 31.184ZM78.8348 23.584H79.9708V27.312H85.2668V23.584H86.4028V32H85.2668V28.288H79.9708V32H78.8348V23.584ZM89.6316 23.584H90.7676V30.272L96.3836 23.584H97.3916V32H96.2556V25.312L90.6556 32H89.6316V23.584ZM108.007 28.144H100.967C101.031 29.0187 101.367 29.728 101.975 30.272C102.583 30.8053 103.351 31.072 104.279 31.072C104.802 31.072 105.282 30.9813 105.719 30.8C106.157 30.608 106.535 30.3307 106.855 29.968L107.495 30.704C107.122 31.152 106.653 31.4933 106.087 31.728C105.533 31.9627 104.919 32.08 104.247 32.08C103.383 32.08 102.615 31.8987 101.943 31.536C101.282 31.1627 100.765 30.6507 100.391 30C100.018 29.3493 99.8313 28.6133 99.8313 27.792C99.8313 26.9707 100.007 26.2347 100.359 25.584C100.722 24.9333 101.213 24.4267 101.831 24.064C102.461 23.7013 103.165 23.52 103.943 23.52C104.722 23.52 105.421 23.7013 106.039 24.064C106.658 24.4267 107.143 24.9333 107.495 25.584C107.847 26.224 108.023 26.96 108.023 27.792L108.007 28.144ZM103.943 24.496C103.133 24.496 102.45 24.7573 101.895 25.28C101.351 25.792 101.042 26.464 100.967 27.296H106.935C106.861 26.464 106.546 25.792 105.991 25.28C105.447 24.7573 104.765 24.496 103.943 24.496Z" fill="white"/>
</svg>
