<svg width="89" height="33" viewBox="0 0 89 33" fill="none" xmlns="http://www.w3.org/2000/svg">
<path d="M27.1636 0.799999V12H25.9956V1.824H18.9076V12H17.7396V0.799999H27.1636ZM40.3027 0.799999V12H39.1347V6.832H32.1267V12H30.9427V0.799999H32.1267V5.792H39.1347V0.799999H40.3027ZM43.1553 7.168H47.3473V8.16H43.1553V7.168ZM59.6167 0.799999V12H58.4487V1.824H51.3607V12H50.1927V0.799999H59.6167ZM70.7238 1.824H66.7878V12H65.6198V1.824H61.6838V0.799999H70.7238V1.824ZM72.4538 5.264C72.2191 5.264 72.0165 5.17867 71.8458 5.008C71.6858 4.83733 71.6058 4.62933 71.6058 4.384C71.6058 4.13867 71.6858 3.936 71.8458 3.776C72.0165 3.60533 72.2191 3.52 72.4538 3.52C72.6885 3.52 72.8911 3.60533 73.0618 3.776C73.2325 3.936 73.3178 4.13867 73.3178 4.384C73.3178 4.62933 73.2325 4.83733 73.0618 5.008C72.8911 5.17867 72.6885 5.264 72.4538 5.264ZM72.4538 12.08C72.2191 12.08 72.0165 11.9947 71.8458 11.824C71.6858 11.6533 71.6058 11.4453 71.6058 11.2C71.6058 10.9547 71.6858 10.752 71.8458 10.592C72.0165 10.4213 72.2191 10.336 72.4538 10.336C72.6885 10.336 72.8911 10.4213 73.0618 10.592C73.2325 10.752 73.3178 10.9547 73.3178 11.2C73.3178 11.4453 73.2325 11.6533 73.0618 11.824C72.8911 11.9947 72.6885 12.08 72.4538 12.08ZM4.6325 20.704C6.11517 20.704 7.25117 21.1947 8.0405 22.176C8.82983 23.1467 9.2245 24.5227 9.2245 26.304C9.2245 27.552 9.01117 28.608 8.5845 29.472C8.15783 30.336 7.5605 30.992 6.7925 31.44C6.0245 31.8773 5.1285 32.096 4.1045 32.096C2.99517 32.096 2.10983 31.8933 1.4485 31.488L1.9125 30.56C2.44583 30.912 3.17117 31.088 4.0885 31.088C5.32583 31.088 6.2965 30.6987 7.0005 29.92C7.7045 29.1307 8.0565 27.9893 8.0565 26.496C8.0565 26.2187 8.0405 25.9147 8.0085 25.584C7.73117 26.192 7.2885 26.6667 6.6805 27.008C6.0725 27.3387 5.37383 27.504 4.5845 27.504C3.8485 27.504 3.1925 27.3653 2.6165 27.088C2.05117 26.8107 1.6085 26.4213 1.2885 25.92C0.9685 25.408 0.8085 24.816 0.8085 24.144C0.8085 23.4613 0.973833 22.8587 1.3045 22.336C1.63517 21.8133 2.0885 21.4133 2.6645 21.136C3.25117 20.848 3.90717 20.704 4.6325 20.704ZM4.7605 26.528C5.32583 26.528 5.82183 26.4213 6.2485 26.208C6.68583 25.9947 7.02717 25.7013 7.2725 25.328C7.51783 24.9547 7.6405 24.5387 7.6405 24.08C7.6405 23.6533 7.52317 23.2587 7.2885 22.896C7.0645 22.5333 6.7285 22.24 6.2805 22.016C5.8325 21.792 5.29917 21.68 4.6805 21.68C3.86983 21.68 3.2085 21.904 2.6965 22.352C2.19517 22.7893 1.9445 23.376 1.9445 24.112C1.9445 24.848 2.19517 25.4347 2.6965 25.872C3.2085 26.3093 3.8965 26.528 4.7605 26.528ZM11.7585 25.264C11.5238 25.264 11.3212 25.1787 11.1505 25.008C10.9905 24.8373 10.9105 24.6293 10.9105 24.384C10.9105 24.1387 10.9905 23.936 11.1505 23.776C11.3212 23.6053 11.5238 23.52 11.7585 23.52C11.9932 23.52 12.1958 23.6053 12.3665 23.776C12.5372 23.936 12.6225 24.1387 12.6225 24.384C12.6225 24.6293 12.5372 24.8373 12.3665 25.008C12.1958 25.1787 11.9932 25.264 11.7585 25.264ZM11.7585 32.08C11.5238 32.08 11.3212 31.9947 11.1505 31.824C10.9905 31.6533 10.9105 31.4453 10.9105 31.2C10.9105 30.9547 10.9905 30.752 11.1505 30.592C11.3212 30.4213 11.5238 30.336 11.7585 30.336C11.9932 30.336 12.1958 30.4213 12.3665 30.592C12.5372 30.752 12.6225 30.9547 12.6225 31.2C12.6225 31.4453 12.5372 31.6533 12.3665 31.824C12.1958 31.9947 11.9932 32.08 11.7585 32.08ZM18.7491 32.096C17.8851 32.096 17.1118 31.8667 16.4291 31.408C15.7571 30.9493 15.2291 30.2933 14.8451 29.44C14.4718 28.576 14.2851 27.5627 14.2851 26.4C14.2851 25.2373 14.4718 24.2293 14.8451 23.376C15.2291 22.512 15.7571 21.8507 16.4291 21.392C17.1118 20.9333 17.8851 20.704 18.7491 20.704C19.6131 20.704 20.3811 20.9333 21.0531 21.392C21.7358 21.8507 22.2691 22.512 22.6531 23.376C23.0371 24.2293 23.2291 25.2373 23.2291 26.4C23.2291 27.5627 23.0371 28.576 22.6531 29.44C22.2691 30.2933 21.7358 30.9493 21.0531 31.408C20.3811 31.8667 19.6131 32.096 18.7491 32.096ZM18.7491 31.04C19.3998 31.04 19.9705 30.8587 20.4611 30.496C20.9625 30.1333 21.3518 29.6053 21.6291 28.912C21.9065 28.2187 22.0451 27.3813 22.0451 26.4C22.0451 25.4187 21.9065 24.5813 21.6291 23.888C21.3518 23.1947 20.9625 22.6667 20.4611 22.304C19.9705 21.9413 19.3998 21.76 18.7491 21.76C18.0985 21.76 17.5225 21.9413 17.0211 22.304C16.5305 22.6667 16.1465 23.1947 15.8691 23.888C15.5918 24.5813 15.4531 25.4187 15.4531 26.4C15.4531 27.3813 15.5918 28.2187 15.8691 28.912C16.1465 29.6053 16.5305 30.1333 17.0211 30.496C17.5225 30.8587 18.0985 31.04 18.7491 31.04ZM29.3429 32.096C28.4789 32.096 27.7055 31.8667 27.0229 31.408C26.3509 30.9493 25.8229 30.2933 25.4389 29.44C25.0655 28.576 24.8789 27.5627 24.8789 26.4C24.8789 25.2373 25.0655 24.2293 25.4389 23.376C25.8229 22.512 26.3509 21.8507 27.0229 21.392C27.7055 20.9333 28.4789 20.704 29.3429 20.704C30.2069 20.704 30.9749 20.9333 31.6469 21.392C32.3295 21.8507 32.8629 22.512 33.2469 23.376C33.6309 24.2293 33.8229 25.2373 33.8229 26.4C33.8229 27.5627 33.6309 28.576 33.2469 29.44C32.8629 30.2933 32.3295 30.9493 31.6469 31.408C30.9749 31.8667 30.2069 32.096 29.3429 32.096ZM29.3429 31.04C29.9935 31.04 30.5642 30.8587 31.0549 30.496C31.5562 30.1333 31.9455 29.6053 32.2229 28.912C32.5002 28.2187 32.6389 27.3813 32.6389 26.4C32.6389 25.4187 32.5002 24.5813 32.2229 23.888C31.9455 23.1947 31.5562 22.6667 31.0549 22.304C30.5642 21.9413 29.9935 21.76 29.3429 21.76C28.6922 21.76 28.1162 21.9413 27.6149 22.304C27.1242 22.6667 26.7402 23.1947 26.4629 23.888C26.1855 24.5813 26.0469 25.4187 26.0469 26.4C26.0469 27.3813 26.1855 28.2187 26.4629 28.912C26.7402 29.6053 27.1242 30.1333 27.6149 30.496C28.1162 30.8587 28.6922 31.04 29.3429 31.04ZM39.7881 27.168H43.9801V28.16H39.7881V27.168ZM53.061 20.8V32H51.909V21.824H49.269V20.8H53.061ZM62.1543 26.128C62.8583 26.3627 63.3969 26.7147 63.7703 27.184C64.1543 27.6533 64.3463 28.2187 64.3463 28.88C64.3463 29.5307 64.1703 30.1013 63.8183 30.592C63.4663 31.072 62.9596 31.4453 62.2983 31.712C61.6476 31.968 60.8796 32.096 59.9943 32.096C58.6503 32.096 57.5943 31.808 56.8263 31.232C56.0583 30.656 55.6743 29.872 55.6743 28.88C55.6743 28.208 55.8556 27.6427 56.2183 27.184C56.5916 26.7147 57.1303 26.3627 57.8343 26.128C57.2583 25.904 56.8209 25.584 56.5223 25.168C56.2236 24.7413 56.0743 24.24 56.0743 23.664C56.0743 22.7573 56.4263 22.0373 57.1303 21.504C57.8449 20.9707 58.7996 20.704 59.9943 20.704C60.7836 20.704 61.4716 20.8267 62.0583 21.072C62.6556 21.3067 63.1196 21.648 63.4503 22.096C63.7809 22.544 63.9462 23.0667 63.9462 23.664C63.9462 24.24 63.7916 24.7413 63.4823 25.168C63.1729 25.584 62.7303 25.904 62.1543 26.128ZM57.2263 23.696C57.2263 24.3147 57.4716 24.8053 57.9623 25.168C58.4529 25.5307 59.1303 25.712 59.9943 25.712C60.8583 25.712 61.5356 25.5307 62.0263 25.168C62.5276 24.8053 62.7783 24.32 62.7783 23.712C62.7783 23.0827 62.5223 22.5867 62.0103 22.224C61.5089 21.8613 60.8369 21.68 59.9943 21.68C59.1409 21.68 58.4636 21.8613 57.9623 22.224C57.4716 22.5867 57.2263 23.0773 57.2263 23.696ZM59.9943 31.12C60.9863 31.12 61.7596 30.9173 62.3143 30.512C62.8796 30.1067 63.1623 29.5573 63.1623 28.864C63.1623 28.1707 62.8796 27.6267 62.3143 27.232C61.7596 26.8267 60.9863 26.624 59.9943 26.624C59.0129 26.624 58.2396 26.8267 57.6743 27.232C57.1196 27.6267 56.8423 28.1707 56.8423 28.864C56.8423 29.568 57.1196 30.1227 57.6743 30.528C58.2289 30.9227 59.0023 31.12 59.9943 31.12ZM66.8054 25.264C66.5707 25.264 66.368 25.1787 66.1974 25.008C66.0374 24.8373 65.9574 24.6293 65.9574 24.384C65.9574 24.1387 66.0374 23.936 66.1974 23.776C66.368 23.6053 66.5707 23.52 66.8054 23.52C67.04 23.52 67.2427 23.6053 67.4134 23.776C67.584 23.936 67.6694 24.1387 67.6694 24.384C67.6694 24.6293 67.584 24.8373 67.4134 25.008C67.2427 25.1787 67.04 25.264 66.8054 25.264ZM66.8054 32.08C66.5707 32.08 66.368 31.9947 66.1974 31.824C66.0374 31.6533 65.9574 31.4453 65.9574 31.2C65.9574 30.9547 66.0374 30.752 66.1974 30.592C66.368 30.4213 66.5707 30.336 66.8054 30.336C67.04 30.336 67.2427 30.4213 67.4134 30.592C67.584 30.752 67.6694 30.9547 67.6694 31.2C67.6694 31.4453 67.584 31.6533 67.4134 31.824C67.2427 31.9947 67.04 32.08 66.8054 32.08ZM73.796 32.096C72.932 32.096 72.1587 31.8667 71.476 31.408C70.804 30.9493 70.276 30.2933 69.892 29.44C69.5187 28.576 69.332 27.5627 69.332 26.4C69.332 25.2373 69.5187 24.2293 69.892 23.376C70.276 22.512 70.804 21.8507 71.476 21.392C72.1587 20.9333 72.932 20.704 73.796 20.704C74.66 20.704 75.428 20.9333 76.1 21.392C76.7827 21.8507 77.316 22.512 77.7 23.376C78.084 24.2293 78.276 25.2373 78.276 26.4C78.276 27.5627 78.084 28.576 77.7 29.44C77.316 30.2933 76.7827 30.9493 76.1 31.408C75.428 31.8667 74.66 32.096 73.796 32.096ZM73.796 31.04C74.4467 31.04 75.0173 30.8587 75.508 30.496C76.0093 30.1333 76.3987 29.6053 76.676 28.912C76.9533 28.2187 77.092 27.3813 77.092 26.4C77.092 25.4187 76.9533 24.5813 76.676 23.888C76.3987 23.1947 76.0093 22.6667 75.508 22.304C75.0173 21.9413 74.4467 21.76 73.796 21.76C73.1453 21.76 72.5693 21.9413 72.068 22.304C71.5773 22.6667 71.1933 23.1947 70.916 23.888C70.6387 24.5813 70.5 25.4187 70.5 26.4C70.5 27.3813 70.6387 28.2187 70.916 28.912C71.1933 29.6053 71.5773 30.1333 72.068 30.496C72.5693 30.8587 73.1453 31.04 73.796 31.04ZM84.3898 32.096C83.5258 32.096 82.7524 31.8667 82.0698 31.408C81.3978 30.9493 80.8698 30.2933 80.4858 29.44C80.1124 28.576 79.9258 27.5627 79.9258 26.4C79.9258 25.2373 80.1124 24.2293 80.4858 23.376C80.8698 22.512 81.3978 21.8507 82.0698 21.392C82.7524 20.9333 83.5258 20.704 84.3898 20.704C85.2538 20.704 86.0218 20.9333 86.6938 21.392C87.3764 21.8507 87.9098 22.512 88.2938 23.376C88.6778 24.2293 88.8698 25.2373 88.8698 26.4C88.8698 27.5627 88.6778 28.576 88.2938 29.44C87.9098 30.2933 87.3764 30.9493 86.6938 31.408C86.0218 31.8667 85.2538 32.096 84.3898 32.096ZM84.3898 31.04C85.0404 31.04 85.6111 30.8587 86.1018 30.496C86.6031 30.1333 86.9924 29.6053 87.2698 28.912C87.5471 28.2187 87.6858 27.3813 87.6858 26.4C87.6858 25.4187 87.5471 24.5813 87.2698 23.888C86.9924 23.1947 86.6031 22.6667 86.1018 22.304C85.6111 21.9413 85.0404 21.76 84.3898 21.76C83.7391 21.76 83.1631 21.9413 82.6618 22.304C82.1711 22.6667 81.7871 23.1947 81.5098 23.888C81.2324 24.5813 81.0938 25.4187 81.0938 26.4C81.0938 27.3813 81.2324 28.2187 81.5098 28.912C81.7871 29.6053 82.1711 30.1333 82.6618 30.496C83.1631 30.8587 83.7391 31.04 84.3898 31.04Z" fill="white"/>
</svg>
